G04 Layer: BottomLayer*
G04 EasyEDA v6.4.23, 2021-09-04T00:31:51+08:00*
G04 872143699bd64a1e8f6259a32930bd7b,34bb6763e28e4bbdb854ef51fa08daf4,10*
G04 Gerber Generator version 0.2*
G04 Scale: 100 percent, Rotated: No, Reflected: No *
G04 Dimensions in millimeters *
G04 leading zeros omitted , absolute positions ,4 integer and 5 decimal *
%FSLAX45Y45*%
%MOMM*%

%ADD11C,0.4000*%
%ADD12C,0.6096*%
%ADD17C,0.5684*%

%LPD*%
D11*
X1770506Y1690496D02*
G01*
X1703196Y1690496D01*
X1625600Y1612900D01*
X1625600Y939800D01*
X1689100Y876300D01*
X1229613Y1690370D02*
G01*
X1370329Y1690370D01*
X1536700Y1524000D01*
X1536700Y901700D01*
X1689100Y749300D01*
X1229613Y1563370D02*
G01*
X1357629Y1563370D01*
X1460500Y1460500D01*
X1460500Y850900D01*
X1574800Y736600D01*
X1229613Y1436370D02*
G01*
X1357629Y1436370D01*
X1384300Y1409700D01*
X1384300Y800100D01*
X1447800Y736600D01*
X1917700Y1524000D02*
G01*
X2000097Y1441602D01*
X2032000Y1441602D01*
X1770509Y1436499D02*
G01*
X1830199Y1436499D01*
X1917700Y1524000D01*
X1770634Y1309623D02*
G01*
X1833265Y1309623D01*
X1833265Y1309623D02*
G01*
X2032000Y1309623D01*
X2032000Y1301495D01*
D17*
X1701416Y1690496D02*
G01*
X1839597Y1690496D01*
X1701416Y1563496D02*
G01*
X1839597Y1563496D01*
X1701416Y1436496D02*
G01*
X1839597Y1436496D01*
X1701416Y1309496D02*
G01*
X1839597Y1309496D01*
X1160396Y1690496D02*
G01*
X1298577Y1690496D01*
X1160396Y1563496D02*
G01*
X1298577Y1563496D01*
X1160396Y1436496D02*
G01*
X1298577Y1436496D01*
X1160396Y1309496D02*
G01*
X1298577Y1309496D01*
G36*
X1986998Y1341600D02*
G01*
X1986998Y1261600D01*
X2077001Y1261600D01*
X2077001Y1341600D01*
G37*
G36*
X1986998Y1481599D02*
G01*
X1986998Y1401599D01*
X2077001Y1401599D01*
X2077001Y1481599D01*
G37*
D12*
G01*
X1917700Y1524000D03*
G01*
X1833265Y1309623D03*
G01*
X1447800Y736600D03*
G01*
X1574800Y736600D03*
G01*
X1689100Y749300D03*
G01*
X1689100Y876300D03*
M02*
