G04 Layer: TopPasteMaskLayer*
G04 EasyEDA v6.4.20.8, 2021-08-23T13:39:17+08:00*
G04 08afd42ca09249d0a924e3639ea88795,34bb6763e28e4bbdb854ef51fa08daf4,10*
G04 Gerber Generator version 0.2*
G04 Scale: 100 percent, Rotated: No, Reflected: No *
G04 Dimensions in millimeters *
G04 leading zeros omitted , absolute positions ,4 integer and 5 decimal *
%FSLAX45Y45*%
%MOMM*%

%ADD16R,0.6000X1.0000*%

%LPD*%
G36*
X1503199Y1226101D02*
G01*
X1583199Y1226101D01*
X1583199Y1136098D01*
X1503199Y1136098D01*
G37*
G36*
X1363200Y1226101D02*
G01*
X1443200Y1226101D01*
X1443200Y1136098D01*
X1363200Y1136098D01*
G37*
G36*
X1291854Y689610D02*
G01*
X1351798Y689610D01*
X1351798Y519429D01*
X1291854Y519429D01*
G37*
G36*
X1166926Y689610D02*
G01*
X1226870Y689610D01*
X1226870Y519429D01*
X1166926Y519429D01*
G37*
G36*
X1966584Y419501D02*
G01*
X2066660Y419501D01*
X2066660Y149499D01*
X1966584Y149499D01*
G37*
G36*
X951862Y419501D02*
G01*
X1051938Y419501D01*
X1051938Y149499D01*
X951862Y149499D01*
G37*
G36*
X1416834Y689610D02*
G01*
X1476778Y689610D01*
X1476778Y519429D01*
X1416834Y519429D01*
G37*
G36*
X1541820Y689610D02*
G01*
X1601764Y689610D01*
X1601764Y519429D01*
X1541820Y519429D01*
G37*
G36*
X1666798Y689607D02*
G01*
X1726742Y689607D01*
X1726742Y519427D01*
X1666798Y519427D01*
G37*
G36*
X1791776Y689607D02*
G01*
X1851720Y689607D01*
X1851720Y519427D01*
X1791776Y519427D01*
G37*
D16*
G01*
X1405003Y1630009D03*
G01*
X1594995Y1630009D03*
G01*
X1594995Y1369989D03*
G01*
X1499999Y1369989D03*
G01*
X1405003Y1369989D03*
M02*
