G04 Layer: BottomLayer*
G04 EasyEDA v6.4.20.8, 2021-08-23T13:39:17+08:00*
G04 08afd42ca09249d0a924e3639ea88795,34bb6763e28e4bbdb854ef51fa08daf4,10*
G04 Gerber Generator version 0.2*
G04 Scale: 100 percent, Rotated: No, Reflected: No *
G04 Dimensions in millimeters *
G04 leading zeros omitted , absolute positions ,4 integer and 5 decimal *
%FSLAX45Y45*%
%MOMM*%

%ADD11C,0.4000*%
%ADD12C,0.6096*%
%ADD17C,0.5684*%

%LPD*%
D11*
X1770634Y1309623D02*
G01*
X2032000Y1309623D01*
X2032000Y1301495D01*
X1524000Y889000D02*
G01*
X1524000Y812800D01*
X1447800Y736600D01*
X1229613Y1690623D02*
G01*
X1484376Y1690623D01*
X1536700Y1638300D01*
X1536700Y1231900D01*
X1612900Y1155700D01*
X1612900Y965200D01*
X1229489Y1436499D02*
G01*
X1344800Y1436499D01*
X1384300Y1397000D01*
X1384300Y1143000D01*
X1435100Y1092200D01*
X1435100Y838200D01*
X1229489Y1563499D02*
G01*
X1408300Y1563499D01*
X1460500Y1511300D01*
X1460500Y1193800D01*
X1524000Y1130300D01*
X1524000Y889000D01*
X1770509Y1690499D02*
G01*
X1665099Y1690499D01*
X1625600Y1651000D01*
X1625600Y1270000D01*
X1701800Y1193800D01*
X1701800Y800100D01*
X1770509Y1436499D02*
G01*
X1830199Y1436499D01*
X1917700Y1524000D01*
X1917700Y1524000D02*
G01*
X2000097Y1441602D01*
X2032000Y1441602D01*
D17*
X1701419Y1690499D02*
G01*
X1839600Y1690499D01*
X1701419Y1563499D02*
G01*
X1839600Y1563499D01*
X1701419Y1436499D02*
G01*
X1839600Y1436499D01*
X1701419Y1309499D02*
G01*
X1839600Y1309499D01*
X1160398Y1690499D02*
G01*
X1298580Y1690499D01*
X1160398Y1563499D02*
G01*
X1298580Y1563499D01*
X1160398Y1436499D02*
G01*
X1298580Y1436499D01*
X1160398Y1309499D02*
G01*
X1298580Y1309499D01*
G36*
X1986998Y1341600D02*
G01*
X1986998Y1261600D01*
X2077001Y1261600D01*
X2077001Y1341600D01*
G37*
G36*
X1986998Y1481599D02*
G01*
X1986998Y1401599D01*
X2077001Y1401599D01*
X2077001Y1481599D01*
G37*
D12*
G01*
X1917700Y1524000D03*
G01*
X1701800Y800100D03*
G01*
X1612900Y965200D03*
G01*
X1435100Y838200D03*
G01*
X1447800Y736600D03*
G01*
X1714500Y1308100D03*
M02*
