M48
METRIC,LZ,000.000
;FILE_FORMAT=3:3
;TYPE=PLATED
;Layer: Drill PTH
;EasyEDA v6.4.25, 2021-10-30T01:07:18+08:00
;7f02064591534d1f9d428ba05e81f3eb,34bb6763e28e4bbdb854ef51fa08daf4,10
;Gerber Generator version 0.2
;Holesize 1 = 0.305 mm
T01C0.305
;Holesize 2 = 1.101 mm
T02C1.101
;Holesize 3 = 1.800 mm
T03C1.800
;Holesize 4 = 2.000 mm
T04C2.000
%
G05
G90
T01
X003429Y005969
X009398Y006096
X017526Y006096
X016510Y008001
X021209Y007874
X015240Y010287
X009398Y012446
X011557Y012573
X013716Y012573
X010922Y018542
X011938Y018034
X012700Y018288
X010160Y017907
X018288Y012446
X019050Y011811
X018034Y011049
X017399Y010287
X016891Y021844
X016129Y021971
X015875Y020701
X024257Y027686
X024257Y026797
X024257Y026035
X001590Y021021
X002032Y021463
X002646Y021463
X003254Y021463
X003925Y013400
X004553Y013400
X006064Y013400
X006706Y013400
X005654Y014544
X005334Y013970
X008265Y018898
X008867Y018898
X007663Y018898
X008001Y005969
X018542Y005969
X010668Y006096
X015644Y004648
X012446Y022479
X011176Y021336
X012446Y019939
X013208Y021463
X003476Y020722
X003495Y020064
X007674Y012013
X007490Y011073
X005762Y007954
X007132Y007954
X014906Y001631
X016163Y001617
X014933Y000722
X016129Y000682
X008937Y001689
X009850Y001707
X009859Y000762
X008942Y000790
X004276Y011011
X006439Y010997
X003275Y010575
X002594Y009872
X002480Y008710
X002480Y007373
X004659Y015474
X003977Y015481
X002848Y015474
X001932Y015481
X006642Y026966
X006599Y024948
X005837Y024948
X005663Y026985
X008928Y023166
X008006Y024059
X013589Y013970
X011557Y014097
X008966Y015100
X008903Y013830
X023762Y010630
X009398Y021082
X008636Y024638
X008509Y028448
X007747Y024892
X007747Y029464
X013716Y024638
X016637Y024130
X013294Y015621
X006604Y014351
X017780Y016637
X017780Y015494
X017780Y014478
T02
X007081Y035878
X018081Y035878
T03
X015081Y025878
X010081Y025878
T04
X002080Y037878
X023080Y037878
X002080Y001878
X023080Y001878
M30
