G04 Layer: TopSilkLayer*
G04 EasyEDA v6.4.25, 2021-10-30T01:07:18+08:00*
G04 7f02064591534d1f9d428ba05e81f3eb,34bb6763e28e4bbdb854ef51fa08daf4,10*
G04 Gerber Generator version 0.2*
G04 Scale: 100 percent, Rotated: No, Reflected: No *
G04 Dimensions in millimeters *
G04 leading zeros omitted , absolute positions ,4 integer and 5 decimal *
%FSLAX45Y45*%
%MOMM*%

%ADD10C,0.2540*%
%ADD11C,0.2000*%
%ADD42C,0.2030*%
%ADD43C,0.1524*%
%ADD44C,0.1500*%

%LPD*%
D11*
X782065Y3796537D02*
G01*
X782065Y3723894D01*
X777494Y3710178D01*
X772921Y3705605D01*
X763778Y3701034D01*
X754887Y3701034D01*
X745744Y3705605D01*
X741171Y3710178D01*
X736600Y3723894D01*
X736600Y3733037D01*
X812037Y3796537D02*
G01*
X812037Y3701034D01*
X812037Y3701034D02*
G01*
X866647Y3701034D01*
X964692Y3773931D02*
G01*
X960120Y3783076D01*
X951229Y3791965D01*
X942086Y3796537D01*
X923797Y3796537D01*
X914907Y3791965D01*
X905763Y3783076D01*
X901192Y3773931D01*
X896620Y3760215D01*
X896620Y3737610D01*
X901192Y3723894D01*
X905763Y3714750D01*
X914907Y3705605D01*
X923797Y3701034D01*
X942086Y3701034D01*
X951229Y3705605D01*
X960120Y3714750D01*
X964692Y3723894D01*
X1040129Y3796537D02*
G01*
X1040129Y3723894D01*
X1035812Y3710178D01*
X1031239Y3705605D01*
X1022095Y3701034D01*
X1012952Y3701034D01*
X1003807Y3705605D01*
X999236Y3710178D01*
X994663Y3723894D01*
X994663Y3733037D01*
X1070355Y3796537D02*
G01*
X1070355Y3701034D01*
X1070355Y3701034D02*
G01*
X1124712Y3701034D01*
X1223010Y3773931D02*
G01*
X1218437Y3783076D01*
X1209294Y3791965D01*
X1200150Y3796537D01*
X1182115Y3796537D01*
X1172971Y3791965D01*
X1163828Y3783076D01*
X1159255Y3773931D01*
X1154684Y3760215D01*
X1154684Y3737610D01*
X1159255Y3723894D01*
X1163828Y3714750D01*
X1172971Y3705605D01*
X1182115Y3701034D01*
X1200150Y3701034D01*
X1209294Y3705605D01*
X1218437Y3714750D01*
X1223010Y3723894D01*
X1298447Y3796537D02*
G01*
X1298447Y3723894D01*
X1293876Y3710178D01*
X1289304Y3705605D01*
X1280160Y3701034D01*
X1271270Y3701034D01*
X1262126Y3705605D01*
X1257554Y3710178D01*
X1252981Y3723894D01*
X1252981Y3733037D01*
X1328420Y3796537D02*
G01*
X1328420Y3701034D01*
X1328420Y3701034D02*
G01*
X1383029Y3701034D01*
X1481073Y3773931D02*
G01*
X1476502Y3783076D01*
X1467612Y3791965D01*
X1458468Y3796537D01*
X1440179Y3796537D01*
X1431036Y3791965D01*
X1422145Y3783076D01*
X1417573Y3773931D01*
X1413002Y3760215D01*
X1413002Y3737610D01*
X1417573Y3723894D01*
X1422145Y3714750D01*
X1431036Y3705605D01*
X1440179Y3701034D01*
X1458468Y3701034D01*
X1467612Y3705605D01*
X1476502Y3714750D01*
X1481073Y3723894D01*
X1556512Y3796537D02*
G01*
X1556512Y3723894D01*
X1551939Y3710178D01*
X1547621Y3705605D01*
X1538478Y3701034D01*
X1529334Y3701034D01*
X1520189Y3705605D01*
X1515618Y3710178D01*
X1511045Y3723894D01*
X1511045Y3733037D01*
X1586484Y3796537D02*
G01*
X1586484Y3701034D01*
X1586484Y3701034D02*
G01*
X1641094Y3701034D01*
X1739392Y3773931D02*
G01*
X1734820Y3783076D01*
X1725676Y3791965D01*
X1716531Y3796537D01*
X1698497Y3796537D01*
X1689354Y3791965D01*
X1680210Y3783076D01*
X1675637Y3773931D01*
X1671065Y3760215D01*
X1671065Y3737610D01*
X1675637Y3723894D01*
X1680210Y3714750D01*
X1689354Y3705605D01*
X1698497Y3701034D01*
X1716531Y3701034D01*
X1725676Y3705605D01*
X1734820Y3714750D01*
X1739392Y3723894D01*
D43*
X2211578Y2375407D02*
G01*
X2206244Y2385821D01*
X2195829Y2396236D01*
X2185670Y2401315D01*
X2164842Y2401315D01*
X2154428Y2396236D01*
X2144013Y2385821D01*
X2138679Y2375407D01*
X2133600Y2359660D01*
X2133600Y2333752D01*
X2138679Y2318257D01*
X2144013Y2307844D01*
X2154428Y2297429D01*
X2164842Y2292350D01*
X2185670Y2292350D01*
X2195829Y2297429D01*
X2206244Y2307844D01*
X2211578Y2318257D01*
X2133600Y2185415D02*
G01*
X2133600Y2076450D01*
X2133600Y2185415D02*
G01*
X2169921Y2185415D01*
X2185670Y2180336D01*
X2195829Y2169921D01*
X2201163Y2159507D01*
X2206244Y2143760D01*
X2206244Y2117852D01*
X2201163Y2102357D01*
X2195829Y2091944D01*
X2185670Y2081529D01*
X2169921Y2076450D01*
X2133600Y2076450D01*
X2198878Y1689607D02*
G01*
X2193544Y1700021D01*
X2183129Y1710436D01*
X2172970Y1715515D01*
X2152142Y1715515D01*
X2141728Y1710436D01*
X2131313Y1700021D01*
X2125979Y1689607D01*
X2120900Y1673860D01*
X2120900Y1647952D01*
X2125979Y1632457D01*
X2131313Y1622044D01*
X2141728Y1611629D01*
X2152142Y1606550D01*
X2172970Y1606550D01*
X2183129Y1611629D01*
X2193544Y1622044D01*
X2198878Y1632457D01*
X2198878Y1647952D01*
X2172970Y1647952D02*
G01*
X2198878Y1647952D01*
X2120900Y1944115D02*
G01*
X2162555Y1835150D01*
X2203957Y1944115D02*
G01*
X2162555Y1835150D01*
X593852Y2156205D02*
G01*
X588518Y2166620D01*
X578357Y2177034D01*
X567944Y2182113D01*
X547115Y2182113D01*
X536702Y2177034D01*
X526287Y2166620D01*
X521207Y2156205D01*
X515873Y2140712D01*
X515873Y2114804D01*
X521207Y2099055D01*
X526287Y2088642D01*
X536702Y2078228D01*
X547115Y2073147D01*
X567944Y2073147D01*
X578357Y2078228D01*
X588518Y2088642D01*
X593852Y2099055D01*
X679957Y2182113D02*
G01*
X628142Y2109470D01*
X706120Y2109470D01*
X679957Y2182113D02*
G01*
X679957Y2073147D01*
X212852Y1953005D02*
G01*
X207518Y1963420D01*
X197357Y1973834D01*
X186944Y1978913D01*
X166115Y1978913D01*
X155702Y1973834D01*
X145287Y1963420D01*
X140207Y1953005D01*
X134873Y1937512D01*
X134873Y1911604D01*
X140207Y1895855D01*
X145287Y1885442D01*
X155702Y1875028D01*
X166115Y1869947D01*
X186944Y1869947D01*
X197357Y1875028D01*
X207518Y1885442D01*
X212852Y1895855D01*
X309371Y1978913D02*
G01*
X257555Y1978913D01*
X252221Y1932178D01*
X257555Y1937512D01*
X273050Y1942592D01*
X288797Y1942592D01*
X304292Y1937512D01*
X314705Y1927097D01*
X319786Y1911604D01*
X319786Y1901189D01*
X314705Y1885442D01*
X304292Y1875028D01*
X288797Y1869947D01*
X273050Y1869947D01*
X257555Y1875028D01*
X252221Y1880362D01*
X247142Y1890776D01*
X172593Y1611452D02*
G01*
X162179Y1606118D01*
X151764Y1595958D01*
X146685Y1585544D01*
X146685Y1564716D01*
X151764Y1554302D01*
X162179Y1543888D01*
X172593Y1538808D01*
X188087Y1533474D01*
X213995Y1533474D01*
X229743Y1538808D01*
X240156Y1543888D01*
X250570Y1554302D01*
X255651Y1564716D01*
X255651Y1585544D01*
X250570Y1595958D01*
X240156Y1606118D01*
X229743Y1611452D01*
X162179Y1707972D02*
G01*
X151764Y1702892D01*
X146685Y1687398D01*
X146685Y1676984D01*
X151764Y1661236D01*
X167259Y1650822D01*
X193420Y1645742D01*
X219329Y1645742D01*
X240156Y1650822D01*
X250570Y1661236D01*
X255651Y1676984D01*
X255651Y1682064D01*
X250570Y1697558D01*
X240156Y1707972D01*
X224409Y1713306D01*
X219329Y1713306D01*
X203835Y1707972D01*
X193420Y1697558D01*
X188087Y1682064D01*
X188087Y1676984D01*
X193420Y1661236D01*
X203835Y1650822D01*
X219329Y1645742D01*
X299593Y989152D02*
G01*
X289179Y983818D01*
X278764Y973658D01*
X273685Y963244D01*
X273685Y942416D01*
X278764Y932002D01*
X289179Y921588D01*
X299593Y916508D01*
X315087Y911174D01*
X340995Y911174D01*
X356743Y916508D01*
X367156Y921588D01*
X377570Y932002D01*
X382651Y942416D01*
X382651Y963244D01*
X377570Y973658D01*
X367156Y983818D01*
X356743Y989152D01*
X273685Y1049350D02*
G01*
X278764Y1033856D01*
X289179Y1028522D01*
X299593Y1028522D01*
X310006Y1033856D01*
X315087Y1044270D01*
X320420Y1065098D01*
X325501Y1080592D01*
X335914Y1091006D01*
X346329Y1096086D01*
X361822Y1096086D01*
X372237Y1091006D01*
X377570Y1085672D01*
X382651Y1070178D01*
X382651Y1049350D01*
X377570Y1033856D01*
X372237Y1028522D01*
X361822Y1023442D01*
X346329Y1023442D01*
X335914Y1028522D01*
X325501Y1038936D01*
X320420Y1054684D01*
X315087Y1075258D01*
X310006Y1085672D01*
X299593Y1091006D01*
X289179Y1091006D01*
X278764Y1085672D01*
X273685Y1070178D01*
X273685Y1049350D01*
X497839Y998626D02*
G01*
X487426Y993546D01*
X477265Y983132D01*
X471931Y972718D01*
X471931Y951890D01*
X477265Y941476D01*
X487426Y931062D01*
X497839Y925982D01*
X513587Y920648D01*
X539495Y920648D01*
X554989Y925982D01*
X565404Y931062D01*
X575818Y941476D01*
X581152Y951890D01*
X581152Y972718D01*
X575818Y983132D01*
X565404Y993546D01*
X554989Y998626D01*
X508254Y1100480D02*
G01*
X524002Y1095146D01*
X534415Y1084986D01*
X539495Y1069238D01*
X539495Y1064158D01*
X534415Y1048410D01*
X524002Y1037996D01*
X508254Y1032916D01*
X503173Y1032916D01*
X487426Y1037996D01*
X477265Y1048410D01*
X471931Y1064158D01*
X471931Y1069238D01*
X477265Y1084986D01*
X487426Y1095146D01*
X508254Y1100480D01*
X534415Y1100480D01*
X560323Y1095146D01*
X575818Y1084986D01*
X581152Y1069238D01*
X581152Y1058824D01*
X575818Y1043330D01*
X565404Y1037996D01*
X718693Y925652D02*
G01*
X708279Y920318D01*
X697864Y910158D01*
X692785Y899744D01*
X692785Y878916D01*
X697864Y868502D01*
X708279Y858088D01*
X718693Y853008D01*
X734187Y847674D01*
X760095Y847674D01*
X775843Y853008D01*
X786256Y858088D01*
X796670Y868502D01*
X801751Y878916D01*
X801751Y899744D01*
X796670Y910158D01*
X786256Y920318D01*
X775843Y925652D01*
X713359Y959942D02*
G01*
X708279Y970356D01*
X692785Y985850D01*
X801751Y985850D01*
X718693Y1025474D02*
G01*
X713359Y1025474D01*
X702945Y1030554D01*
X697864Y1035888D01*
X692785Y1046048D01*
X692785Y1066876D01*
X697864Y1077290D01*
X702945Y1082624D01*
X713359Y1087704D01*
X723772Y1087704D01*
X734187Y1082624D01*
X749935Y1072210D01*
X801751Y1020140D01*
X801751Y1093038D01*
X1767613Y2126724D02*
G01*
X1771385Y2137681D01*
X1771385Y2152408D01*
X1767613Y2163363D01*
X1752887Y2178090D01*
X1741931Y2181862D01*
X1727202Y2181862D01*
X1716247Y2178090D01*
X1701340Y2170727D01*
X1683021Y2152408D01*
X1675836Y2137681D01*
X1672064Y2126724D01*
X1672064Y2111997D01*
X1675655Y2100861D01*
X1690385Y2086135D01*
X1701520Y2082540D01*
X1716247Y2082540D01*
X1727202Y2086312D01*
X1795452Y2106068D02*
G01*
X1806587Y2102477D01*
X1828500Y2102477D01*
X1751271Y2025248D01*
X1860110Y2070867D02*
G01*
X1900521Y2030455D01*
X1848975Y2023092D01*
X1860110Y2011956D01*
X1863882Y2001001D01*
X1863702Y1993638D01*
X1856519Y1978908D01*
X1849155Y1971545D01*
X1834428Y1964362D01*
X1819699Y1964362D01*
X1804972Y1971545D01*
X1794017Y1982503D01*
X1786653Y1997410D01*
X1786653Y2004593D01*
X1790245Y2015728D01*
X1228852Y3931920D02*
G01*
X1228852Y3848607D01*
X1223771Y3833113D01*
X1218692Y3828034D01*
X1208278Y3822700D01*
X1197863Y3822700D01*
X1187450Y3828034D01*
X1182115Y3833113D01*
X1177036Y3848607D01*
X1177036Y3859021D01*
X1273555Y3931920D02*
G01*
X1330705Y3931920D01*
X1299718Y3890263D01*
X1315212Y3890263D01*
X1325626Y3885184D01*
X1330705Y3879850D01*
X1336039Y3864355D01*
X1336039Y3853942D01*
X1330705Y3838447D01*
X1320292Y3828034D01*
X1304797Y3822700D01*
X1289304Y3822700D01*
X1273555Y3828034D01*
X1268476Y3833113D01*
X1263142Y3843528D01*
X534415Y3098800D02*
G01*
X425450Y3098800D01*
X425450Y3098800D02*
G01*
X425450Y3036570D01*
X534415Y3002279D02*
G01*
X425450Y3002279D01*
X534415Y3002279D02*
G01*
X534415Y2934715D01*
X482600Y3002279D02*
G01*
X482600Y2960623D01*
X425450Y3002279D02*
G01*
X425450Y2934715D01*
X534415Y2900426D02*
G01*
X425450Y2900426D01*
X534415Y2900426D02*
G01*
X534415Y2863850D01*
X529336Y2848355D01*
X518921Y2837942D01*
X508507Y2832862D01*
X492760Y2827528D01*
X466852Y2827528D01*
X451357Y2832862D01*
X440944Y2837942D01*
X430529Y2848355D01*
X425450Y2863850D01*
X425450Y2900426D01*
X513587Y2793237D02*
G01*
X518921Y2782823D01*
X534415Y2767329D01*
X425450Y2767329D01*
X509015Y3416300D02*
G01*
X400050Y3416300D01*
X509015Y3416300D02*
G01*
X509015Y3369563D01*
X503936Y3354070D01*
X498602Y3348736D01*
X488187Y3343655D01*
X477773Y3343655D01*
X467360Y3348736D01*
X462279Y3354070D01*
X457200Y3369563D01*
X457200Y3416300D01*
X457200Y3379978D02*
G01*
X400050Y3343655D01*
X509015Y3246881D02*
G01*
X509015Y3298952D01*
X462279Y3304031D01*
X467360Y3298952D01*
X472694Y3283204D01*
X472694Y3267710D01*
X467360Y3252215D01*
X457200Y3241802D01*
X441452Y3236468D01*
X431037Y3236468D01*
X415544Y3241802D01*
X405129Y3252215D01*
X400050Y3267710D01*
X400050Y3283204D01*
X405129Y3298952D01*
X410210Y3304031D01*
X420623Y3309365D01*
X411276Y2508707D02*
G01*
X405942Y2519121D01*
X395528Y2529535D01*
X385368Y2534615D01*
X364540Y2534615D01*
X354126Y2529535D01*
X343712Y2519121D01*
X338378Y2508707D01*
X333298Y2492959D01*
X333298Y2467051D01*
X338378Y2451557D01*
X343712Y2441143D01*
X354126Y2430729D01*
X364540Y2425649D01*
X385368Y2425649D01*
X395528Y2430729D01*
X405942Y2441143D01*
X411276Y2451557D01*
X445566Y2513787D02*
G01*
X455980Y2519121D01*
X471474Y2534615D01*
X471474Y2425649D01*
X505764Y2513787D02*
G01*
X516178Y2519121D01*
X531672Y2534615D01*
X531672Y2425649D01*
X959383Y1381099D02*
G01*
X1068349Y1381099D01*
X959383Y1381099D02*
G01*
X959383Y1417421D01*
X964463Y1433169D01*
X974877Y1443329D01*
X985291Y1448663D01*
X1001039Y1453743D01*
X1026947Y1453743D01*
X1042441Y1448663D01*
X1052855Y1443329D01*
X1063269Y1433169D01*
X1068349Y1417421D01*
X1068349Y1381099D01*
X980211Y1488033D02*
G01*
X974877Y1498447D01*
X959383Y1514195D01*
X1068349Y1514195D01*
X1175283Y1368399D02*
G01*
X1284249Y1368399D01*
X1175283Y1368399D02*
G01*
X1175283Y1404721D01*
X1180363Y1420469D01*
X1190777Y1430629D01*
X1201191Y1435963D01*
X1216939Y1441043D01*
X1242847Y1441043D01*
X1258341Y1435963D01*
X1268755Y1430629D01*
X1279169Y1420469D01*
X1284249Y1404721D01*
X1284249Y1368399D01*
X1201191Y1480667D02*
G01*
X1196111Y1480667D01*
X1185697Y1485747D01*
X1180363Y1491081D01*
X1175283Y1501495D01*
X1175283Y1522069D01*
X1180363Y1532483D01*
X1185697Y1537817D01*
X1196111Y1542897D01*
X1206525Y1542897D01*
X1216939Y1537817D01*
X1232433Y1527403D01*
X1284249Y1475333D01*
X1284249Y1548231D01*
X1386382Y1365199D02*
G01*
X1495348Y1365199D01*
X1386382Y1365199D02*
G01*
X1386382Y1401521D01*
X1391462Y1417269D01*
X1401876Y1427429D01*
X1412290Y1432763D01*
X1428038Y1437843D01*
X1453946Y1437843D01*
X1469440Y1432763D01*
X1479854Y1427429D01*
X1490268Y1417269D01*
X1495348Y1401521D01*
X1495348Y1365199D01*
X1386382Y1482547D02*
G01*
X1386382Y1539697D01*
X1428038Y1508709D01*
X1428038Y1524203D01*
X1433118Y1534617D01*
X1438198Y1539697D01*
X1453946Y1545031D01*
X1464360Y1545031D01*
X1479854Y1539697D01*
X1490268Y1529283D01*
X1495348Y1513789D01*
X1495348Y1498295D01*
X1490268Y1482547D01*
X1485188Y1477467D01*
X1474774Y1472133D01*
X589686Y477748D02*
G01*
X589686Y368782D01*
X589686Y477748D02*
G01*
X636422Y477748D01*
X651916Y472668D01*
X657250Y467334D01*
X662330Y456920D01*
X662330Y441426D01*
X657250Y431012D01*
X651916Y425932D01*
X636422Y420598D01*
X589686Y420598D01*
X696620Y456920D02*
G01*
X707034Y462254D01*
X722782Y477748D01*
X722782Y368782D01*
X1176985Y477748D02*
G01*
X1176985Y368782D01*
X1176985Y477748D02*
G01*
X1223721Y477748D01*
X1239215Y472668D01*
X1244549Y467334D01*
X1249629Y456920D01*
X1249629Y441426D01*
X1244549Y431012D01*
X1239215Y425932D01*
X1223721Y420598D01*
X1176985Y420598D01*
X1289253Y451840D02*
G01*
X1289253Y456920D01*
X1294333Y467334D01*
X1299667Y472668D01*
X1310081Y477748D01*
X1330655Y477748D01*
X1341069Y472668D01*
X1346403Y467334D01*
X1351483Y456920D01*
X1351483Y446506D01*
X1346403Y436092D01*
X1335989Y420598D01*
X1283919Y368782D01*
X1356817Y368782D01*
X1776984Y477748D02*
G01*
X1776984Y368782D01*
X1776984Y477748D02*
G01*
X1823720Y477748D01*
X1839213Y472668D01*
X1844547Y467334D01*
X1849628Y456920D01*
X1849628Y441426D01*
X1844547Y431012D01*
X1839213Y425932D01*
X1823720Y420598D01*
X1776984Y420598D01*
X1894331Y477748D02*
G01*
X1951481Y477748D01*
X1920494Y436092D01*
X1935987Y436092D01*
X1946402Y431012D01*
X1951481Y425932D01*
X1956815Y410184D01*
X1956815Y399770D01*
X1951481Y384276D01*
X1941068Y373862D01*
X1925573Y368782D01*
X1910079Y368782D01*
X1894331Y373862D01*
X1889252Y378942D01*
X1883918Y389356D01*
X341340Y742713D02*
G01*
X330926Y737633D01*
X320512Y727219D01*
X315178Y716805D01*
X310098Y701057D01*
X310098Y675149D01*
X315178Y659655D01*
X320512Y649241D01*
X330926Y638827D01*
X341340Y633747D01*
X362168Y633747D01*
X372328Y638827D01*
X382742Y649241D01*
X388076Y659655D01*
X393156Y675149D01*
X393156Y701057D01*
X388076Y716805D01*
X382742Y727219D01*
X372328Y737633D01*
X362168Y742713D01*
X341340Y742713D01*
X356834Y654321D02*
G01*
X388076Y623333D01*
X427446Y721885D02*
G01*
X437860Y727219D01*
X453608Y742713D01*
X453608Y633747D01*
X673839Y739513D02*
G01*
X663425Y734433D01*
X653011Y724019D01*
X647677Y713605D01*
X642597Y697857D01*
X642597Y671949D01*
X647677Y656455D01*
X653011Y646041D01*
X663425Y635627D01*
X673839Y630547D01*
X694667Y630547D01*
X704827Y635627D01*
X715241Y646041D01*
X720575Y656455D01*
X725655Y671949D01*
X725655Y697857D01*
X720575Y713605D01*
X715241Y724019D01*
X704827Y734433D01*
X694667Y739513D01*
X673839Y739513D01*
X689333Y651121D02*
G01*
X720575Y620133D01*
X765279Y713605D02*
G01*
X765279Y718685D01*
X770359Y729099D01*
X775693Y734433D01*
X786107Y739513D01*
X806681Y739513D01*
X817095Y734433D01*
X822429Y729099D01*
X827509Y718685D01*
X827509Y708271D01*
X822429Y697857D01*
X812015Y682363D01*
X759945Y630547D01*
X832843Y630547D01*
X1020739Y745914D02*
G01*
X1010325Y740834D01*
X999911Y730420D01*
X994577Y720006D01*
X989497Y704258D01*
X989497Y678350D01*
X994577Y662856D01*
X999911Y652442D01*
X1010325Y642028D01*
X1020739Y636948D01*
X1041567Y636948D01*
X1051727Y642028D01*
X1062141Y652442D01*
X1067475Y662856D01*
X1072555Y678350D01*
X1072555Y704258D01*
X1067475Y720006D01*
X1062141Y730420D01*
X1051727Y740834D01*
X1041567Y745914D01*
X1020739Y745914D01*
X1036233Y657522D02*
G01*
X1067475Y626534D01*
X1117259Y745914D02*
G01*
X1174409Y745914D01*
X1143167Y704258D01*
X1158915Y704258D01*
X1169329Y699178D01*
X1174409Y694098D01*
X1179743Y678350D01*
X1179743Y667936D01*
X1174409Y652442D01*
X1163995Y642028D01*
X1148501Y636948D01*
X1133007Y636948D01*
X1117259Y642028D01*
X1112179Y647108D01*
X1106845Y657522D01*
X1365940Y742713D02*
G01*
X1355526Y737633D01*
X1345112Y727219D01*
X1339778Y716805D01*
X1334698Y701057D01*
X1334698Y675149D01*
X1339778Y659655D01*
X1345112Y649241D01*
X1355526Y638827D01*
X1365940Y633747D01*
X1386768Y633747D01*
X1396928Y638827D01*
X1407342Y649241D01*
X1412676Y659655D01*
X1417756Y675149D01*
X1417756Y701057D01*
X1412676Y716805D01*
X1407342Y727219D01*
X1396928Y737633D01*
X1386768Y742713D01*
X1365940Y742713D01*
X1381434Y654321D02*
G01*
X1412676Y623333D01*
X1504116Y742713D02*
G01*
X1452046Y670069D01*
X1530024Y670069D01*
X1504116Y742713D02*
G01*
X1504116Y633747D01*
X1728640Y742713D02*
G01*
X1718226Y737633D01*
X1707812Y727219D01*
X1702478Y716805D01*
X1697398Y701057D01*
X1697398Y675149D01*
X1702478Y659655D01*
X1707812Y649241D01*
X1718226Y638827D01*
X1728640Y633747D01*
X1749468Y633747D01*
X1759628Y638827D01*
X1770042Y649241D01*
X1775376Y659655D01*
X1780456Y675149D01*
X1780456Y701057D01*
X1775376Y716805D01*
X1770042Y727219D01*
X1759628Y737633D01*
X1749468Y742713D01*
X1728640Y742713D01*
X1744134Y654321D02*
G01*
X1775376Y623333D01*
X1877230Y742713D02*
G01*
X1825160Y742713D01*
X1820080Y695977D01*
X1825160Y701057D01*
X1840908Y706391D01*
X1856402Y706391D01*
X1871896Y701057D01*
X1882310Y690897D01*
X1887644Y675149D01*
X1887644Y664735D01*
X1882310Y649241D01*
X1871896Y638827D01*
X1856402Y633747D01*
X1840908Y633747D01*
X1825160Y638827D01*
X1820080Y643907D01*
X1814746Y654321D01*
X2073838Y739513D02*
G01*
X2063424Y734433D01*
X2053010Y724019D01*
X2047676Y713605D01*
X2042596Y697857D01*
X2042596Y671949D01*
X2047676Y656455D01*
X2053010Y646041D01*
X2063424Y635627D01*
X2073838Y630547D01*
X2094666Y630547D01*
X2104826Y635627D01*
X2115240Y646041D01*
X2120574Y656455D01*
X2125654Y671949D01*
X2125654Y697857D01*
X2120574Y713605D01*
X2115240Y724019D01*
X2104826Y734433D01*
X2094666Y739513D01*
X2073838Y739513D01*
X2089332Y651121D02*
G01*
X2120574Y620133D01*
X2222428Y724019D02*
G01*
X2217094Y734433D01*
X2201600Y739513D01*
X2191186Y739513D01*
X2175692Y734433D01*
X2165278Y718685D01*
X2159944Y692777D01*
X2159944Y666869D01*
X2165278Y646041D01*
X2175692Y635627D01*
X2191186Y630547D01*
X2196266Y630547D01*
X2212014Y635627D01*
X2222428Y646041D01*
X2227508Y661535D01*
X2227508Y666869D01*
X2222428Y682363D01*
X2212014Y692777D01*
X2196266Y697857D01*
X2191186Y697857D01*
X2175692Y692777D01*
X2165278Y682363D01*
X2159944Y666869D01*
X783582Y1928182D02*
G01*
X706531Y1851131D01*
X783582Y1928182D02*
G01*
X816630Y1895134D01*
X823993Y1880588D01*
X823993Y1873044D01*
X820221Y1862086D01*
X812858Y1854723D01*
X801900Y1850951D01*
X794537Y1851131D01*
X779990Y1858495D01*
X746942Y1891543D01*
X772627Y1865858D02*
G01*
X757897Y1799765D01*
X844468Y1837839D02*
G01*
X855604Y1834248D01*
X877694Y1834070D01*
X800643Y1757019D01*
X573074Y1693303D02*
G01*
X573074Y1615325D01*
X578154Y1599831D01*
X588568Y1589417D01*
X604316Y1584337D01*
X614730Y1584337D01*
X630224Y1589417D01*
X640638Y1599831D01*
X645718Y1615325D01*
X645718Y1693303D01*
X690422Y1693303D02*
G01*
X747572Y1693303D01*
X716584Y1651647D01*
X732078Y1651647D01*
X742492Y1646567D01*
X747572Y1641487D01*
X752906Y1625739D01*
X752906Y1615325D01*
X747572Y1599831D01*
X737158Y1589417D01*
X721664Y1584337D01*
X706170Y1584337D01*
X690422Y1589417D01*
X685342Y1594497D01*
X680008Y1604911D01*
X918766Y2328044D02*
G01*
X973904Y2272906D01*
X988451Y2265542D01*
X1003180Y2265542D01*
X1017907Y2273086D01*
X1025270Y2280450D01*
X1032634Y2294999D01*
X1032634Y2309726D01*
X1025270Y2324272D01*
X970132Y2379413D01*
X1009106Y2388930D02*
G01*
X1012697Y2400066D01*
X1012878Y2422159D01*
X1089929Y2345108D01*
X1852559Y1350180D02*
G01*
X1856150Y1361315D01*
X1856150Y1376045D01*
X1852559Y1386819D01*
X1837829Y1401549D01*
X1826874Y1405318D01*
X1812147Y1405318D01*
X1801012Y1401726D01*
X1786282Y1394183D01*
X1767964Y1375864D01*
X1760601Y1361315D01*
X1757009Y1350180D01*
X1757009Y1335453D01*
X1760781Y1324498D01*
X1775508Y1309768D01*
X1786282Y1306177D01*
X1801012Y1306177D01*
X1812147Y1309768D01*
X1880397Y1329527D02*
G01*
X1891532Y1325933D01*
X1913445Y1325933D01*
X1836394Y1248882D01*
X1974509Y1264869D02*
G01*
X1886323Y1250320D01*
X1941461Y1195181D01*
X1974509Y1264869D02*
G01*
X1897458Y1187818D01*
X1979559Y1477180D02*
G01*
X1983150Y1488315D01*
X1983150Y1503045D01*
X1979559Y1513819D01*
X1964829Y1528549D01*
X1953874Y1532318D01*
X1939147Y1532318D01*
X1928012Y1528726D01*
X1913282Y1521183D01*
X1894964Y1502864D01*
X1887601Y1488315D01*
X1884009Y1477180D01*
X1884009Y1462453D01*
X1887781Y1451498D01*
X1902508Y1436768D01*
X1913282Y1433177D01*
X1928012Y1433177D01*
X1939147Y1436768D01*
X2007397Y1456527D02*
G01*
X2018532Y1452933D01*
X2040445Y1452933D01*
X1963394Y1375882D01*
X2108873Y1384505D02*
G01*
X2072055Y1421323D01*
X2035416Y1391869D01*
X2042599Y1391869D01*
X2057326Y1384683D01*
X2068461Y1373548D01*
X2075647Y1358821D01*
X2075827Y1344272D01*
X2068283Y1329545D01*
X2060920Y1322181D01*
X2046371Y1314818D01*
X2031644Y1314818D01*
X2017095Y1322181D01*
X2005959Y1333317D01*
X1998596Y1347866D01*
X1998596Y1355049D01*
X2002188Y1366184D01*
G36*
X915771Y1305102D02*
G01*
X915771Y1274622D01*
X947775Y1274622D01*
X947775Y1305102D01*
G37*
G36*
X1084224Y1305102D02*
G01*
X1084224Y1274622D01*
X1116228Y1274622D01*
X1116228Y1305102D01*
G37*
G36*
X1131671Y1305102D02*
G01*
X1131671Y1274622D01*
X1163675Y1274622D01*
X1163675Y1305102D01*
G37*
G36*
X1300124Y1305102D02*
G01*
X1300124Y1274622D01*
X1332128Y1274622D01*
X1332128Y1305102D01*
G37*
G36*
X1347571Y1305102D02*
G01*
X1347571Y1274622D01*
X1379575Y1274622D01*
X1379575Y1305102D01*
G37*
G36*
X1516024Y1305102D02*
G01*
X1516024Y1274622D01*
X1548028Y1274622D01*
X1548028Y1305102D01*
G37*
D10*
X840077Y2108898D02*
G01*
X760074Y2108898D01*
X871062Y2219873D02*
G01*
X871062Y2139876D01*
X729096Y2219873D02*
G01*
X729096Y2139876D01*
X871644Y2277463D02*
G01*
X871644Y2357462D01*
X840661Y2388445D02*
G01*
X760663Y2388445D01*
X729683Y2277463D02*
G01*
X729683Y2357462D01*
X634301Y1970377D02*
G01*
X634301Y1890374D01*
X523326Y2001362D02*
G01*
X603323Y2001362D01*
X523326Y1859396D02*
G01*
X603323Y1859396D01*
X465736Y2001944D02*
G01*
X385737Y2001944D01*
X354754Y1970961D02*
G01*
X354754Y1890963D01*
X465736Y1859983D02*
G01*
X385737Y1859983D01*
X315622Y1764601D02*
G01*
X395625Y1764601D01*
X284637Y1653626D02*
G01*
X284637Y1733623D01*
X426603Y1653626D02*
G01*
X426603Y1733623D01*
X284055Y1596036D02*
G01*
X284055Y1516037D01*
X315038Y1485054D02*
G01*
X395036Y1485054D01*
X426016Y1596036D02*
G01*
X426016Y1516037D01*
X290222Y1409001D02*
G01*
X370225Y1409001D01*
X259237Y1298026D02*
G01*
X259237Y1378023D01*
X401203Y1298026D02*
G01*
X401203Y1378023D01*
X258655Y1240436D02*
G01*
X258655Y1160437D01*
X289638Y1129454D02*
G01*
X369636Y1129454D01*
X400616Y1240436D02*
G01*
X400616Y1160437D01*
X709322Y1409001D02*
G01*
X789325Y1409001D01*
X678337Y1298026D02*
G01*
X678337Y1378023D01*
X820303Y1298026D02*
G01*
X820303Y1378023D01*
X677755Y1240436D02*
G01*
X677755Y1160437D01*
X708738Y1129454D02*
G01*
X788736Y1129454D01*
X819716Y1240436D02*
G01*
X819716Y1160437D01*
X573377Y1130998D02*
G01*
X493374Y1130998D01*
X604362Y1241973D02*
G01*
X604362Y1161976D01*
X462396Y1241973D02*
G01*
X462396Y1161976D01*
X604944Y1299563D02*
G01*
X604944Y1379562D01*
X573961Y1410545D02*
G01*
X493963Y1410545D01*
X462983Y1299563D02*
G01*
X462983Y1379562D01*
X1802958Y1885779D02*
G01*
X1746387Y1829208D01*
X1746394Y1986160D02*
G01*
X1802963Y1929594D01*
X1646011Y1885774D02*
G01*
X1702577Y1829208D01*
X1706084Y2027293D02*
G01*
X1649516Y2083861D01*
X1605699Y2083861D02*
G01*
X1549133Y2027295D01*
X1605704Y1926912D02*
G01*
X1549135Y1983480D01*
X1410474Y2706751D02*
G01*
X1410474Y2782951D01*
X1372374Y2782951D01*
X1372374Y2986151D01*
X1131074Y2986151D01*
X1131074Y2782951D01*
X1105674Y2782951D01*
X1105674Y2706751D01*
X915174Y2719451D02*
G01*
X915174Y2782951D01*
X877074Y2782951D01*
X877074Y2986151D01*
X750074Y2986151D01*
X750087Y3083052D01*
X1600974Y2719451D02*
G01*
X1600974Y2782951D01*
X1639074Y2782951D01*
X1639074Y2973451D01*
X1766074Y2973451D01*
X1766087Y3083052D01*
X750087Y3482743D02*
G01*
X750087Y3083052D01*
X750087Y3982753D02*
G01*
X750087Y3692761D01*
X1766087Y3482743D02*
G01*
X1766087Y3083052D01*
X1766087Y3987251D02*
G01*
X1766087Y3692761D01*
X1766087Y3987251D02*
G01*
X750087Y3982753D01*
X593087Y3443683D02*
G01*
X593087Y3742761D01*
X1923087Y3446223D02*
G01*
X1923087Y3735783D01*
X750087Y3742761D02*
G01*
X593087Y3742761D01*
X1923087Y3735783D02*
G01*
X1766087Y3735783D01*
X750087Y3443683D02*
G01*
X593087Y3443683D01*
X1923087Y3446223D02*
G01*
X1766087Y3446223D01*
X382313Y3106376D02*
G01*
X209593Y3106376D01*
X209593Y3106376D02*
G01*
X209593Y2959056D01*
X382313Y3106376D02*
G01*
X382313Y2959056D01*
X209593Y2900636D02*
G01*
X209593Y2783796D01*
X382313Y2898096D02*
G01*
X382313Y2783796D01*
X382313Y2783796D02*
G01*
X346753Y2748236D01*
X245153Y2748236D01*
X209593Y2783796D01*
D42*
X336593Y2937466D02*
G01*
X257853Y2937466D01*
X296748Y2937466D02*
G01*
X296748Y2919930D01*
D43*
X362013Y3378868D02*
G01*
X362013Y3474755D01*
X229892Y3474755D01*
X229892Y3378868D01*
X362013Y3293625D02*
G01*
X362013Y3197738D01*
X229892Y3197738D01*
X229892Y3293625D01*
X276080Y2221039D02*
G01*
X417080Y2221039D01*
X417080Y2401760D02*
G01*
X276080Y2401760D01*
X260840Y2386520D02*
G01*
X260840Y2236279D01*
X638319Y2221039D02*
G01*
X497319Y2221039D01*
X497319Y2401760D02*
G01*
X638319Y2401760D01*
X653559Y2386520D02*
G01*
X653559Y2236279D01*
X1108623Y1297477D02*
G01*
X1108623Y1572722D01*
X923376Y1297477D02*
G01*
X923376Y1572722D01*
X923376Y1572722D02*
G01*
X942680Y1572722D01*
X1108623Y1572722D02*
G01*
X1089319Y1572722D01*
X928377Y1343421D02*
G01*
X1103622Y1343421D01*
X1324523Y1297477D02*
G01*
X1324523Y1572722D01*
X1139276Y1297477D02*
G01*
X1139276Y1572722D01*
X1139276Y1572722D02*
G01*
X1158580Y1572722D01*
X1324523Y1572722D02*
G01*
X1305219Y1572722D01*
X1144277Y1343421D02*
G01*
X1319522Y1343421D01*
X1540423Y1297477D02*
G01*
X1540423Y1572722D01*
X1355176Y1297477D02*
G01*
X1355176Y1572722D01*
X1355176Y1572722D02*
G01*
X1374480Y1572722D01*
X1540423Y1572722D02*
G01*
X1521119Y1572722D01*
X1360177Y1343421D02*
G01*
X1535422Y1343421D01*
X540621Y601929D02*
G01*
X540621Y773668D01*
X437459Y773668D01*
X235379Y601929D02*
G01*
X235379Y773668D01*
X338541Y773668D01*
X433539Y601929D02*
G01*
X342460Y601929D01*
X585378Y773668D02*
G01*
X585378Y601929D01*
X688540Y601929D01*
X890620Y773668D02*
G01*
X890620Y601929D01*
X787458Y601929D01*
X692459Y773668D02*
G01*
X783539Y773668D01*
X1240619Y601929D02*
G01*
X1240619Y773668D01*
X1137457Y773668D01*
X935377Y601929D02*
G01*
X935377Y773668D01*
X1038539Y773668D01*
X1133538Y601929D02*
G01*
X1042459Y601929D01*
X1285379Y773668D02*
G01*
X1285379Y601929D01*
X1388541Y601929D01*
X1590621Y773668D02*
G01*
X1590621Y601929D01*
X1487459Y601929D01*
X1392461Y773668D02*
G01*
X1483540Y773668D01*
X1940620Y601929D02*
G01*
X1940620Y773668D01*
X1837458Y773668D01*
X1635379Y601929D02*
G01*
X1635379Y773668D01*
X1738541Y773668D01*
X1833539Y601929D02*
G01*
X1742460Y601929D01*
X1985378Y773668D02*
G01*
X1985378Y601929D01*
X2088540Y601929D01*
X2290620Y773668D02*
G01*
X2290620Y601929D01*
X2187458Y601929D01*
X2092459Y773668D02*
G01*
X2183538Y773668D01*
X897826Y1866249D02*
G01*
X965629Y1798446D01*
X1059053Y1891870D01*
X991250Y1959673D01*
X837549Y1926526D02*
G01*
X769746Y1994329D01*
X863170Y2087753D01*
X930973Y2019950D01*
D10*
X505393Y1728304D02*
G01*
X505393Y1548302D01*
X620392Y1728304D02*
G01*
X700394Y1728304D01*
X815395Y1728304D02*
G01*
X815395Y1548302D01*
D43*
X1204033Y2373952D02*
G01*
X1244600Y2414518D01*
X1285166Y2373952D01*
X1497652Y2080333D02*
G01*
X1538218Y2120900D01*
X1497652Y2161466D01*
X991547Y2161466D02*
G01*
X950981Y2120900D01*
X991547Y2080333D01*
X1285166Y1867847D02*
G01*
X1244600Y1827281D01*
X1204033Y1867847D01*
X1916234Y1118275D02*
G01*
X2015937Y1018573D01*
X2143726Y1146362D02*
G01*
X2044024Y1246065D01*
X2022469Y1246065D02*
G01*
X1916234Y1139830D01*
X2172375Y862134D02*
G01*
X2072673Y961837D01*
X2200462Y1089626D02*
G01*
X2300165Y989924D01*
X2300165Y968369D02*
G01*
X2193930Y862134D01*
X2055934Y1257975D02*
G01*
X2155637Y1158273D01*
X2283426Y1286062D02*
G01*
X2183724Y1385765D01*
X2162169Y1385765D02*
G01*
X2055934Y1279530D01*
X2312075Y1001834D02*
G01*
X2212373Y1101537D01*
X2340162Y1229326D02*
G01*
X2439865Y1129624D01*
X2439865Y1108069D02*
G01*
X2333630Y1001834D01*
D10*
G75*
G01*
X840661Y2388451D02*
G02*
X871644Y2357468I0J-30983D01*
G75*
G01*
X729678Y2357468D02*
G02*
X760664Y2388451I30983J0D01*
G75*
G01*
X871063Y2139881D02*
G02*
X840077Y2108899I-30983J0D01*
G75*
G01*
X760080Y2108899D02*
G02*
X729097Y2139881I0J30982D01*
G75*
G01*
X354749Y1970961D02*
G02*
X385732Y2001944I30983J0D01*
G75*
G01*
X385732Y1859978D02*
G02*
X354749Y1890964I0J30983D01*
G75*
G01*
X603319Y2001363D02*
G02*
X634301Y1970377I0J-30983D01*
G75*
G01*
X634301Y1890380D02*
G02*
X603319Y1859397I-30982J0D01*
G75*
G01*
X315039Y1485049D02*
G02*
X284056Y1516032I0J30983D01*
G75*
G01*
X426022Y1516032D02*
G02*
X395036Y1485049I-30983J0D01*
G75*
G01*
X284637Y1733619D02*
G02*
X315623Y1764601I30983J0D01*
G75*
G01*
X395620Y1764601D02*
G02*
X426603Y1733619I0J-30982D01*
G75*
G01*
X289639Y1129449D02*
G02*
X258656Y1160432I0J30983D01*
G75*
G01*
X400622Y1160432D02*
G02*
X369636Y1129449I-30983J0D01*
G75*
G01*
X259237Y1378019D02*
G02*
X290223Y1409001I30983J0D01*
G75*
G01*
X370220Y1409001D02*
G02*
X401203Y1378019I0J-30982D01*
G75*
G01*
X708739Y1129449D02*
G02*
X677756Y1160432I0J30983D01*
G75*
G01*
X819722Y1160432D02*
G02*
X788736Y1129449I-30983J0D01*
G75*
G01*
X678337Y1378019D02*
G02*
X709323Y1409001I30983J0D01*
G75*
G01*
X789320Y1409001D02*
G02*
X820303Y1378019I0J-30982D01*
G75*
G01*
X573961Y1410551D02*
G02*
X604944Y1379568I0J-30983D01*
G75*
G01*
X462978Y1379568D02*
G02*
X493964Y1410551I30983J0D01*
G75*
G01*
X604363Y1161981D02*
G02*
X573377Y1130999I-30983J0D01*
G75*
G01*
X493380Y1130999D02*
G02*
X462397Y1161981I0J30982D01*
G75*
G01*
X1605697Y2083867D02*
G02*
X1649514Y2083867I21908J-21908D01*
G75*
G01*
X1549128Y1983481D02*
G02*
X1549131Y2027298I21909J21907D01*
G75*
G01*
X1802958Y1929597D02*
G02*
X1802958Y1885780I-21908J-21908D01*
G75*
G01*
X1746390Y1829211D02*
G02*
X1702575Y1829211I-21908J21909D01*
D43*
G75*
G01*
X276080Y2401760D02*
G03*
X260840Y2386520I0J-15240D01*
G75*
G01*
X260840Y2236280D02*
G03*
X276080Y2221040I15240J0D01*
G75*
G01*
X638320Y2401760D02*
G02*
X653560Y2386520I0J-15240D01*
G75*
G01*
X653560Y2236280D02*
G02*
X638320Y2221040I-15240J0D01*
G75*
G01*
X2044024Y1246066D02*
G03*
X2022470Y1246066I-10777J-10776D01*
G75*
G01*
X1916234Y1139830D02*
G03*
X1916234Y1118276I10776J-10777D01*
G75*
G01*
X2300166Y989924D02*
G02*
X2300166Y968370I-10776J-10777D01*
G75*
G01*
X2193930Y862134D02*
G02*
X2172376Y862134I-10777J10776D01*
G75*
G01*
X2183724Y1385766D02*
G03*
X2162170Y1385766I-10777J-10776D01*
G75*
G01*
X2055934Y1279530D02*
G03*
X2055934Y1257976I10776J-10777D01*
G75*
G01*
X2439866Y1129624D02*
G02*
X2439866Y1108070I-10776J-10777D01*
G75*
G01*
X2333630Y1001834D02*
G02*
X2312076Y1001834I-10777J10776D01*
D10*
G75*
G01
X508000Y1485900D02*
G03X508000Y1485900I-12700J0D01*
D44*
G75*
G01
X987654Y2026133D02*
G03X987654Y2026133I-7493J0D01*
M02*
