G04 Layer: TopLayer*
G04 EasyEDA v6.4.25, 2021-10-30T01:07:18+08:00*
G04 7f02064591534d1f9d428ba05e81f3eb,34bb6763e28e4bbdb854ef51fa08daf4,10*
G04 Gerber Generator version 0.2*
G04 Scale: 100 percent, Rotated: No, Reflected: No *
G04 Dimensions in millimeters *
G04 leading zeros omitted , absolute positions ,4 integer and 5 decimal *
%FSLAX45Y45*%
%MOMM*%

%ADD10C,0.2540*%
%ADD11C,0.2000*%
%ADD12C,0.3000*%
%ADD13C,0.4000*%
%ADD14C,0.6000*%
%ADD15C,0.5000*%
%ADD16C,0.6096*%
%ADD17C,1.5000*%
%ADD18R,0.9000X0.8000*%
%ADD20R,0.8000X0.8000*%
%ADD21R,0.8640X0.8065*%
%ADD23R,1.2000X1.4000*%
%ADD25R,0.5320X1.0375*%
%ADD27R,0.6000X1.0000*%
%ADD31C,2.5000*%
%ADD32C,1.8000*%
%ADD33C,3.5000*%

%LPD*%
G36*
X927150Y2032254D02*
G01*
X923290Y2033066D01*
X919987Y2035251D01*
X881887Y2073351D01*
X876909Y2077313D01*
X871728Y2079802D01*
X866089Y2081123D01*
X860298Y2081123D01*
X854659Y2079802D01*
X850595Y2077872D01*
X846632Y2076856D01*
X842619Y2077516D01*
X839165Y2079650D01*
X836828Y2083003D01*
X836015Y2087016D01*
X836015Y2101951D01*
X836676Y2105609D01*
X838606Y2108708D01*
X841502Y2110994D01*
X845007Y2112060D01*
X850849Y2112721D01*
X856335Y2114600D01*
X861212Y2117699D01*
X865327Y2121814D01*
X868375Y2126691D01*
X870305Y2132177D01*
X871016Y2138476D01*
X871016Y2217318D01*
X870305Y2223668D01*
X868375Y2229104D01*
X865327Y2234031D01*
X861212Y2238095D01*
X859332Y2239314D01*
X856386Y2242108D01*
X854760Y2245868D01*
X854760Y2249932D01*
X856386Y2253691D01*
X859332Y2256485D01*
X861212Y2257704D01*
X865327Y2261768D01*
X868375Y2266696D01*
X870305Y2272131D01*
X871016Y2278481D01*
X871016Y2291537D01*
X828954Y2291537D01*
X828954Y2253996D01*
X828192Y2250084D01*
X825957Y2246782D01*
X822655Y2244598D01*
X818794Y2243836D01*
X781405Y2243836D01*
X777544Y2244598D01*
X774242Y2246782D01*
X772007Y2250084D01*
X771245Y2253996D01*
X771245Y2291537D01*
X719175Y2291537D01*
X715264Y2292299D01*
X711962Y2294534D01*
X709777Y2297836D01*
X709015Y2301697D01*
X709015Y2334056D01*
X709777Y2337968D01*
X711962Y2341270D01*
X715264Y2343454D01*
X719175Y2344216D01*
X771245Y2344216D01*
X771245Y2383790D01*
X755650Y2383790D01*
X749350Y2383078D01*
X745236Y2381656D01*
X741426Y2381097D01*
X737616Y2382012D01*
X734466Y2384298D01*
X732434Y2387600D01*
X731723Y2391410D01*
X732536Y2395220D01*
X734720Y2398420D01*
X766216Y2429967D01*
X769924Y2432304D01*
X784504Y2433726D01*
X794004Y2436266D01*
X801776Y2439771D01*
X805180Y2440635D01*
X808634Y2440330D01*
X811834Y2438857D01*
X814273Y2436368D01*
X820419Y2427579D01*
X827379Y2420620D01*
X835406Y2414981D01*
X844346Y2410866D01*
X853795Y2408326D01*
X863600Y2407462D01*
X873404Y2408326D01*
X882853Y2410866D01*
X891794Y2414981D01*
X896924Y2418588D01*
X900125Y2420112D01*
X903630Y2420416D01*
X907034Y2419502D01*
X909929Y2417470D01*
X989837Y2337612D01*
X992022Y2334310D01*
X992784Y2330399D01*
X992784Y2280767D01*
X993648Y2272792D01*
X995934Y2265629D01*
X999744Y2259025D01*
X1003604Y2254554D01*
X1007008Y2251100D01*
X1009243Y2247798D01*
X1010005Y2243937D01*
X1009243Y2240026D01*
X1007008Y2236774D01*
X1003808Y2233523D01*
X998372Y2226818D01*
X996442Y2224938D01*
X990549Y2220264D01*
X975512Y2205228D01*
X971550Y2200249D01*
X969060Y2195068D01*
X967740Y2189429D01*
X967740Y2183638D01*
X969060Y2177999D01*
X971550Y2172766D01*
X975512Y2167788D01*
X1015237Y2128062D01*
X1017422Y2124811D01*
X1018184Y2120900D01*
X1017422Y2116988D01*
X1014882Y2113381D01*
X1035964Y2092248D01*
X1038199Y2088946D01*
X1038961Y2085086D01*
X1038199Y2081174D01*
X1035964Y2077872D01*
X1017828Y2059787D01*
X1014577Y2057552D01*
X1010666Y2056790D01*
X1006754Y2057552D01*
X1003503Y2059787D01*
X982370Y2080869D01*
X975512Y2074011D01*
X971550Y2069033D01*
X969060Y2063800D01*
X967740Y2058162D01*
X967740Y2052370D01*
X969975Y2042871D01*
X969365Y2038857D01*
X967181Y2035403D01*
X963828Y2033117D01*
X959815Y2032254D01*
G37*

%LPC*%
G36*
X828954Y2344216D02*
G01*
X871016Y2344216D01*
X871016Y2357323D01*
X870305Y2363622D01*
X868375Y2369108D01*
X865327Y2373985D01*
X861212Y2378100D01*
X856335Y2381199D01*
X850849Y2383078D01*
X844550Y2383790D01*
X828954Y2383790D01*
G37*

%LPD*%
G36*
X1522374Y2028952D02*
G01*
X1518513Y2029714D01*
X1515211Y2031898D01*
X1513027Y2035200D01*
X1512214Y2040382D01*
X1513230Y2044750D01*
X1515059Y2048510D01*
X1516075Y2052980D01*
X1516075Y2057552D01*
X1515059Y2062022D01*
X1512468Y2067915D01*
X1512214Y2070201D01*
X1512214Y2171598D01*
X1513230Y2176018D01*
X1515059Y2179777D01*
X1516075Y2184247D01*
X1516075Y2188819D01*
X1515059Y2193290D01*
X1513078Y2197404D01*
X1509877Y2201418D01*
X1494840Y2216454D01*
X1487170Y2222042D01*
X1484782Y2225649D01*
X1481582Y2229713D01*
X1466545Y2244750D01*
X1462532Y2247950D01*
X1458366Y2249932D01*
X1453946Y2250948D01*
X1449374Y2250948D01*
X1444904Y2249932D01*
X1442720Y2248865D01*
X1438656Y2247900D01*
X1434592Y2248560D01*
X1431137Y2250846D01*
X1428851Y2254300D01*
X1428140Y2258415D01*
X1429156Y2262428D01*
X1430172Y2264613D01*
X1431239Y2269083D01*
X1431239Y2273655D01*
X1430528Y2276602D01*
X1430375Y2280208D01*
X1431493Y2283663D01*
X1433779Y2286508D01*
X1436878Y2288387D01*
X1440434Y2289048D01*
X1499006Y2289048D01*
X1502918Y2288235D01*
X1506220Y2286050D01*
X1564030Y2228240D01*
X1566214Y2225040D01*
X1567027Y2221280D01*
X1566367Y2217470D01*
X1563776Y2210663D01*
X1562150Y2201672D01*
X1562150Y2192528D01*
X1563776Y2183536D01*
X1567027Y2175002D01*
X1571701Y2167178D01*
X1577695Y2160270D01*
X1584858Y2154580D01*
X1592884Y2150262D01*
X1601571Y2147417D01*
X1611630Y2146096D01*
X1615084Y2144979D01*
X1617929Y2142744D01*
X1619758Y2139594D01*
X1620418Y2136038D01*
X1620418Y2039112D01*
X1619656Y2035200D01*
X1617421Y2031898D01*
X1614170Y2029714D01*
X1610258Y2028952D01*
G37*

%LPD*%
G36*
X1285443Y1979422D02*
G01*
X1281785Y1980285D01*
X1278636Y1982419D01*
X1244600Y2016455D01*
X1210564Y1982419D01*
X1207617Y1980387D01*
X1204163Y1979472D01*
X1200658Y1979828D01*
X1197406Y1981352D01*
X1192682Y1985111D01*
X1187348Y1992071D01*
X1172311Y2007057D01*
X1165606Y2012543D01*
X1163726Y2014474D01*
X1159052Y2020316D01*
X1144016Y2035352D01*
X1137310Y2040788D01*
X1135481Y2042769D01*
X1130808Y2048611D01*
X1115771Y2063648D01*
X1109878Y2068322D01*
X1105611Y2073046D01*
X1103680Y2076297D01*
X1103122Y2080056D01*
X1103985Y2083714D01*
X1106119Y2086864D01*
X1140155Y2120900D01*
X1106119Y2154936D01*
X1104087Y2157882D01*
X1103172Y2161336D01*
X1103528Y2164842D01*
X1105052Y2168093D01*
X1108811Y2172817D01*
X1115771Y2178151D01*
X1130808Y2193188D01*
X1136243Y2199894D01*
X1138174Y2201773D01*
X1144016Y2206447D01*
X1159052Y2221484D01*
X1164488Y2228189D01*
X1166469Y2230018D01*
X1172311Y2234692D01*
X1187348Y2249728D01*
X1192022Y2255621D01*
X1196746Y2259888D01*
X1199997Y2261819D01*
X1203756Y2262378D01*
X1207414Y2261514D01*
X1210564Y2259380D01*
X1244600Y2225344D01*
X1278636Y2259380D01*
X1281582Y2261412D01*
X1285036Y2262327D01*
X1288542Y2261971D01*
X1291793Y2260447D01*
X1296517Y2256688D01*
X1301851Y2249728D01*
X1316888Y2234692D01*
X1323594Y2229256D01*
X1325473Y2227326D01*
X1330147Y2221484D01*
X1332128Y2219502D01*
X1334312Y2216200D01*
X1335074Y2212289D01*
X1335074Y2208530D01*
X1336395Y2202891D01*
X1338884Y2197709D01*
X1342847Y2192731D01*
X1373276Y2162302D01*
X1376781Y2158085D01*
X1377696Y2154072D01*
X1376984Y2150008D01*
X1374749Y2146604D01*
X1349044Y2120900D01*
X1383080Y2086864D01*
X1385112Y2083917D01*
X1386027Y2080463D01*
X1385671Y2076957D01*
X1384147Y2073706D01*
X1380388Y2068982D01*
X1373428Y2063648D01*
X1358442Y2048611D01*
X1352956Y2041906D01*
X1351026Y2040026D01*
X1345184Y2035352D01*
X1330147Y2020316D01*
X1324711Y2013610D01*
X1322730Y2011781D01*
X1316888Y2007057D01*
X1301851Y1992071D01*
X1297178Y1986178D01*
X1292453Y1981911D01*
X1289202Y1979980D01*
G37*

%LPD*%
G36*
X1965807Y1197762D02*
G01*
X1961997Y1198422D01*
X1958695Y1200505D01*
X1956460Y1203604D01*
X1953818Y1209294D01*
X1948180Y1217320D01*
X1941220Y1224280D01*
X1933193Y1229918D01*
X1924253Y1234033D01*
X1914804Y1236573D01*
X1905000Y1237437D01*
X1896059Y1236675D01*
X1892096Y1237081D01*
X1888642Y1239012D01*
X1886153Y1242110D01*
X1885035Y1245920D01*
X1884273Y1254404D01*
X1881733Y1263853D01*
X1877618Y1272794D01*
X1871980Y1280820D01*
X1865020Y1287780D01*
X1856993Y1293418D01*
X1848053Y1297533D01*
X1838604Y1300073D01*
X1828800Y1300937D01*
X1818995Y1300073D01*
X1809546Y1297533D01*
X1800606Y1293418D01*
X1792579Y1287780D01*
X1788312Y1283462D01*
X1785010Y1281277D01*
X1781098Y1280515D01*
X1697075Y1280515D01*
X1693164Y1281277D01*
X1689862Y1283462D01*
X1687677Y1286764D01*
X1686915Y1290675D01*
X1686915Y1820519D01*
X1687626Y1824228D01*
X1689607Y1827428D01*
X1692656Y1829663D01*
X1696313Y1830679D01*
X1700072Y1830222D01*
X1703425Y1828495D01*
X1708607Y1824329D01*
X1713839Y1821789D01*
X1719478Y1820519D01*
X1725269Y1820519D01*
X1730908Y1821789D01*
X1736089Y1824329D01*
X1741068Y1828292D01*
X1752092Y1839315D01*
X1724101Y1867255D01*
X1698701Y1841855D01*
X1695653Y1839722D01*
X1692046Y1838858D01*
X1688338Y1839366D01*
X1685086Y1841144D01*
X1682699Y1843938D01*
X1679956Y1848713D01*
X1676146Y1853184D01*
X1662988Y1866341D01*
X1660804Y1869643D01*
X1660042Y1873504D01*
X1660804Y1877415D01*
X1662988Y1880666D01*
X1686864Y1904542D01*
X1660296Y1931111D01*
X1658112Y1934413D01*
X1657299Y1938274D01*
X1658112Y1942185D01*
X1660296Y1945487D01*
X1686712Y1971903D01*
X1690014Y1974088D01*
X1693925Y1974900D01*
X1697786Y1974088D01*
X1701088Y1971903D01*
X1727657Y1945335D01*
X1757375Y1975104D01*
X1748129Y1984349D01*
X1743151Y1988312D01*
X1737969Y1990801D01*
X1732330Y1992071D01*
X1726539Y1992071D01*
X1724355Y1991614D01*
X1720291Y1991512D01*
X1716532Y1993036D01*
X1713636Y1995932D01*
X1712112Y1999691D01*
X1712214Y2003755D01*
X1712671Y2005939D01*
X1712518Y2015388D01*
X1713636Y2018842D01*
X1715922Y2021687D01*
X1719021Y2023567D01*
X1722577Y2024176D01*
X1742084Y2024176D01*
X1745945Y2023414D01*
X1749247Y2021230D01*
X1899208Y1871319D01*
X1906320Y1865985D01*
X1912924Y1862582D01*
X1915261Y1860905D01*
X1917039Y1858721D01*
X1923440Y1847900D01*
X1931771Y1837334D01*
X1941474Y1827936D01*
X1952294Y1819960D01*
X1964131Y1813509D01*
X1976729Y1808632D01*
X1989836Y1805533D01*
X2003247Y1804162D01*
X2016709Y1804619D01*
X2029968Y1806854D01*
X2042871Y1810867D01*
X2055063Y1816506D01*
X2066442Y1823770D01*
X2076754Y1832457D01*
X2085797Y1842465D01*
X2093417Y1853590D01*
X2099462Y1865630D01*
X2103882Y1878330D01*
X2106574Y1891538D01*
X2107488Y1905000D01*
X2106574Y1918462D01*
X2103882Y1931670D01*
X2099462Y1944370D01*
X2093417Y1956409D01*
X2085797Y1967534D01*
X2076754Y1977542D01*
X2066442Y1986229D01*
X2055063Y1993493D01*
X2042871Y1999132D01*
X2029612Y2003247D01*
X2025904Y2005330D01*
X2023364Y2008784D01*
X2022500Y2012950D01*
X2023364Y2017115D01*
X2025904Y2020570D01*
X2029612Y2022652D01*
X2042871Y2026767D01*
X2055063Y2032406D01*
X2066442Y2039670D01*
X2076754Y2048357D01*
X2085797Y2058365D01*
X2093417Y2069490D01*
X2099462Y2081530D01*
X2103882Y2094230D01*
X2106574Y2107438D01*
X2107488Y2120900D01*
X2106574Y2134362D01*
X2103882Y2147570D01*
X2099462Y2160270D01*
X2093417Y2172309D01*
X2085797Y2183434D01*
X2076754Y2193442D01*
X2066442Y2202129D01*
X2055063Y2209393D01*
X2042871Y2215032D01*
X2029968Y2219045D01*
X2016709Y2221280D01*
X2003247Y2221738D01*
X1989836Y2220366D01*
X1976729Y2217267D01*
X1964131Y2212390D01*
X1952294Y2205939D01*
X1941474Y2197963D01*
X1931771Y2188565D01*
X1923440Y2177999D01*
X1916582Y2166416D01*
X1915109Y2163013D01*
X1912924Y2159762D01*
X1909622Y2157577D01*
X1905762Y2156815D01*
X1860600Y2156815D01*
X1856689Y2157577D01*
X1853387Y2159762D01*
X1729384Y2283815D01*
X1727098Y2287219D01*
X1726387Y2291283D01*
X1727352Y2295245D01*
X1729739Y2298547D01*
X1733296Y2300630D01*
X1737360Y2301138D01*
X1740306Y2300884D01*
X1912620Y2300884D01*
X1916023Y2300274D01*
X1919071Y2298547D01*
X1921357Y2295906D01*
X1923440Y2292400D01*
X1931771Y2281834D01*
X1941474Y2272436D01*
X1952294Y2264460D01*
X1964131Y2258009D01*
X1976729Y2253132D01*
X1989836Y2250033D01*
X2003247Y2248662D01*
X2016709Y2249119D01*
X2029968Y2251354D01*
X2042871Y2255367D01*
X2055063Y2261006D01*
X2066442Y2268270D01*
X2076754Y2276957D01*
X2085797Y2286965D01*
X2093417Y2298090D01*
X2099462Y2310130D01*
X2103882Y2322830D01*
X2106574Y2336038D01*
X2107488Y2349500D01*
X2106574Y2362962D01*
X2103882Y2376170D01*
X2099462Y2388870D01*
X2093417Y2400909D01*
X2085797Y2412034D01*
X2076754Y2422042D01*
X2066442Y2430729D01*
X2055063Y2437993D01*
X2042871Y2443632D01*
X2029968Y2447645D01*
X2016709Y2449880D01*
X2003247Y2450338D01*
X1989836Y2448966D01*
X1976729Y2445867D01*
X1964131Y2440990D01*
X1952294Y2434539D01*
X1941474Y2426563D01*
X1931771Y2417165D01*
X1923440Y2406599D01*
X1916582Y2395016D01*
X1911299Y2382570D01*
X1910638Y2380183D01*
X1908606Y2376322D01*
X1905101Y2373630D01*
X1900834Y2372715D01*
X1759000Y2372715D01*
X1755089Y2373477D01*
X1751787Y2375662D01*
X1722932Y2404516D01*
X1720596Y2408224D01*
X1719173Y2422804D01*
X1716633Y2432253D01*
X1712518Y2441194D01*
X1706880Y2449220D01*
X1699920Y2456180D01*
X1691893Y2461818D01*
X1682953Y2465933D01*
X1673504Y2468473D01*
X1663700Y2469337D01*
X1653895Y2468473D01*
X1644446Y2465933D01*
X1635506Y2461818D01*
X1627479Y2456180D01*
X1620520Y2449220D01*
X1614881Y2441194D01*
X1610766Y2432253D01*
X1608988Y2425750D01*
X1607058Y2421991D01*
X1603806Y2419299D01*
X1599692Y2418232D01*
X1595526Y2418892D01*
X1592021Y2421178D01*
X1587855Y2425293D01*
X1581607Y2430373D01*
X1574292Y2434082D01*
X1570939Y2436876D01*
X1570126Y2436418D01*
X1565960Y2435860D01*
X1561693Y2436215D01*
X1449374Y2436215D01*
X1445514Y2436977D01*
X1442212Y2439162D01*
X1440027Y2442464D01*
X1439214Y2446375D01*
X1439214Y2518918D01*
X1384198Y2518918D01*
X1371600Y2520137D01*
X1361795Y2519273D01*
X1352346Y2516733D01*
X1343406Y2512618D01*
X1335379Y2506980D01*
X1331112Y2502662D01*
X1327810Y2500477D01*
X1323898Y2499715D01*
X1232408Y2499715D01*
X1224432Y2498852D01*
X1217320Y2496566D01*
X1210716Y2492756D01*
X1206246Y2488895D01*
X1130706Y2413355D01*
X1125626Y2407107D01*
X1122222Y2400452D01*
X1120241Y2393086D01*
X1119784Y2387193D01*
X1119784Y2375408D01*
X1120648Y2367432D01*
X1122883Y2360472D01*
X1123391Y2356815D01*
X1122527Y2353208D01*
X1120444Y2350160D01*
X1116939Y2346655D01*
X1111504Y2339949D01*
X1109573Y2338070D01*
X1103680Y2333396D01*
X1088644Y2318359D01*
X1083106Y2311552D01*
X1081836Y2310333D01*
X1078534Y2308199D01*
X1074674Y2307437D01*
X1070813Y2308250D01*
X1067562Y2310434D01*
X1065377Y2313736D01*
X1064615Y2317597D01*
X1064615Y2348992D01*
X1063752Y2356967D01*
X1061466Y2364079D01*
X1057656Y2370683D01*
X1053795Y2375154D01*
X1009040Y2419959D01*
X1006856Y2423160D01*
X1006043Y2426970D01*
X1006703Y2430780D01*
X1008786Y2434031D01*
X1011885Y2436317D01*
X1015644Y2437282D01*
X1024991Y2437790D01*
X1041653Y2440635D01*
X1057910Y2445308D01*
X1073556Y2451811D01*
X1088390Y2459990D01*
X1102156Y2469794D01*
X1114806Y2481072D01*
X1126083Y2493670D01*
X1135837Y2507488D01*
X1144016Y2522270D01*
X1150518Y2537917D01*
X1155192Y2554173D01*
X1158036Y2570835D01*
X1159002Y2587752D01*
X1158036Y2604668D01*
X1155192Y2621330D01*
X1150518Y2637586D01*
X1144016Y2653233D01*
X1135837Y2668016D01*
X1126083Y2681833D01*
X1115517Y2693670D01*
X1113536Y2696921D01*
X1112926Y2700680D01*
X1113739Y2704439D01*
X1115872Y2707589D01*
X1199235Y2790901D01*
X1202486Y2793136D01*
X1206398Y2793898D01*
X2082901Y2793898D01*
X2086813Y2793136D01*
X2090064Y2790901D01*
X2244801Y2636164D01*
X2247036Y2632913D01*
X2247798Y2629001D01*
X2247798Y1350518D01*
X2247036Y1346657D01*
X2244801Y1343355D01*
X2241499Y1341170D01*
X2237638Y1340358D01*
X2233726Y1341170D01*
X2230424Y1343355D01*
X2191664Y1382115D01*
X2186686Y1386078D01*
X2181504Y1388618D01*
X2175865Y1389888D01*
X2170074Y1389888D01*
X2164435Y1388618D01*
X2159203Y1386078D01*
X2154224Y1382115D01*
X2059584Y1287475D01*
X2055622Y1282496D01*
X2053082Y1277264D01*
X2051812Y1271625D01*
X2051812Y1265834D01*
X2052828Y1261313D01*
X2052929Y1257249D01*
X2051405Y1253490D01*
X2048510Y1250594D01*
X2044750Y1249070D01*
X2040686Y1249172D01*
X2036165Y1250188D01*
X2030374Y1250188D01*
X2024735Y1248918D01*
X2019503Y1246378D01*
X2014524Y1242415D01*
X1972818Y1200708D01*
X1969617Y1198575D01*
G37*

%LPC*%
G36*
X1962759Y1572971D02*
G01*
X1962759Y1619859D01*
X1915871Y1619859D01*
X1916582Y1618183D01*
X1923440Y1606600D01*
X1931771Y1596034D01*
X1941474Y1586636D01*
X1952294Y1578660D01*
G37*
G36*
X2050440Y1573072D02*
G01*
X2055063Y1575206D01*
X2066442Y1582470D01*
X2076754Y1591157D01*
X2085797Y1601165D01*
X2093417Y1612290D01*
X2097227Y1619859D01*
X2050440Y1619859D01*
G37*
G36*
X2050440Y1707540D02*
G01*
X2097227Y1707540D01*
X2093417Y1715109D01*
X2085797Y1726234D01*
X2076754Y1736242D01*
X2066442Y1744929D01*
X2055063Y1752193D01*
X2050440Y1754327D01*
G37*
G36*
X1915871Y1707540D02*
G01*
X1962759Y1707540D01*
X1962759Y1754428D01*
X1952294Y1748739D01*
X1941474Y1740763D01*
X1931771Y1731365D01*
X1923440Y1720799D01*
X1916582Y1709216D01*
G37*
G36*
X1792884Y1880107D02*
G01*
X1803907Y1891131D01*
X1807870Y1896110D01*
X1810410Y1901291D01*
X1811680Y1906930D01*
X1811680Y1912721D01*
X1810410Y1918360D01*
X1807870Y1923592D01*
X1803907Y1928571D01*
X1794662Y1937816D01*
X1764944Y1908098D01*
G37*
G36*
X1576933Y2453690D02*
G01*
X1588363Y2459990D01*
X1602181Y2469794D01*
X1614779Y2481072D01*
X1626057Y2493670D01*
X1635861Y2507488D01*
X1642160Y2518918D01*
X1576933Y2518918D01*
G37*
G36*
X1576933Y2656586D02*
G01*
X1642160Y2656586D01*
X1635861Y2668016D01*
X1626057Y2681833D01*
X1614779Y2694432D01*
X1602181Y2705709D01*
X1588363Y2715514D01*
X1576933Y2721813D01*
G37*
G36*
X1373987Y2656586D02*
G01*
X1439214Y2656586D01*
X1439214Y2721813D01*
X1427784Y2715514D01*
X1414018Y2705709D01*
X1401368Y2694432D01*
X1390091Y2681833D01*
X1380337Y2668016D01*
G37*

%LPD*%
G36*
X1711960Y13716D02*
G01*
X1708048Y14478D01*
X1704797Y16662D01*
X1702562Y19964D01*
X1701800Y23876D01*
X1701800Y332333D01*
X1702562Y336245D01*
X1704797Y339547D01*
X1828088Y462838D01*
X1828800Y464566D01*
X1828800Y618490D01*
X1829562Y622401D01*
X1831797Y625652D01*
X1835048Y627888D01*
X1838960Y628650D01*
X2174240Y628650D01*
X2178151Y627888D01*
X2181402Y625652D01*
X2183638Y622401D01*
X2184400Y618490D01*
X2184400Y378866D01*
X2183638Y374954D01*
X2181402Y371652D01*
X2020011Y210261D01*
X2019300Y208534D01*
X2019300Y23876D01*
X2018538Y19964D01*
X2016302Y16662D01*
X2013051Y14478D01*
X2009139Y13716D01*
G37*

%LPD*%
G36*
X1102360Y13716D02*
G01*
X1098448Y14478D01*
X1095197Y16662D01*
X1092962Y19964D01*
X1092200Y23876D01*
X1092200Y357733D01*
X1092962Y361645D01*
X1095197Y364947D01*
X1129588Y399338D01*
X1130300Y401066D01*
X1130300Y618490D01*
X1131062Y622401D01*
X1133297Y625652D01*
X1136548Y627888D01*
X1140460Y628650D01*
X1488440Y628650D01*
X1492351Y627888D01*
X1495602Y625652D01*
X1497838Y622401D01*
X1498600Y618490D01*
X1498600Y404266D01*
X1497838Y400354D01*
X1495602Y397052D01*
X1423111Y324561D01*
X1422400Y322834D01*
X1422400Y23876D01*
X1421638Y19964D01*
X1419402Y16662D01*
X1416151Y14478D01*
X1412240Y13716D01*
G37*

%LPD*%
G36*
X505459Y13716D02*
G01*
X501548Y14478D01*
X498297Y16662D01*
X496062Y19964D01*
X495300Y23876D01*
X495300Y335534D01*
X494588Y337261D01*
X422097Y409752D01*
X419862Y413054D01*
X419100Y416966D01*
X419100Y618490D01*
X419862Y622401D01*
X422097Y625652D01*
X425348Y627888D01*
X429259Y628650D01*
X815340Y628650D01*
X819251Y627888D01*
X822502Y625652D01*
X824737Y622401D01*
X825500Y618490D01*
X825500Y23876D01*
X824737Y19964D01*
X822502Y16662D01*
X819251Y14478D01*
X815340Y13716D01*
G37*

%LPD*%
G36*
X340715Y13716D02*
G01*
X336600Y14579D01*
X333197Y17018D01*
X331063Y20624D01*
X330555Y24790D01*
X331774Y28752D01*
X334518Y31953D01*
X337566Y34239D01*
X351739Y47447D01*
X364642Y62026D01*
X376021Y77724D01*
X385876Y94437D01*
X394055Y112064D01*
X400507Y130352D01*
X405130Y149199D01*
X407974Y168402D01*
X408889Y187807D01*
X407974Y207213D01*
X405130Y226415D01*
X400507Y245262D01*
X394055Y263550D01*
X385876Y281178D01*
X376021Y297891D01*
X364642Y313588D01*
X351739Y328117D01*
X337566Y341325D01*
X322122Y353110D01*
X305612Y363372D01*
X288239Y371957D01*
X270103Y378866D01*
X251358Y383946D01*
X232206Y387248D01*
X212852Y388620D01*
X193446Y388162D01*
X174193Y385826D01*
X155244Y381660D01*
X136753Y375666D01*
X118973Y367893D01*
X102006Y358444D01*
X86004Y347421D01*
X71170Y334924D01*
X57607Y321005D01*
X51968Y313994D01*
X48768Y311353D01*
X44805Y310235D01*
X40690Y310794D01*
X37134Y312928D01*
X34747Y316280D01*
X33934Y320344D01*
X33934Y3655263D01*
X34747Y3659276D01*
X37134Y3662679D01*
X40690Y3664813D01*
X44805Y3665372D01*
X48768Y3664254D01*
X51968Y3661613D01*
X57607Y3654602D01*
X71170Y3640683D01*
X86004Y3628186D01*
X102006Y3617163D01*
X118973Y3607714D01*
X136753Y3599942D01*
X155244Y3593947D01*
X174193Y3589782D01*
X193446Y3587445D01*
X212852Y3586987D01*
X232206Y3588359D01*
X251358Y3591661D01*
X270103Y3596741D01*
X288239Y3603599D01*
X305612Y3612235D01*
X322122Y3622446D01*
X337566Y3634232D01*
X351739Y3647490D01*
X364642Y3662019D01*
X376021Y3677716D01*
X385876Y3694429D01*
X394055Y3712057D01*
X400507Y3730345D01*
X405130Y3749192D01*
X407974Y3768394D01*
X408889Y3787800D01*
X407974Y3807206D01*
X405130Y3826408D01*
X400507Y3845255D01*
X394055Y3863543D01*
X385876Y3881170D01*
X376021Y3897884D01*
X364642Y3913581D01*
X351739Y3928110D01*
X337566Y3941368D01*
X334518Y3943654D01*
X331774Y3946855D01*
X330555Y3950817D01*
X331063Y3954983D01*
X333197Y3958590D01*
X336600Y3961028D01*
X340715Y3961892D01*
X2175357Y3961892D01*
X2179370Y3961079D01*
X2182774Y3958691D01*
X2184908Y3955237D01*
X2185517Y3951173D01*
X2184450Y3947210D01*
X2181910Y3943959D01*
X2171192Y3934917D01*
X2157628Y3920998D01*
X2145487Y3905859D01*
X2134819Y3889654D01*
X2125827Y3872433D01*
X2118512Y3854500D01*
X2112924Y3835857D01*
X2109216Y3816807D01*
X2107336Y3797503D01*
X2107336Y3778097D01*
X2109216Y3758793D01*
X2112924Y3739743D01*
X2118512Y3721100D01*
X2125827Y3703167D01*
X2134819Y3685946D01*
X2145487Y3669741D01*
X2157628Y3654602D01*
X2171192Y3640683D01*
X2186025Y3628186D01*
X2201976Y3617163D01*
X2218944Y3607714D01*
X2236774Y3599942D01*
X2255215Y3593947D01*
X2274163Y3589782D01*
X2293467Y3587445D01*
X2312873Y3586987D01*
X2332228Y3588359D01*
X2351328Y3591661D01*
X2370074Y3596741D01*
X2388209Y3603599D01*
X2405634Y3612235D01*
X2422144Y3622446D01*
X2437536Y3634232D01*
X2451760Y3647490D01*
X2464308Y3661664D01*
X2467559Y3664102D01*
X2471521Y3665067D01*
X2475534Y3664407D01*
X2478989Y3662273D01*
X2481275Y3658920D01*
X2482088Y3654907D01*
X2482088Y320700D01*
X2481275Y316687D01*
X2478989Y313334D01*
X2475534Y311200D01*
X2471521Y310540D01*
X2467559Y311505D01*
X2464308Y313944D01*
X2451760Y328117D01*
X2437536Y341325D01*
X2422144Y353110D01*
X2405634Y363372D01*
X2388209Y371957D01*
X2370074Y378866D01*
X2351328Y383946D01*
X2332228Y387248D01*
X2312873Y388620D01*
X2293467Y388162D01*
X2274163Y385826D01*
X2255215Y381660D01*
X2236774Y375666D01*
X2224532Y370332D01*
X2220620Y369468D01*
X2216658Y370179D01*
X2213356Y372414D01*
X2211120Y375716D01*
X2210308Y379628D01*
X2210308Y628091D01*
X2209596Y634390D01*
X2207666Y639876D01*
X2204618Y644753D01*
X2200503Y648868D01*
X2195626Y651916D01*
X2190140Y653846D01*
X2183841Y654558D01*
X2171446Y654608D01*
X2164029Y655472D01*
X2111959Y655472D01*
X2103424Y654558D01*
X1917598Y654558D01*
X1909013Y655472D01*
X1856993Y655472D01*
X1848408Y654558D01*
X1829358Y654558D01*
X1823059Y653846D01*
X1817573Y651916D01*
X1812696Y648868D01*
X1809902Y646074D01*
X1806600Y643839D01*
X1802688Y643077D01*
X1798828Y643839D01*
X1795525Y646074D01*
X1788820Y652780D01*
X1780793Y658418D01*
X1771853Y662533D01*
X1762404Y665073D01*
X1752600Y665937D01*
X1742795Y665073D01*
X1733346Y662533D01*
X1724406Y658418D01*
X1720088Y655929D01*
X1717039Y655472D01*
X1666951Y655472D01*
X1660652Y654761D01*
X1655165Y652830D01*
X1650288Y649732D01*
X1646174Y645668D01*
X1643125Y640740D01*
X1641195Y635304D01*
X1640484Y628954D01*
X1640484Y526389D01*
X1641195Y520039D01*
X1643125Y514604D01*
X1646174Y509676D01*
X1650288Y505612D01*
X1655165Y502513D01*
X1660652Y500583D01*
X1666951Y499872D01*
X1719021Y499872D01*
X1725371Y500583D01*
X1730806Y502513D01*
X1735734Y505612D01*
X1739798Y509676D01*
X1742897Y514604D01*
X1744776Y520039D01*
X1745488Y526389D01*
X1745488Y543306D01*
X1746199Y547014D01*
X1748180Y550164D01*
X1751177Y552450D01*
X1754784Y553466D01*
X1762404Y554126D01*
X1771853Y556666D01*
X1780793Y560781D01*
X1786889Y565099D01*
X1790954Y566775D01*
X1795373Y566572D01*
X1799285Y564540D01*
X1801926Y561086D01*
X1802892Y556768D01*
X1802892Y478485D01*
X1802130Y474624D01*
X1799894Y471322D01*
X1683664Y355092D01*
X1679854Y350316D01*
X1677365Y345084D01*
X1676095Y339445D01*
X1675892Y336245D01*
X1675892Y23876D01*
X1675130Y19964D01*
X1672894Y16662D01*
X1669643Y14478D01*
X1665732Y13716D01*
X1458468Y13716D01*
X1454556Y14478D01*
X1451305Y16662D01*
X1449070Y19964D01*
X1448308Y23876D01*
X1448308Y308914D01*
X1449070Y312775D01*
X1451305Y316077D01*
X1516735Y381508D01*
X1520545Y386283D01*
X1523034Y391515D01*
X1524304Y397154D01*
X1524508Y400354D01*
X1524508Y628091D01*
X1523796Y634390D01*
X1521866Y639876D01*
X1518818Y644753D01*
X1514703Y648868D01*
X1509826Y651916D01*
X1504340Y653846D01*
X1498041Y654558D01*
X1472590Y654558D01*
X1464005Y655472D01*
X1411986Y655472D01*
X1403400Y654558D01*
X1217574Y654558D01*
X1209040Y655472D01*
X1156970Y655472D01*
X1148435Y654558D01*
X1130858Y654558D01*
X1124559Y653846D01*
X1119073Y651916D01*
X1116584Y650341D01*
X1113434Y649071D01*
X1110030Y648868D01*
X1106779Y649833D01*
X1103020Y652780D01*
X1094994Y658418D01*
X1086053Y662533D01*
X1076604Y665073D01*
X1066800Y665937D01*
X1056995Y665073D01*
X1047546Y662533D01*
X1038606Y658418D01*
X1034999Y655828D01*
X1032103Y654456D01*
X1028953Y653999D01*
X1025347Y654761D01*
X1019048Y655472D01*
X975360Y655472D01*
X972312Y655929D01*
X967994Y658418D01*
X959053Y662533D01*
X949604Y665073D01*
X939800Y665937D01*
X929995Y665073D01*
X920546Y662533D01*
X911606Y658418D01*
X903579Y652780D01*
X896619Y645820D01*
X890981Y637794D01*
X886866Y628853D01*
X884326Y619404D01*
X883462Y609600D01*
X884326Y599795D01*
X886866Y590346D01*
X890981Y581406D01*
X896619Y573379D01*
X903579Y566420D01*
X911606Y560781D01*
X920546Y556666D01*
X934821Y553008D01*
X937818Y550722D01*
X939800Y547573D01*
X940511Y543864D01*
X940511Y526389D01*
X941222Y520039D01*
X943102Y514604D01*
X946200Y509676D01*
X950264Y505612D01*
X955192Y502513D01*
X960628Y500583D01*
X966978Y499872D01*
X1019048Y499872D01*
X1025347Y500583D01*
X1030833Y502513D01*
X1035710Y505612D01*
X1039825Y509676D01*
X1042873Y514604D01*
X1044803Y520039D01*
X1045514Y526389D01*
X1045514Y544017D01*
X1046378Y548132D01*
X1048816Y551535D01*
X1052423Y553669D01*
X1056538Y554126D01*
X1066800Y553262D01*
X1076604Y554126D01*
X1086053Y556666D01*
X1089914Y558444D01*
X1093876Y559409D01*
X1097889Y558749D01*
X1101293Y556564D01*
X1103579Y553212D01*
X1104392Y549249D01*
X1104392Y414985D01*
X1103630Y411124D01*
X1101394Y407822D01*
X1074064Y380492D01*
X1070254Y375716D01*
X1067765Y370484D01*
X1066495Y364845D01*
X1066292Y361645D01*
X1066292Y23876D01*
X1065530Y19964D01*
X1063294Y16662D01*
X1060043Y14478D01*
X1056132Y13716D01*
X861568Y13716D01*
X857656Y14478D01*
X854405Y16662D01*
X852169Y19964D01*
X851408Y23876D01*
X851408Y571855D01*
X852373Y576122D01*
X853033Y577646D01*
X855573Y587095D01*
X856437Y596900D01*
X855573Y606704D01*
X853033Y616153D01*
X852373Y617677D01*
X851408Y621944D01*
X851408Y628091D01*
X850696Y634390D01*
X848766Y639876D01*
X845718Y644753D01*
X841603Y648868D01*
X836726Y651916D01*
X831240Y653846D01*
X824941Y654558D01*
X772566Y654558D01*
X764032Y655472D01*
X711962Y655472D01*
X703427Y654558D01*
X517601Y654558D01*
X509016Y655472D01*
X456996Y655472D01*
X452018Y655777D01*
X448411Y657758D01*
X445871Y661060D01*
X444855Y665073D01*
X445566Y669188D01*
X447852Y672642D01*
X471424Y696264D01*
X476554Y702462D01*
X480110Y709168D01*
X482295Y716381D01*
X483108Y724408D01*
X483108Y840232D01*
X483870Y844143D01*
X486105Y847394D01*
X489356Y849630D01*
X493268Y850392D01*
X580339Y850392D01*
X584200Y849630D01*
X587502Y847394D01*
X589737Y844143D01*
X590499Y840232D01*
X590499Y830224D01*
X623366Y830224D01*
X623366Y840232D01*
X624128Y844143D01*
X626313Y847394D01*
X629615Y849630D01*
X633526Y850392D01*
X652475Y850392D01*
X656386Y849630D01*
X659688Y847394D01*
X661873Y844143D01*
X662635Y840232D01*
X662635Y830224D01*
X695502Y830224D01*
X695502Y840232D01*
X696264Y844143D01*
X698500Y847394D01*
X701802Y849630D01*
X705662Y850392D01*
X770331Y850392D01*
X774242Y849630D01*
X777494Y847394D01*
X779729Y844143D01*
X780491Y840232D01*
X780491Y746607D01*
X781202Y740308D01*
X783132Y734822D01*
X786180Y729945D01*
X790295Y725830D01*
X795172Y722782D01*
X800658Y720852D01*
X806958Y720140D01*
X859028Y720140D01*
X865327Y720852D01*
X870813Y722782D01*
X875690Y725830D01*
X879805Y729945D01*
X882903Y734822D01*
X884783Y740308D01*
X885494Y746607D01*
X885494Y849223D01*
X884783Y855573D01*
X882903Y861009D01*
X879805Y865886D01*
X876909Y869238D01*
X875893Y871524D01*
X873810Y878332D01*
X868476Y888339D01*
X868019Y892149D01*
X868984Y895807D01*
X871219Y898855D01*
X874420Y900887D01*
X878128Y901598D01*
X1026921Y901598D01*
X1030833Y900836D01*
X1034135Y898601D01*
X1036319Y895299D01*
X1037082Y891438D01*
X1037082Y859790D01*
X1036218Y855573D01*
X1035507Y849223D01*
X1035507Y746607D01*
X1036218Y740308D01*
X1038098Y734822D01*
X1041196Y729945D01*
X1045260Y725830D01*
X1050188Y722782D01*
X1055624Y720852D01*
X1061974Y720140D01*
X1114044Y720140D01*
X1120343Y720852D01*
X1125829Y722782D01*
X1130706Y725830D01*
X1134821Y729945D01*
X1137869Y734822D01*
X1139799Y740308D01*
X1140510Y746607D01*
X1140510Y849223D01*
X1139799Y855573D01*
X1138885Y859790D01*
X1138885Y891438D01*
X1139698Y895299D01*
X1141882Y898601D01*
X1145184Y900836D01*
X1149045Y901598D01*
X1714601Y901598D01*
X1718513Y900836D01*
X1721764Y898601D01*
X1734108Y886307D01*
X1736343Y883005D01*
X1737106Y879094D01*
X1737106Y859790D01*
X1736191Y855573D01*
X1735480Y849223D01*
X1735480Y746607D01*
X1736191Y740308D01*
X1738122Y734822D01*
X1741170Y729945D01*
X1745284Y725830D01*
X1750161Y722782D01*
X1755648Y720852D01*
X1761947Y720140D01*
X1814017Y720140D01*
X1820367Y720852D01*
X1825802Y722782D01*
X1830730Y725830D01*
X1834794Y729945D01*
X1837893Y734822D01*
X1839772Y740308D01*
X1840484Y746607D01*
X1840484Y849223D01*
X1839772Y855573D01*
X1838909Y859790D01*
X1838909Y879094D01*
X1839671Y883005D01*
X1841906Y886307D01*
X1854200Y898601D01*
X1857502Y900836D01*
X1861413Y901598D01*
X1930196Y901598D01*
X1934819Y901801D01*
X1939239Y902360D01*
X1943557Y903325D01*
X1947824Y904646D01*
X1951888Y906373D01*
X1955850Y908405D01*
X1959610Y910793D01*
X1963115Y913485D01*
X1966569Y916635D01*
X2040432Y990549D01*
X2043734Y992733D01*
X2047595Y993495D01*
X2051507Y992733D01*
X2054809Y990549D01*
X2056993Y987247D01*
X2057755Y983335D01*
X2057755Y980490D01*
X2059076Y974852D01*
X2061565Y969619D01*
X2065528Y964641D01*
X2085543Y944626D01*
X2123236Y982319D01*
X2084933Y1020673D01*
X2082749Y1023975D01*
X2081936Y1027836D01*
X2082749Y1031748D01*
X2084933Y1035050D01*
X2127250Y1077366D01*
X2130552Y1079550D01*
X2134463Y1080363D01*
X2138324Y1079550D01*
X2141626Y1077366D01*
X2179980Y1039063D01*
X2262936Y1122019D01*
X2224633Y1160373D01*
X2222449Y1163675D01*
X2221636Y1167536D01*
X2222449Y1171448D01*
X2224633Y1174750D01*
X2266950Y1217066D01*
X2270252Y1219250D01*
X2274163Y1220063D01*
X2278024Y1219250D01*
X2281326Y1217066D01*
X2319680Y1178763D01*
X2357374Y1216456D01*
X2337358Y1236472D01*
X2332380Y1240434D01*
X2327148Y1242923D01*
X2321509Y1244244D01*
X2318664Y1244244D01*
X2314752Y1245006D01*
X2311450Y1247190D01*
X2309266Y1250492D01*
X2308504Y1254404D01*
X2309266Y1258265D01*
X2311450Y1261567D01*
X2334564Y1284630D01*
X2337714Y1288084D01*
X2340406Y1291590D01*
X2342794Y1295349D01*
X2344826Y1299311D01*
X2346553Y1303375D01*
X2347874Y1307642D01*
X2348839Y1311960D01*
X2349398Y1316380D01*
X2349601Y1321003D01*
X2349601Y2654096D01*
X2349398Y2658719D01*
X2348839Y2663139D01*
X2347874Y2667457D01*
X2346553Y2671724D01*
X2344826Y2675788D01*
X2342794Y2679750D01*
X2340406Y2683510D01*
X2337714Y2687015D01*
X2334564Y2690469D01*
X2144369Y2880664D01*
X2140915Y2883814D01*
X2137410Y2886506D01*
X2133650Y2888894D01*
X2129688Y2890926D01*
X2125624Y2892653D01*
X2121357Y2893974D01*
X2117039Y2894939D01*
X2112619Y2895498D01*
X2107996Y2895701D01*
X1181303Y2895701D01*
X1176680Y2895498D01*
X1172260Y2894939D01*
X1167942Y2893974D01*
X1163675Y2892653D01*
X1159611Y2890926D01*
X1155649Y2888894D01*
X1151890Y2886506D01*
X1148384Y2883814D01*
X1144930Y2880664D01*
X1005382Y2741066D01*
X1002334Y2738983D01*
X998778Y2738120D01*
X991209Y2737713D01*
X974496Y2734868D01*
X958240Y2730195D01*
X942594Y2723692D01*
X927811Y2715514D01*
X913993Y2705709D01*
X901395Y2694432D01*
X890117Y2681833D01*
X880313Y2668016D01*
X872134Y2653233D01*
X870762Y2649931D01*
X868578Y2646629D01*
X865276Y2644444D01*
X861364Y2643682D01*
X479755Y2643682D01*
X474675Y2643428D01*
X469849Y2642819D01*
X465074Y2641752D01*
X460451Y2640279D01*
X455930Y2638399D01*
X451612Y2636164D01*
X447497Y2633522D01*
X443636Y2630576D01*
X439877Y2627122D01*
X316230Y2503474D01*
X313131Y2500122D01*
X309778Y2495804D01*
X307441Y2492197D01*
X304901Y2487371D01*
X303225Y2483408D01*
X301599Y2478227D01*
X300634Y2474010D01*
X299923Y2468626D01*
X299669Y2464054D01*
X299262Y2414879D01*
X298500Y2411018D01*
X296265Y2407767D01*
X293014Y2405583D01*
X289102Y2404821D01*
X284276Y2404821D01*
X277926Y2404110D01*
X272491Y2402179D01*
X267563Y2399080D01*
X263499Y2395016D01*
X260400Y2390089D01*
X258521Y2384653D01*
X257810Y2378354D01*
X257810Y2244445D01*
X258521Y2238146D01*
X260400Y2232710D01*
X263499Y2227783D01*
X267563Y2223719D01*
X271373Y2221331D01*
X274523Y2218182D01*
X276047Y2213965D01*
X275590Y2209495D01*
X273253Y2205685D01*
X269494Y2203196D01*
X259079Y2202230D01*
X208686Y2202230D01*
X203200Y2202637D01*
X193395Y2201773D01*
X183946Y2199233D01*
X175006Y2195118D01*
X166979Y2189480D01*
X158648Y2180844D01*
X124460Y2146655D01*
X122783Y2145284D01*
X115824Y2138324D01*
X110185Y2130298D01*
X106070Y2121357D01*
X103530Y2111908D01*
X102666Y2102104D01*
X103530Y2092299D01*
X106070Y2082850D01*
X110185Y2073910D01*
X115824Y2065883D01*
X122783Y2058924D01*
X130810Y2053285D01*
X139750Y2049170D01*
X149199Y2046630D01*
X159004Y2045766D01*
X168808Y2046630D01*
X178257Y2049170D01*
X187198Y2053285D01*
X195224Y2058924D01*
X203555Y2067560D01*
X223367Y2087422D01*
X226669Y2089607D01*
X230581Y2090369D01*
X259943Y2090369D01*
X264566Y2089962D01*
X270052Y2090369D01*
X319887Y2090369D01*
X325424Y2089962D01*
X335178Y2090826D01*
X344678Y2093366D01*
X353568Y2097481D01*
X361645Y2103120D01*
X369925Y2111756D01*
X393598Y2135428D01*
X397002Y2139188D01*
X399999Y2143048D01*
X402590Y2147163D01*
X404876Y2151481D01*
X406755Y2156002D01*
X408178Y2160625D01*
X409244Y2165400D01*
X409905Y2170226D01*
X410108Y2175306D01*
X410108Y2207818D01*
X410870Y2211730D01*
X413105Y2215032D01*
X416407Y2217216D01*
X420268Y2217978D01*
X424129Y2217978D01*
X430428Y2218690D01*
X435914Y2220620D01*
X440791Y2223719D01*
X444906Y2227783D01*
X448614Y2233676D01*
X451408Y2236622D01*
X455168Y2238197D01*
X459232Y2238197D01*
X462991Y2236622D01*
X465785Y2233676D01*
X469493Y2227783D01*
X473608Y2223719D01*
X478485Y2220620D01*
X483971Y2218690D01*
X490270Y2217978D01*
X518617Y2217978D01*
X518617Y2271318D01*
X460756Y2271318D01*
X456895Y2272080D01*
X453593Y2274265D01*
X451358Y2277567D01*
X450596Y2281478D01*
X450596Y2341321D01*
X451358Y2345232D01*
X453593Y2348534D01*
X456895Y2350719D01*
X460756Y2351481D01*
X518617Y2351481D01*
X518617Y2404821D01*
X490270Y2404821D01*
X483971Y2404110D01*
X478485Y2402179D01*
X473608Y2399080D01*
X469493Y2395016D01*
X465785Y2389124D01*
X462991Y2386177D01*
X459232Y2384602D01*
X455168Y2384602D01*
X451408Y2386177D01*
X448614Y2389124D01*
X444906Y2395016D01*
X440791Y2399080D01*
X435914Y2402179D01*
X430428Y2404110D01*
X424129Y2404821D01*
X421284Y2404821D01*
X417372Y2405583D01*
X414070Y2407818D01*
X411835Y2411120D01*
X411124Y2415032D01*
X411276Y2436266D01*
X412089Y2440127D01*
X414274Y2443378D01*
X499719Y2528874D01*
X503021Y2531059D01*
X506933Y2531821D01*
X716686Y2531821D01*
X720648Y2531059D01*
X724001Y2528722D01*
X726186Y2525318D01*
X726846Y2521305D01*
X725932Y2517394D01*
X721766Y2508453D01*
X719226Y2499004D01*
X718362Y2488793D01*
X717804Y2484424D01*
X715467Y2480716D01*
X648106Y2413355D01*
X643737Y2407970D01*
X641197Y2405735D01*
X638098Y2404465D01*
X634695Y2404313D01*
X630123Y2404821D01*
X601776Y2404821D01*
X601776Y2351481D01*
X627024Y2351481D01*
X630936Y2350719D01*
X634238Y2348534D01*
X636422Y2345232D01*
X637184Y2341321D01*
X637184Y2281478D01*
X636422Y2277567D01*
X634238Y2274265D01*
X630936Y2272080D01*
X627024Y2271318D01*
X601776Y2271318D01*
X601776Y2217978D01*
X627024Y2217978D01*
X630936Y2217216D01*
X634238Y2215032D01*
X636422Y2211730D01*
X637184Y2207818D01*
X637184Y2178100D01*
X636422Y2174189D01*
X634238Y2170887D01*
X540308Y2076957D01*
X535228Y2070709D01*
X531825Y2064054D01*
X529844Y2056688D01*
X529386Y2050796D01*
X529386Y2010765D01*
X528726Y2007158D01*
X526796Y2004009D01*
X523900Y2001774D01*
X519531Y2000605D01*
X514096Y1998675D01*
X509168Y1995627D01*
X505104Y1991512D01*
X503885Y1989632D01*
X501091Y1986686D01*
X497332Y1985060D01*
X493268Y1985060D01*
X489508Y1986686D01*
X486714Y1989632D01*
X485495Y1991512D01*
X481431Y1995627D01*
X476504Y1998675D01*
X471068Y2000605D01*
X464718Y2001316D01*
X451662Y2001316D01*
X451662Y1959254D01*
X489204Y1959254D01*
X493115Y1958492D01*
X496417Y1956257D01*
X498601Y1952955D01*
X499364Y1949094D01*
X499364Y1911705D01*
X498601Y1907844D01*
X496417Y1904542D01*
X493115Y1902307D01*
X489204Y1901545D01*
X451662Y1901545D01*
X451662Y1859483D01*
X464718Y1859483D01*
X471068Y1860194D01*
X476504Y1862124D01*
X481431Y1865172D01*
X485495Y1869287D01*
X486714Y1871167D01*
X489508Y1874113D01*
X493268Y1875739D01*
X497332Y1875739D01*
X501091Y1874113D01*
X503885Y1871167D01*
X506526Y1867865D01*
X508711Y1864563D01*
X509473Y1860651D01*
X509473Y1834388D01*
X508711Y1830476D01*
X506526Y1827174D01*
X503224Y1824989D01*
X499313Y1824228D01*
X428548Y1824228D01*
X423418Y1823974D01*
X418592Y1823364D01*
X413816Y1822297D01*
X409194Y1820824D01*
X404672Y1818995D01*
X400354Y1816709D01*
X396240Y1814118D01*
X392379Y1811121D01*
X388620Y1807667D01*
X345389Y1764487D01*
X342087Y1762252D01*
X338226Y1761489D01*
X311150Y1761489D01*
X304850Y1760778D01*
X299364Y1758899D01*
X294487Y1755800D01*
X290372Y1751685D01*
X287324Y1746808D01*
X285394Y1741322D01*
X284683Y1735023D01*
X284683Y1656181D01*
X285394Y1649831D01*
X287324Y1644396D01*
X290372Y1639468D01*
X294487Y1635404D01*
X296367Y1634185D01*
X299313Y1631391D01*
X300939Y1627632D01*
X300939Y1623568D01*
X299313Y1619808D01*
X296367Y1617014D01*
X294487Y1615795D01*
X290372Y1611731D01*
X287324Y1606804D01*
X285394Y1601368D01*
X284683Y1595018D01*
X284683Y1581962D01*
X326745Y1581962D01*
X326745Y1619504D01*
X327507Y1623415D01*
X329742Y1626717D01*
X333044Y1628901D01*
X336905Y1629664D01*
X374294Y1629664D01*
X378155Y1628901D01*
X381457Y1626717D01*
X383692Y1623415D01*
X384454Y1619504D01*
X384454Y1581962D01*
X426516Y1581962D01*
X426516Y1595018D01*
X425805Y1601368D01*
X423875Y1606804D01*
X420827Y1611731D01*
X416712Y1615795D01*
X414832Y1617014D01*
X411886Y1619808D01*
X410260Y1623568D01*
X410260Y1627632D01*
X411886Y1631391D01*
X414832Y1634185D01*
X416712Y1635404D01*
X420827Y1639468D01*
X423875Y1644396D01*
X425805Y1649831D01*
X426516Y1656181D01*
X426516Y1683257D01*
X427278Y1687118D01*
X429463Y1690420D01*
X448513Y1709420D01*
X451764Y1711604D01*
X455676Y1712417D01*
X503174Y1712417D01*
X506526Y1711807D01*
X509524Y1710182D01*
X511809Y1707642D01*
X515213Y1702206D01*
X519328Y1698091D01*
X524205Y1695043D01*
X529640Y1693113D01*
X535990Y1692402D01*
X594868Y1692402D01*
X601167Y1693113D01*
X606653Y1695043D01*
X611530Y1698091D01*
X615645Y1702206D01*
X618693Y1707083D01*
X620623Y1712569D01*
X621334Y1718868D01*
X621334Y1823770D01*
X622096Y1827631D01*
X624281Y1830933D01*
X627583Y1833168D01*
X631494Y1833930D01*
X689965Y1833930D01*
X694080Y1833016D01*
X697534Y1830527D01*
X699617Y1826869D01*
X700074Y1822602D01*
X699516Y1817725D01*
X699516Y1718868D01*
X700227Y1712569D01*
X702106Y1707083D01*
X705205Y1702206D01*
X709320Y1698091D01*
X714197Y1694992D01*
X719632Y1693113D01*
X725982Y1692402D01*
X784860Y1692402D01*
X791159Y1693113D01*
X796645Y1694992D01*
X801522Y1698091D01*
X805637Y1702206D01*
X808685Y1707083D01*
X810615Y1712569D01*
X811326Y1718868D01*
X811326Y1817928D01*
X810971Y1823059D01*
X811580Y1827377D01*
X813968Y1830984D01*
X817676Y1833321D01*
X821994Y1833880D01*
X826516Y1833473D01*
X831900Y1833930D01*
X881329Y1833930D01*
X886714Y1833473D01*
X892098Y1833930D01*
X921613Y1833930D01*
X925525Y1833168D01*
X928827Y1830933D01*
X946912Y1812848D01*
X951890Y1808886D01*
X954532Y1807616D01*
X957783Y1805127D01*
X959764Y1801622D01*
X960272Y1797557D01*
X959662Y1790700D01*
X960526Y1780895D01*
X963066Y1771446D01*
X967181Y1762506D01*
X972819Y1754479D01*
X979779Y1747520D01*
X987806Y1741881D01*
X996746Y1737766D01*
X1006195Y1735226D01*
X1016000Y1734362D01*
X1025804Y1735226D01*
X1035253Y1737766D01*
X1044194Y1741881D01*
X1052220Y1747520D01*
X1056487Y1751838D01*
X1059789Y1754022D01*
X1063701Y1754784D01*
X1162964Y1754784D01*
X1167231Y1753819D01*
X1174546Y1750466D01*
X1183995Y1747926D01*
X1193800Y1747062D01*
X1203604Y1747926D01*
X1213053Y1750466D01*
X1221994Y1754581D01*
X1230020Y1760220D01*
X1236980Y1767179D01*
X1240180Y1771751D01*
X1243177Y1774596D01*
X1247038Y1775968D01*
X1251102Y1775764D01*
X1260195Y1773326D01*
X1270000Y1772462D01*
X1279804Y1773326D01*
X1289253Y1775866D01*
X1298194Y1779981D01*
X1306220Y1785620D01*
X1313180Y1792579D01*
X1318818Y1800606D01*
X1322933Y1809546D01*
X1325473Y1818995D01*
X1326337Y1828800D01*
X1325473Y1838604D01*
X1324914Y1840788D01*
X1324610Y1844700D01*
X1325829Y1848408D01*
X1328928Y1851812D01*
X1343964Y1866849D01*
X1349400Y1873554D01*
X1351381Y1875434D01*
X1357223Y1880107D01*
X1360525Y1883410D01*
X1363827Y1885594D01*
X1367688Y1886356D01*
X1371600Y1885594D01*
X1374902Y1883359D01*
X1497838Y1760270D01*
X1500022Y1756968D01*
X1500784Y1753107D01*
X1500784Y1714652D01*
X1500022Y1710791D01*
X1497838Y1707489D01*
X1494536Y1705254D01*
X1490624Y1704492D01*
X1388364Y1704492D01*
X1382064Y1703781D01*
X1376578Y1701901D01*
X1371701Y1698802D01*
X1367586Y1694688D01*
X1364538Y1689811D01*
X1362608Y1684324D01*
X1361897Y1678025D01*
X1361897Y1674672D01*
X1361135Y1670812D01*
X1358900Y1667510D01*
X1355598Y1665274D01*
X1351737Y1664512D01*
X1327962Y1664512D01*
X1324102Y1665274D01*
X1320800Y1667510D01*
X1318564Y1670812D01*
X1317802Y1674672D01*
X1317802Y1678025D01*
X1317091Y1684324D01*
X1315161Y1689811D01*
X1312113Y1694688D01*
X1307998Y1698802D01*
X1303121Y1701901D01*
X1297635Y1703781D01*
X1291336Y1704492D01*
X1172464Y1704492D01*
X1166164Y1703781D01*
X1160678Y1701901D01*
X1155801Y1698802D01*
X1151686Y1694688D01*
X1148638Y1689811D01*
X1146708Y1684324D01*
X1145997Y1678025D01*
X1145997Y1674672D01*
X1145235Y1670812D01*
X1143000Y1667510D01*
X1139698Y1665274D01*
X1135837Y1664512D01*
X1112062Y1664512D01*
X1108202Y1665274D01*
X1104900Y1667510D01*
X1102664Y1670812D01*
X1101902Y1674672D01*
X1101902Y1678025D01*
X1101191Y1684324D01*
X1099261Y1689811D01*
X1096213Y1694688D01*
X1092098Y1698802D01*
X1087221Y1701901D01*
X1081735Y1703781D01*
X1075436Y1704492D01*
X956564Y1704492D01*
X950264Y1703781D01*
X944778Y1701901D01*
X939901Y1698802D01*
X935786Y1694688D01*
X932738Y1689811D01*
X930808Y1684324D01*
X930097Y1678025D01*
X930097Y1674672D01*
X929335Y1670812D01*
X927100Y1667510D01*
X923798Y1665274D01*
X919937Y1664512D01*
X855929Y1664512D01*
X850849Y1664309D01*
X846023Y1663649D01*
X841248Y1662582D01*
X836574Y1661109D01*
X832103Y1659280D01*
X827786Y1656994D01*
X823671Y1654403D01*
X819759Y1651406D01*
X816000Y1648002D01*
X755243Y1587195D01*
X751941Y1584960D01*
X748030Y1584198D01*
X725982Y1584198D01*
X719632Y1583486D01*
X714197Y1581607D01*
X709777Y1579676D01*
X706018Y1579676D01*
X701598Y1581607D01*
X696163Y1583486D01*
X689813Y1584198D01*
X681736Y1584198D01*
X681736Y1539646D01*
X689305Y1539646D01*
X693216Y1538884D01*
X696518Y1536700D01*
X698703Y1533398D01*
X699465Y1529486D01*
X699465Y1487119D01*
X698703Y1483207D01*
X696518Y1479956D01*
X693216Y1477721D01*
X689305Y1476959D01*
X681736Y1476959D01*
X681736Y1432407D01*
X689305Y1432407D01*
X693216Y1431645D01*
X696518Y1429410D01*
X698703Y1426108D01*
X699465Y1422247D01*
X699465Y1412748D01*
X698906Y1409293D01*
X697179Y1406296D01*
X694588Y1404010D01*
X688136Y1400149D01*
X686866Y1398879D01*
X683564Y1396695D01*
X679704Y1395933D01*
X675182Y1395933D01*
X670560Y1396339D01*
X665073Y1395933D01*
X610006Y1396034D01*
X606348Y1397101D01*
X603300Y1399387D01*
X601370Y1402689D01*
X600760Y1406448D01*
X601573Y1410157D01*
X603707Y1413357D01*
X608584Y1418183D01*
X617220Y1430629D01*
X620877Y1432661D01*
X625043Y1433068D01*
X630986Y1432407D01*
X639064Y1432407D01*
X639064Y1476959D01*
X631494Y1476959D01*
X627583Y1477721D01*
X624281Y1479956D01*
X622096Y1483207D01*
X621334Y1487119D01*
X621334Y1529486D01*
X622096Y1533398D01*
X624281Y1536700D01*
X627583Y1538884D01*
X631494Y1539646D01*
X639064Y1539646D01*
X639064Y1584198D01*
X630986Y1584198D01*
X624636Y1583486D01*
X619201Y1581607D01*
X614781Y1579676D01*
X611022Y1579676D01*
X606602Y1581607D01*
X601167Y1583486D01*
X594817Y1584198D01*
X535990Y1584198D01*
X529640Y1583486D01*
X524205Y1581607D01*
X519277Y1578508D01*
X515213Y1574444D01*
X512114Y1569516D01*
X510184Y1564081D01*
X509473Y1557731D01*
X509473Y1481785D01*
X508711Y1477873D01*
X506526Y1474571D01*
X494030Y1462074D01*
X490575Y1458315D01*
X487629Y1454454D01*
X484987Y1450340D01*
X482752Y1446022D01*
X480872Y1441500D01*
X479399Y1436878D01*
X478332Y1432102D01*
X477723Y1427276D01*
X477469Y1422196D01*
X477469Y1409090D01*
X476554Y1404823D01*
X473913Y1401318D01*
X470357Y1398320D01*
X467309Y1396542D01*
X463804Y1395933D01*
X459943Y1395933D01*
X455320Y1396339D01*
X449834Y1395933D01*
X399796Y1395933D01*
X395935Y1396695D01*
X392633Y1398879D01*
X391312Y1400200D01*
X386435Y1403299D01*
X380949Y1405178D01*
X374650Y1405890D01*
X285750Y1405890D01*
X279450Y1405178D01*
X273964Y1403299D01*
X269087Y1400200D01*
X264972Y1396085D01*
X261924Y1391208D01*
X259994Y1385722D01*
X259283Y1379423D01*
X259283Y1300581D01*
X259994Y1294231D01*
X261924Y1288796D01*
X264972Y1283868D01*
X269087Y1279804D01*
X270967Y1278585D01*
X273913Y1275791D01*
X275539Y1272032D01*
X275539Y1267968D01*
X273913Y1264208D01*
X270967Y1261414D01*
X269087Y1260195D01*
X264972Y1256131D01*
X261924Y1251204D01*
X259994Y1245768D01*
X259283Y1239418D01*
X259283Y1226362D01*
X301345Y1226362D01*
X301345Y1263904D01*
X302107Y1267815D01*
X304342Y1271117D01*
X307644Y1273302D01*
X311505Y1274064D01*
X348894Y1274064D01*
X352755Y1273302D01*
X356057Y1271117D01*
X358292Y1267815D01*
X359054Y1263904D01*
X359054Y1226362D01*
X401116Y1226362D01*
X401116Y1239418D01*
X400405Y1245768D01*
X398475Y1251204D01*
X395427Y1256131D01*
X391312Y1260195D01*
X389432Y1261414D01*
X386486Y1264208D01*
X384860Y1267968D01*
X384860Y1272032D01*
X386486Y1275791D01*
X389432Y1278585D01*
X395935Y1283309D01*
X399846Y1284071D01*
X449834Y1284071D01*
X455320Y1283665D01*
X460806Y1284071D01*
X463753Y1284071D01*
X467664Y1283309D01*
X470966Y1281125D01*
X474167Y1278585D01*
X477113Y1275791D01*
X478739Y1272032D01*
X478739Y1267968D01*
X477113Y1264208D01*
X474167Y1261414D01*
X472287Y1260195D01*
X468172Y1256131D01*
X465124Y1251204D01*
X463194Y1245768D01*
X462483Y1239418D01*
X462483Y1226362D01*
X504545Y1226362D01*
X504545Y1263904D01*
X505307Y1267815D01*
X507542Y1271117D01*
X510844Y1273302D01*
X514705Y1274064D01*
X552094Y1274064D01*
X555955Y1273302D01*
X559257Y1271117D01*
X561492Y1267815D01*
X562254Y1263904D01*
X562254Y1226362D01*
X604316Y1226362D01*
X604316Y1239418D01*
X603605Y1245768D01*
X601675Y1251204D01*
X598627Y1256131D01*
X594512Y1260195D01*
X592632Y1261414D01*
X589686Y1264208D01*
X588060Y1267968D01*
X588060Y1272032D01*
X589686Y1275791D01*
X592632Y1278585D01*
X595680Y1280972D01*
X599389Y1283309D01*
X603758Y1283868D01*
X606399Y1283665D01*
X611886Y1284071D01*
X665073Y1284071D01*
X670560Y1283665D01*
X676046Y1284071D01*
X679653Y1284071D01*
X683564Y1283309D01*
X686866Y1281125D01*
X690067Y1278585D01*
X693013Y1275791D01*
X694639Y1272032D01*
X694639Y1267968D01*
X693013Y1264208D01*
X690067Y1261414D01*
X688187Y1260195D01*
X684072Y1256131D01*
X681024Y1251204D01*
X679094Y1245768D01*
X678383Y1239418D01*
X678383Y1226362D01*
X720445Y1226362D01*
X720445Y1263904D01*
X721207Y1267815D01*
X723442Y1271117D01*
X726744Y1273302D01*
X730605Y1274064D01*
X767994Y1274064D01*
X771855Y1273302D01*
X775157Y1271117D01*
X777392Y1267815D01*
X778154Y1263904D01*
X778154Y1226362D01*
X820216Y1226362D01*
X820216Y1239418D01*
X819505Y1245768D01*
X817575Y1251204D01*
X814527Y1256131D01*
X810412Y1260195D01*
X808532Y1261414D01*
X805586Y1264208D01*
X803960Y1267968D01*
X803960Y1272032D01*
X805586Y1275791D01*
X808532Y1278585D01*
X810412Y1279804D01*
X814527Y1283868D01*
X817575Y1288796D01*
X819505Y1294231D01*
X820216Y1300581D01*
X820216Y1379423D01*
X819505Y1385722D01*
X817575Y1391208D01*
X812088Y1399641D01*
X811326Y1403502D01*
X811326Y1480921D01*
X812088Y1484833D01*
X814273Y1488084D01*
X875893Y1549704D01*
X879195Y1551940D01*
X883056Y1552702D01*
X919937Y1552702D01*
X923798Y1551940D01*
X927100Y1549704D01*
X929335Y1546402D01*
X930097Y1542542D01*
X930097Y1539138D01*
X930808Y1532839D01*
X932738Y1527403D01*
X935786Y1522476D01*
X939901Y1518412D01*
X944778Y1515313D01*
X950264Y1513382D01*
X956564Y1512671D01*
X1075436Y1512671D01*
X1081735Y1513382D01*
X1087221Y1515313D01*
X1092098Y1518412D01*
X1096213Y1522476D01*
X1099261Y1527403D01*
X1101191Y1532839D01*
X1101902Y1539138D01*
X1101902Y1542542D01*
X1102664Y1546402D01*
X1104900Y1549704D01*
X1108202Y1551940D01*
X1112062Y1552702D01*
X1135837Y1552702D01*
X1139698Y1551940D01*
X1143000Y1549704D01*
X1145235Y1546402D01*
X1145997Y1542542D01*
X1145997Y1539138D01*
X1146708Y1532839D01*
X1148638Y1527403D01*
X1151686Y1522476D01*
X1155801Y1518412D01*
X1160678Y1515313D01*
X1166164Y1513382D01*
X1172464Y1512671D01*
X1291336Y1512671D01*
X1297533Y1513382D01*
X1300327Y1513332D01*
X1302969Y1512519D01*
X1310132Y1509166D01*
X1319631Y1506626D01*
X1329436Y1505762D01*
X1339189Y1506626D01*
X1348689Y1509166D01*
X1357579Y1513281D01*
X1362557Y1516786D01*
X1366164Y1518361D01*
X1370126Y1518462D01*
X1373784Y1517040D01*
X1376578Y1515313D01*
X1382064Y1513382D01*
X1388364Y1512671D01*
X1490624Y1512671D01*
X1494536Y1511909D01*
X1497838Y1509725D01*
X1500022Y1506423D01*
X1500784Y1502511D01*
X1500784Y1367688D01*
X1500022Y1363776D01*
X1497838Y1360474D01*
X1494536Y1358290D01*
X1490624Y1357528D01*
X1388364Y1357528D01*
X1382064Y1356817D01*
X1376578Y1354886D01*
X1371701Y1351788D01*
X1367586Y1347724D01*
X1364538Y1342796D01*
X1362608Y1337360D01*
X1361897Y1331061D01*
X1361897Y1320596D01*
X1360932Y1316329D01*
X1358239Y1312824D01*
X1354378Y1310792D01*
X1352346Y1310233D01*
X1343406Y1306118D01*
X1331874Y1298041D01*
X1327962Y1297279D01*
X1324102Y1298041D01*
X1320800Y1300226D01*
X1318564Y1303528D01*
X1317802Y1307439D01*
X1317802Y1331061D01*
X1317091Y1337360D01*
X1315161Y1342796D01*
X1312113Y1347724D01*
X1307998Y1351788D01*
X1303121Y1354886D01*
X1297635Y1356817D01*
X1291336Y1357528D01*
X1172464Y1357528D01*
X1166164Y1356817D01*
X1160678Y1354886D01*
X1155801Y1351788D01*
X1151686Y1347724D01*
X1148638Y1342796D01*
X1146708Y1337360D01*
X1145997Y1331061D01*
X1145997Y1320596D01*
X1145032Y1316329D01*
X1142339Y1312824D01*
X1138478Y1310792D01*
X1136446Y1310233D01*
X1127506Y1306118D01*
X1115974Y1298041D01*
X1112062Y1297279D01*
X1108202Y1298041D01*
X1104900Y1300226D01*
X1102664Y1303528D01*
X1101902Y1307439D01*
X1101902Y1331061D01*
X1101191Y1337360D01*
X1099261Y1342796D01*
X1096213Y1347724D01*
X1092098Y1351788D01*
X1087221Y1354886D01*
X1081735Y1356817D01*
X1075436Y1357528D01*
X956564Y1357528D01*
X950264Y1356817D01*
X944778Y1354886D01*
X939901Y1351788D01*
X935786Y1347724D01*
X932738Y1342796D01*
X930808Y1337360D01*
X930097Y1331061D01*
X930097Y1307896D01*
X929132Y1303629D01*
X926439Y1300124D01*
X922578Y1298092D01*
X920546Y1297533D01*
X911606Y1293418D01*
X903579Y1287780D01*
X896619Y1280820D01*
X890981Y1272794D01*
X886866Y1263853D01*
X884326Y1254404D01*
X883462Y1244600D01*
X884326Y1234795D01*
X886866Y1225346D01*
X890981Y1216406D01*
X896619Y1208379D01*
X903579Y1201420D01*
X911606Y1195781D01*
X920546Y1191666D01*
X924458Y1190599D01*
X927455Y1189228D01*
X929843Y1187043D01*
X931418Y1184148D01*
X932738Y1180388D01*
X935786Y1175512D01*
X939901Y1171397D01*
X944778Y1168298D01*
X950264Y1166418D01*
X956564Y1165707D01*
X1075436Y1165707D01*
X1081735Y1166418D01*
X1087221Y1168298D01*
X1092098Y1171397D01*
X1096213Y1175512D01*
X1099261Y1180388D01*
X1101191Y1185875D01*
X1101902Y1192174D01*
X1101902Y1207160D01*
X1102664Y1211072D01*
X1104900Y1214374D01*
X1108202Y1216558D01*
X1112062Y1217320D01*
X1115974Y1216558D01*
X1127506Y1208481D01*
X1136446Y1204366D01*
X1138478Y1203807D01*
X1142339Y1201775D01*
X1145032Y1198270D01*
X1145997Y1194003D01*
X1145997Y1192174D01*
X1146708Y1185875D01*
X1148638Y1180388D01*
X1151686Y1175512D01*
X1155801Y1171397D01*
X1160678Y1168298D01*
X1166164Y1166418D01*
X1172464Y1165707D01*
X1291336Y1165707D01*
X1297635Y1166418D01*
X1303121Y1168298D01*
X1307998Y1171397D01*
X1312113Y1175512D01*
X1315161Y1180388D01*
X1317091Y1185875D01*
X1317802Y1192174D01*
X1317802Y1207160D01*
X1318564Y1211072D01*
X1320800Y1214374D01*
X1324102Y1216558D01*
X1327962Y1217320D01*
X1331874Y1216558D01*
X1343406Y1208481D01*
X1352346Y1204366D01*
X1354378Y1203807D01*
X1358239Y1201775D01*
X1360932Y1198270D01*
X1361897Y1194003D01*
X1361897Y1192174D01*
X1362608Y1185875D01*
X1364538Y1180388D01*
X1367586Y1175512D01*
X1371701Y1171397D01*
X1376578Y1168298D01*
X1382064Y1166418D01*
X1388364Y1165707D01*
X1507236Y1165707D01*
X1513535Y1166418D01*
X1519021Y1168298D01*
X1523085Y1170889D01*
X1526235Y1172159D01*
X1529638Y1172362D01*
X1532890Y1171448D01*
X1535684Y1169466D01*
X1681835Y1023315D01*
X1683461Y1021181D01*
X1685137Y1016203D01*
X1685442Y1012494D01*
X1684375Y1008938D01*
X1682140Y1005992D01*
X1678939Y1004062D01*
X1675333Y1003401D01*
X1588566Y1003401D01*
X1584960Y1004062D01*
X1581759Y1005992D01*
X1579524Y1008938D01*
X1578457Y1012494D01*
X1578762Y1016203D01*
X1579473Y1018895D01*
X1580337Y1028700D01*
X1579473Y1038504D01*
X1576933Y1047953D01*
X1572818Y1056894D01*
X1567180Y1064920D01*
X1560220Y1071880D01*
X1552194Y1077518D01*
X1543253Y1081633D01*
X1533804Y1084173D01*
X1524000Y1085037D01*
X1514195Y1084173D01*
X1504746Y1081633D01*
X1495806Y1077518D01*
X1487779Y1071880D01*
X1486204Y1070305D01*
X1482902Y1068070D01*
X1478991Y1067308D01*
X406908Y1067308D01*
X398881Y1066495D01*
X391668Y1064310D01*
X384962Y1060754D01*
X378764Y1055624D01*
X303276Y980135D01*
X298145Y973937D01*
X294589Y967232D01*
X292404Y960018D01*
X291592Y951992D01*
X291592Y724408D01*
X292404Y716381D01*
X294589Y709168D01*
X298145Y702462D01*
X303276Y696264D01*
X326694Y672795D01*
X328879Y669493D01*
X329692Y665632D01*
X328879Y661720D01*
X326694Y658418D01*
X323392Y656234D01*
X319532Y655472D01*
X266954Y655472D01*
X260654Y654761D01*
X255168Y652830D01*
X250291Y649732D01*
X246176Y645668D01*
X243128Y640740D01*
X241198Y635304D01*
X240487Y628954D01*
X240487Y526389D01*
X241198Y520039D01*
X243128Y514604D01*
X246176Y509676D01*
X250291Y505612D01*
X255168Y502513D01*
X260654Y500583D01*
X266954Y499872D01*
X319024Y499872D01*
X325374Y500583D01*
X330809Y502513D01*
X335737Y505612D01*
X339801Y509676D01*
X342900Y514604D01*
X344779Y520039D01*
X345490Y526389D01*
X345490Y531672D01*
X346456Y535990D01*
X349148Y539445D01*
X353060Y541477D01*
X362153Y543966D01*
X371094Y548081D01*
X377190Y552399D01*
X381254Y554075D01*
X385673Y553872D01*
X389585Y551840D01*
X392226Y548386D01*
X393192Y544068D01*
X393192Y413054D01*
X393852Y407009D01*
X395782Y401523D01*
X398881Y396595D01*
X400964Y394208D01*
X466394Y328777D01*
X468630Y325475D01*
X469392Y321614D01*
X469392Y23876D01*
X468630Y19964D01*
X466394Y16662D01*
X463143Y14478D01*
X459232Y13716D01*
G37*

%LPC*%
G36*
X2016963Y720140D02*
G01*
X2023364Y720140D01*
X2023364Y765657D01*
X1990496Y765657D01*
X1990496Y746607D01*
X1991207Y740308D01*
X1993138Y734822D01*
X1996186Y729945D01*
X2000300Y725830D01*
X2005177Y722782D01*
X2010664Y720852D01*
G37*
G36*
X616966Y720140D02*
G01*
X623366Y720140D01*
X623366Y765657D01*
X590499Y765657D01*
X590499Y746607D01*
X591210Y740308D01*
X593090Y734822D01*
X596188Y729945D01*
X600303Y725830D01*
X605180Y722782D01*
X610666Y720852D01*
G37*
G36*
X662635Y720140D02*
G01*
X669036Y720140D01*
X675335Y720852D01*
X680821Y722782D01*
X685698Y725830D01*
X689813Y729945D01*
X692861Y734822D01*
X694791Y740308D01*
X695502Y746607D01*
X695502Y765657D01*
X662635Y765657D01*
G37*
G36*
X1316990Y720140D02*
G01*
X1323340Y720140D01*
X1323340Y765657D01*
X1290472Y765657D01*
X1290472Y746607D01*
X1291183Y740308D01*
X1293114Y734822D01*
X1296212Y729945D01*
X1300276Y725830D01*
X1305204Y722782D01*
X1310640Y720852D01*
G37*
G36*
X1362659Y720140D02*
G01*
X1369009Y720140D01*
X1375359Y720852D01*
X1380794Y722782D01*
X1385722Y725830D01*
X1389786Y729945D01*
X1392885Y734822D01*
X1394815Y740308D01*
X1395526Y746607D01*
X1395526Y765657D01*
X1362659Y765657D01*
G37*
G36*
X1506982Y720140D02*
G01*
X1559052Y720140D01*
X1565351Y720852D01*
X1570837Y722782D01*
X1575714Y725830D01*
X1579829Y729945D01*
X1582877Y734822D01*
X1584807Y740308D01*
X1585518Y746607D01*
X1585518Y751332D01*
X1586280Y755243D01*
X1588465Y758494D01*
X1591767Y760730D01*
X1595678Y761492D01*
X1605991Y761492D01*
X1609902Y760730D01*
X1613204Y758494D01*
X1614779Y756920D01*
X1622806Y751281D01*
X1631746Y747166D01*
X1641195Y744626D01*
X1651000Y743762D01*
X1660804Y744626D01*
X1670253Y747166D01*
X1679193Y751281D01*
X1687220Y756920D01*
X1694180Y763879D01*
X1699818Y771906D01*
X1703933Y780846D01*
X1706473Y790295D01*
X1707337Y800100D01*
X1706473Y809904D01*
X1703933Y819353D01*
X1699818Y828294D01*
X1694180Y836320D01*
X1687220Y843280D01*
X1679193Y848918D01*
X1670253Y853033D01*
X1660804Y855573D01*
X1651000Y856437D01*
X1641195Y855573D01*
X1631746Y853033D01*
X1622806Y848918D01*
X1614779Y843280D01*
X1613204Y841705D01*
X1609902Y839469D01*
X1605991Y838708D01*
X1595678Y838708D01*
X1592021Y839368D01*
X1588871Y841349D01*
X1586585Y844296D01*
X1585569Y847852D01*
X1584756Y855624D01*
X1582877Y861009D01*
X1579829Y865886D01*
X1575714Y870000D01*
X1570837Y873099D01*
X1565351Y874979D01*
X1559052Y875690D01*
X1506982Y875690D01*
X1500632Y874979D01*
X1495196Y873099D01*
X1490268Y870000D01*
X1486204Y865886D01*
X1483106Y861009D01*
X1481226Y855573D01*
X1480515Y849223D01*
X1480515Y746607D01*
X1481226Y740308D01*
X1483106Y734822D01*
X1486204Y729945D01*
X1490268Y725830D01*
X1495196Y722782D01*
X1500632Y720852D01*
G37*
G36*
X2062632Y720140D02*
G01*
X2069033Y720140D01*
X2075332Y720852D01*
X2080818Y722782D01*
X2085695Y725830D01*
X2092909Y733196D01*
X2096922Y734771D01*
X2101189Y734568D01*
X2111095Y731926D01*
X2120900Y731062D01*
X2130704Y731926D01*
X2140153Y734466D01*
X2149094Y738581D01*
X2157120Y744220D01*
X2158695Y745794D01*
X2161997Y748030D01*
X2165908Y748792D01*
X2171192Y748792D01*
X2175256Y747928D01*
X2178710Y745439D01*
X2180793Y741832D01*
X2183180Y734771D01*
X2186178Y729945D01*
X2190292Y725830D01*
X2195169Y722782D01*
X2200656Y720852D01*
X2206955Y720140D01*
X2259025Y720140D01*
X2265375Y720852D01*
X2270810Y722782D01*
X2275738Y725830D01*
X2279802Y729945D01*
X2282901Y734822D01*
X2284780Y740308D01*
X2285492Y746607D01*
X2285492Y849223D01*
X2284780Y855573D01*
X2282901Y861009D01*
X2279802Y865886D01*
X2275738Y870000D01*
X2270810Y873099D01*
X2265375Y874979D01*
X2259025Y875690D01*
X2234082Y875690D01*
X2230221Y876503D01*
X2226919Y878687D01*
X2182114Y923493D01*
X2144420Y885799D01*
X2164435Y865784D01*
X2169414Y861821D01*
X2174748Y859231D01*
X2177796Y856996D01*
X2179828Y853744D01*
X2180539Y850036D01*
X2180488Y836168D01*
X2179726Y832256D01*
X2177491Y828954D01*
X2174240Y826769D01*
X2170328Y826008D01*
X2165908Y826008D01*
X2161997Y826769D01*
X2158695Y829005D01*
X2157120Y830580D01*
X2149094Y836218D01*
X2140153Y840333D01*
X2130704Y842873D01*
X2120900Y843737D01*
X2111095Y842873D01*
X2108047Y842060D01*
X2103729Y841857D01*
X2099716Y843483D01*
X2096719Y846632D01*
X2095347Y850747D01*
X2094788Y855573D01*
X2092858Y861009D01*
X2089810Y865886D01*
X2085695Y870000D01*
X2080818Y873099D01*
X2075332Y874979D01*
X2069033Y875690D01*
X2062632Y875690D01*
X2062632Y830224D01*
X2066950Y829411D01*
X2070303Y827125D01*
X2072487Y823671D01*
X2073148Y819708D01*
X2072182Y815746D01*
X2067966Y806653D01*
X2065426Y797204D01*
X2064562Y787400D01*
X2065477Y776681D01*
X2064969Y772363D01*
X2062632Y768705D01*
G37*
G36*
X1290472Y830224D02*
G01*
X1323340Y830224D01*
X1323340Y875690D01*
X1316990Y875690D01*
X1310640Y874979D01*
X1305204Y873099D01*
X1300276Y870000D01*
X1296212Y865886D01*
X1293114Y861009D01*
X1291183Y855573D01*
X1290472Y849223D01*
G37*
G36*
X1990496Y830224D02*
G01*
X2023364Y830224D01*
X2023364Y875690D01*
X2016963Y875690D01*
X2010664Y874979D01*
X2005177Y873099D01*
X2000300Y870000D01*
X1996186Y865886D01*
X1993138Y861009D01*
X1991207Y855573D01*
X1990496Y849223D01*
G37*
G36*
X1362659Y830224D02*
G01*
X1395526Y830224D01*
X1395526Y849223D01*
X1394815Y855573D01*
X1392885Y861009D01*
X1389786Y865886D01*
X1385722Y870000D01*
X1380794Y873099D01*
X1375359Y874979D01*
X1369009Y875690D01*
X1362659Y875690D01*
G37*
G36*
X2277567Y941476D02*
G01*
X2296515Y960424D01*
X2300478Y965403D01*
X2303018Y970635D01*
X2304288Y976274D01*
X2304288Y982065D01*
X2303272Y986586D01*
X2303170Y990650D01*
X2304694Y994410D01*
X2307590Y997305D01*
X2311349Y998829D01*
X2315413Y998728D01*
X2319934Y997712D01*
X2325725Y997712D01*
X2331364Y998982D01*
X2336596Y1001521D01*
X2341575Y1005484D01*
X2360523Y1024432D01*
X2321814Y1063193D01*
X2238806Y980186D01*
G37*
G36*
X2417267Y1081176D02*
G01*
X2436215Y1100124D01*
X2440178Y1105103D01*
X2442718Y1110335D01*
X2443988Y1115974D01*
X2443988Y1121765D01*
X2442718Y1127404D01*
X2440178Y1132586D01*
X2436215Y1137564D01*
X2416200Y1157579D01*
X2378506Y1119886D01*
G37*
G36*
X704850Y1134110D02*
G01*
X720445Y1134110D01*
X720445Y1173683D01*
X678383Y1173683D01*
X678383Y1160576D01*
X679094Y1154277D01*
X681024Y1148791D01*
X684072Y1143914D01*
X688187Y1139799D01*
X693064Y1136700D01*
X698550Y1134821D01*
G37*
G36*
X359054Y1134110D02*
G01*
X374650Y1134110D01*
X380949Y1134821D01*
X386435Y1136700D01*
X391312Y1139799D01*
X395427Y1143914D01*
X398475Y1148791D01*
X400405Y1154277D01*
X401116Y1160576D01*
X401116Y1173683D01*
X359054Y1173683D01*
G37*
G36*
X562254Y1134110D02*
G01*
X577850Y1134110D01*
X584149Y1134821D01*
X589635Y1136700D01*
X594512Y1139799D01*
X598627Y1143914D01*
X601675Y1148791D01*
X603605Y1154277D01*
X604316Y1160576D01*
X604316Y1173683D01*
X562254Y1173683D01*
G37*
G36*
X488950Y1134110D02*
G01*
X504545Y1134110D01*
X504545Y1173683D01*
X462483Y1173683D01*
X462483Y1160576D01*
X463194Y1154277D01*
X465124Y1148791D01*
X468172Y1143914D01*
X472287Y1139799D01*
X477164Y1136700D01*
X482650Y1134821D01*
G37*
G36*
X778154Y1134110D02*
G01*
X793750Y1134110D01*
X800049Y1134821D01*
X805535Y1136700D01*
X810412Y1139799D01*
X814527Y1143914D01*
X817575Y1148791D01*
X819505Y1154277D01*
X820216Y1160576D01*
X820216Y1173683D01*
X778154Y1173683D01*
G37*
G36*
X285750Y1134110D02*
G01*
X301345Y1134110D01*
X301345Y1173683D01*
X259283Y1173683D01*
X259283Y1160576D01*
X259994Y1154277D01*
X261924Y1148791D01*
X264972Y1143914D01*
X269087Y1139799D01*
X273964Y1136700D01*
X279450Y1134821D01*
G37*
G36*
X311150Y1489710D02*
G01*
X326745Y1489710D01*
X326745Y1529283D01*
X284683Y1529283D01*
X284683Y1516176D01*
X285394Y1509877D01*
X287324Y1504391D01*
X290372Y1499514D01*
X294487Y1495399D01*
X299364Y1492300D01*
X304850Y1490421D01*
G37*
G36*
X384454Y1489710D02*
G01*
X400050Y1489710D01*
X406349Y1490421D01*
X411835Y1492300D01*
X416712Y1495399D01*
X420827Y1499514D01*
X423875Y1504391D01*
X425805Y1509877D01*
X426516Y1516176D01*
X426516Y1529283D01*
X384454Y1529283D01*
G37*
G36*
X385876Y1859483D02*
G01*
X398983Y1859483D01*
X398983Y1901545D01*
X359410Y1901545D01*
X359410Y1885950D01*
X360121Y1879650D01*
X362000Y1874164D01*
X365099Y1869287D01*
X369214Y1865172D01*
X374091Y1862124D01*
X379577Y1860194D01*
G37*
G36*
X359410Y1959254D02*
G01*
X398983Y1959254D01*
X398983Y2001316D01*
X385876Y2001316D01*
X379577Y2000605D01*
X374091Y1998675D01*
X369214Y1995627D01*
X365099Y1991512D01*
X362000Y1986635D01*
X360121Y1981149D01*
X359410Y1974850D01*
G37*
G36*
X256540Y2778861D02*
G01*
X335381Y2778861D01*
X341680Y2779572D01*
X347167Y2781452D01*
X352044Y2784551D01*
X356158Y2788666D01*
X359257Y2793542D01*
X362305Y2803398D01*
X364591Y2806293D01*
X367741Y2808224D01*
X371348Y2808884D01*
X803198Y2808884D01*
X807110Y2808122D01*
X810412Y2805938D01*
X814679Y2801620D01*
X822706Y2795981D01*
X831646Y2791866D01*
X841095Y2789326D01*
X850900Y2788462D01*
X860704Y2789326D01*
X870153Y2791866D01*
X879094Y2795981D01*
X887120Y2801620D01*
X894080Y2808579D01*
X899718Y2816606D01*
X903833Y2825546D01*
X906373Y2834995D01*
X907237Y2844800D01*
X906373Y2854604D01*
X903833Y2864053D01*
X899718Y2872994D01*
X894080Y2881020D01*
X887120Y2887980D01*
X879094Y2893618D01*
X870153Y2897733D01*
X860704Y2900273D01*
X850900Y2901137D01*
X841095Y2900273D01*
X830935Y2897581D01*
X826820Y2897327D01*
X822960Y2898749D01*
X819962Y2901543D01*
X818337Y2905302D01*
X818337Y2909417D01*
X819962Y2913227D01*
X823518Y2918206D01*
X827633Y2927146D01*
X830173Y2936595D01*
X831037Y2946400D01*
X830173Y2956204D01*
X827633Y2965653D01*
X823518Y2974594D01*
X817880Y2982620D01*
X810920Y2989580D01*
X802894Y2995218D01*
X793953Y2999333D01*
X784504Y3001873D01*
X774700Y3002737D01*
X764895Y3001873D01*
X755446Y2999333D01*
X746506Y2995218D01*
X738479Y2989580D01*
X734212Y2985262D01*
X730910Y2983077D01*
X726998Y2982315D01*
X476300Y2982315D01*
X472389Y2983077D01*
X469087Y2985262D01*
X457962Y2996387D01*
X455777Y2999689D01*
X455015Y3003600D01*
X455015Y3364992D01*
X454151Y3372967D01*
X451866Y3380079D01*
X448056Y3386683D01*
X444195Y3391154D01*
X398780Y3436620D01*
X392531Y3441649D01*
X385876Y3445052D01*
X378510Y3447034D01*
X373888Y3447338D01*
X370484Y3448202D01*
X367538Y3450132D01*
X365506Y3452977D01*
X364337Y3457651D01*
X362458Y3463086D01*
X359359Y3468014D01*
X355244Y3472078D01*
X350367Y3475177D01*
X344881Y3477107D01*
X338582Y3477818D01*
X253339Y3477818D01*
X246989Y3477107D01*
X241554Y3475177D01*
X236626Y3472078D01*
X232562Y3468014D01*
X229463Y3463086D01*
X227533Y3457651D01*
X226821Y3451301D01*
X226821Y3371799D01*
X227533Y3365500D01*
X229463Y3360013D01*
X232562Y3355136D01*
X236626Y3351022D01*
X241554Y3347974D01*
X247599Y3345840D01*
X251155Y3343706D01*
X253593Y3340303D01*
X254406Y3336239D01*
X253593Y3332175D01*
X251155Y3328822D01*
X247599Y3326637D01*
X241554Y3324555D01*
X236626Y3321456D01*
X232562Y3317341D01*
X229463Y3312464D01*
X227533Y3306978D01*
X226821Y3300679D01*
X226821Y3221177D01*
X227533Y3214827D01*
X229463Y3209391D01*
X232562Y3204464D01*
X236626Y3200400D01*
X240284Y3198114D01*
X242824Y3195828D01*
X244500Y3192830D01*
X245059Y3189478D01*
X245059Y3084017D01*
X244500Y3080664D01*
X242824Y3077718D01*
X239826Y3075127D01*
X235762Y3071063D01*
X232664Y3066135D01*
X230733Y3060700D01*
X230022Y3054350D01*
X230022Y2975508D01*
X230733Y2969209D01*
X232664Y2963722D01*
X235762Y2958846D01*
X239826Y2954731D01*
X244754Y2951632D01*
X250190Y2949752D01*
X256540Y2949041D01*
X335381Y2949041D01*
X341680Y2949752D01*
X347167Y2951632D01*
X352044Y2954731D01*
X356158Y2958846D01*
X359257Y2963722D01*
X361137Y2969209D01*
X361848Y2975508D01*
X361848Y3054350D01*
X361137Y3060700D01*
X359257Y3066135D01*
X356158Y3071063D01*
X349097Y3077718D01*
X347421Y3080664D01*
X346862Y3084017D01*
X346862Y3189478D01*
X347421Y3192830D01*
X349097Y3195828D01*
X351637Y3198114D01*
X355244Y3200400D01*
X359359Y3204464D01*
X362458Y3209391D01*
X363423Y3212236D01*
X365506Y3215741D01*
X368757Y3218129D01*
X372719Y3219043D01*
X376682Y3218383D01*
X380085Y3216198D01*
X382371Y3212846D01*
X383184Y3208883D01*
X383184Y2985008D01*
X384048Y2977032D01*
X386334Y2969920D01*
X390144Y2963316D01*
X394004Y2958846D01*
X431444Y2921406D01*
X437692Y2916326D01*
X444347Y2912922D01*
X451713Y2910941D01*
X457606Y2910484D01*
X726998Y2910484D01*
X730910Y2909722D01*
X734212Y2907538D01*
X738479Y2903220D01*
X744270Y2899206D01*
X747166Y2896057D01*
X748538Y2892044D01*
X748131Y2887827D01*
X745998Y2884119D01*
X742594Y2881579D01*
X738428Y2880715D01*
X371348Y2880715D01*
X367690Y2881376D01*
X364540Y2883306D01*
X362305Y2886202D01*
X361137Y2890520D01*
X359257Y2895955D01*
X356158Y2900883D01*
X352044Y2904947D01*
X347167Y2908046D01*
X341680Y2909976D01*
X335381Y2910687D01*
X256540Y2910687D01*
X250190Y2909976D01*
X244754Y2908046D01*
X239826Y2904947D01*
X235762Y2900883D01*
X232664Y2895955D01*
X230733Y2890520D01*
X230022Y2884170D01*
X230022Y2805328D01*
X230733Y2799029D01*
X232664Y2793542D01*
X235762Y2788666D01*
X239826Y2784551D01*
X244754Y2781452D01*
X250190Y2779572D01*
G37*
G36*
X1859432Y3484016D02*
G01*
X1870202Y3489909D01*
X1881936Y3498443D01*
X1892554Y3508400D01*
X1901850Y3519627D01*
X1909622Y3531920D01*
X1911756Y3536391D01*
X1859432Y3536391D01*
G37*
G36*
X759460Y3484016D02*
G01*
X770178Y3489909D01*
X781964Y3498443D01*
X792581Y3508400D01*
X801827Y3519627D01*
X809650Y3531920D01*
X811733Y3536391D01*
X759460Y3536391D01*
G37*
G36*
X656742Y3484016D02*
G01*
X656742Y3536391D01*
X604418Y3536391D01*
X606552Y3531920D01*
X614324Y3519627D01*
X623620Y3508400D01*
X634238Y3498443D01*
X645972Y3489909D01*
G37*
G36*
X1756714Y3484016D02*
G01*
X1756714Y3536391D01*
X1704441Y3536391D01*
X1706524Y3531920D01*
X1714347Y3519627D01*
X1723593Y3508400D01*
X1734210Y3498443D01*
X1745996Y3489909D01*
G37*
G36*
X1704441Y3639108D02*
G01*
X1756714Y3639108D01*
X1756714Y3691483D01*
X1745996Y3685590D01*
X1734210Y3677056D01*
X1723593Y3667099D01*
X1714347Y3655872D01*
X1706524Y3643579D01*
G37*
G36*
X604418Y3639108D02*
G01*
X656742Y3639108D01*
X656742Y3691483D01*
X645972Y3685590D01*
X634238Y3677056D01*
X623620Y3667099D01*
X614324Y3655872D01*
X606552Y3643579D01*
G37*
G36*
X1859432Y3639108D02*
G01*
X1911756Y3639108D01*
X1909622Y3643579D01*
X1901850Y3655872D01*
X1892554Y3667099D01*
X1881936Y3677056D01*
X1870202Y3685590D01*
X1859432Y3691483D01*
G37*
G36*
X759460Y3639108D02*
G01*
X811733Y3639108D01*
X809650Y3643579D01*
X801827Y3655872D01*
X792581Y3667099D01*
X781964Y3677056D01*
X770178Y3685590D01*
X759460Y3691483D01*
G37*

%LPD*%
D11*
X1320800Y2133600D02*
G01*
X1370431Y2133600D01*
X1436039Y2199208D01*
D12*
X1329410Y1562100D02*
G01*
X1375918Y1608607D01*
X1447800Y1608607D01*
X1231900Y1608607D02*
G01*
X1278407Y1562100D01*
X1329410Y1562100D01*
D11*
X1379473Y1986026D02*
G01*
X1574800Y1790700D01*
X1574800Y1231900D01*
X1689100Y1117600D01*
D13*
X1587500Y2070100D02*
G01*
X1765300Y2070100D01*
X1930400Y1905000D01*
X1993900Y1905000D01*
D11*
X1651000Y1257300D02*
G01*
X1663700Y1244600D01*
X1828800Y1244600D01*
D14*
X2042921Y797813D02*
G01*
X2042921Y898652D01*
X2425700Y1281429D01*
X2425700Y2603500D01*
D11*
X1407668Y2014220D02*
G01*
X1612900Y1809242D01*
X1612900Y1244600D01*
X1676400Y1181100D01*
D15*
X388000Y797933D02*
G01*
X388000Y908700D01*
X431800Y952500D01*
X1739900Y952500D01*
X1787999Y904400D01*
X1787999Y797933D01*
D14*
X755395Y1508290D02*
G01*
X855713Y1608607D01*
X1016000Y1608607D01*
X1447800Y1608607D02*
G01*
X1016000Y1608607D01*
D11*
X1351279Y1957831D02*
G01*
X1536700Y1772157D01*
X1536700Y1219200D01*
X1625600Y1130300D01*
X1436115Y2042668D02*
G01*
X1651000Y1827529D01*
X1651000Y1257300D01*
D14*
X355600Y1695602D02*
G01*
X428307Y1768309D01*
X565404Y1768309D01*
X643128Y797813D02*
G01*
X643128Y715771D01*
X673100Y685800D01*
X2015997Y685800D01*
X2042921Y712978D01*
X2042921Y797813D01*
D10*
X832998Y797935D02*
G01*
X838200Y803137D01*
X838200Y863600D01*
X812800Y889000D01*
X457200Y889000D01*
X444500Y876300D01*
X444500Y723900D01*
X419100Y698500D01*
X355600Y698500D01*
X330200Y723900D01*
X330200Y952500D01*
X406400Y1028700D01*
X1524000Y1028700D01*
D15*
X2075116Y1097216D02*
G01*
X2166556Y1188656D01*
X1787999Y904400D02*
G01*
X1836099Y952500D01*
X1930400Y952500D01*
X2075116Y1097216D01*
X1087998Y797933D02*
G01*
X1087998Y952500D01*
D11*
X1407772Y2227496D02*
G01*
X1453575Y2273300D01*
X1498600Y2273300D01*
X1549400Y2222500D01*
X1549400Y2108200D01*
X1587500Y2070100D01*
X1675399Y1182100D02*
G01*
X1689100Y1181100D01*
X1905000Y1181100D01*
X1625600Y1130300D02*
G01*
X1727200Y1028700D01*
X1739900Y1028700D01*
D10*
X1182997Y577664D02*
G01*
X1151061Y609600D01*
X1066800Y609600D01*
D14*
X755395Y1508252D02*
G01*
X755395Y1340104D01*
X749300Y1340104D01*
X749300Y1340002D02*
G01*
X670562Y1340002D01*
X670562Y1340002D02*
G01*
X606394Y1340002D01*
X606394Y1340002D02*
G01*
X455330Y1340002D01*
X455330Y1340002D02*
G01*
X392501Y1340002D01*
X392501Y1340002D02*
G01*
X330200Y1340002D01*
X565404Y1508252D02*
G01*
X565404Y1454404D01*
X565404Y1454404D02*
G01*
X565404Y1454404D01*
X533400Y1422400D01*
X533400Y1397000D01*
X533400Y1397000D02*
G01*
X533400Y1340104D01*
X565302Y1930400D02*
G01*
X605873Y1889828D01*
X766292Y1889828D01*
X766292Y1889828D02*
G01*
X826500Y1889828D01*
X826500Y1889828D02*
G01*
X886708Y1889828D01*
X886708Y1889828D02*
G01*
X967671Y1889828D01*
X565404Y1768347D02*
G01*
X565404Y1930400D01*
X325401Y2146300D02*
G01*
X354203Y2175101D01*
X354203Y2311400D01*
X159004Y2102104D02*
G01*
X203200Y2146300D01*
X325401Y2146300D01*
X2425700Y2603500D02*
G01*
X2425700Y2679700D01*
X2425700Y2679700D02*
G01*
X2425700Y2768600D01*
D11*
X1606395Y2019300D02*
G01*
X1587500Y2038195D01*
X1587500Y2070100D01*
X800100Y2177897D02*
G01*
X800100Y2057400D01*
X861126Y1996373D01*
X1109715Y1986015D02*
G01*
X1079500Y1955800D01*
X1028700Y1955800D01*
X988128Y1996371D01*
X861128Y1996371D01*
X1138003Y1957727D02*
G01*
X1097975Y1917700D01*
X1054100Y1917700D01*
X1026228Y1889828D01*
X967671Y1889828D01*
X1689100Y1117600D02*
G01*
X1701800Y1104900D01*
X1803400Y1104900D01*
X1194562Y1901164D02*
G01*
X1159408Y1866011D01*
X1159510Y1866137D02*
G01*
X1159510Y1824989D01*
X1181100Y1803400D01*
X1193800Y1803400D01*
X1166291Y1929432D02*
G01*
X1092200Y1855340D01*
X1092200Y1854200D01*
D10*
X1447800Y1261592D02*
G01*
X1443507Y1257300D01*
X1371600Y1257300D01*
X1231900Y1261592D02*
G01*
X1227607Y1257300D01*
X1155700Y1257300D01*
X1016000Y1261590D02*
G01*
X1011709Y1257300D01*
X939800Y1257300D01*
X939800Y1244600D01*
X2232992Y797935D02*
G01*
X2222456Y787400D01*
X2120900Y787400D01*
X1532996Y797935D02*
G01*
X1535163Y800100D01*
X1651000Y800100D01*
X293115Y577595D02*
G01*
X312420Y596900D01*
X342900Y596900D01*
X1693006Y577664D02*
G01*
X1724941Y609600D01*
X1752600Y609600D01*
X992888Y577595D02*
G01*
X960884Y609600D01*
X939800Y609600D01*
D14*
X1343004Y797933D02*
G01*
X1343004Y685800D01*
D15*
X295953Y3260910D02*
G01*
X295953Y3014936D01*
D11*
X1081427Y2227503D02*
G01*
X1028700Y2280231D01*
X1028700Y2349500D01*
X914400Y2463800D01*
X863600Y2463800D01*
X850900Y2844800D02*
G01*
X295907Y2844800D01*
D14*
X354329Y2311400D02*
G01*
X355600Y2463800D01*
X479552Y2587752D01*
X1008126Y2587752D01*
D11*
X565302Y1930400D02*
G01*
X565302Y2051202D01*
X673100Y2159000D01*
X673100Y2387600D01*
X774700Y2489200D01*
X295953Y3411583D02*
G01*
X373016Y3411583D01*
X419100Y3365500D01*
X419100Y2984500D01*
X457200Y2946400D01*
X774700Y2946400D01*
X1193800Y1790700D02*
G01*
X1016000Y1790700D01*
X1351279Y2283968D02*
G01*
X1386839Y2319528D01*
X1515871Y2319528D01*
X1612900Y2222500D01*
X1612900Y2197100D01*
X1322834Y2312415D02*
G01*
X1365250Y2354834D01*
X1544065Y2354834D01*
X1689100Y2209800D01*
X1689100Y2184400D01*
D15*
X2166556Y1188656D02*
G01*
X2298700Y1320800D01*
X2298700Y2654300D01*
X2108200Y2844800D01*
X1181100Y2844800D01*
X1008001Y2671701D01*
X1008001Y2587800D01*
D11*
X1294637Y2340607D02*
G01*
X1354330Y2400300D01*
X1562100Y2400300D01*
X1841500Y2120900D01*
X2006600Y2120900D01*
X1194562Y2340632D02*
G01*
X1189967Y2340632D01*
X1155700Y2374900D01*
X1155700Y2387600D01*
X1231900Y2463800D01*
X1371600Y2463800D01*
X1993900Y2336800D02*
G01*
X1739900Y2336800D01*
X1663700Y2413000D01*
X1294637Y1901174D02*
G01*
X1270000Y1876536D01*
X1270000Y1828800D01*
D17*
G01*
X2006600Y2349500D03*
G01*
X2006600Y2120900D03*
G01*
X2006600Y1663700D03*
G01*
X2006600Y1905000D03*
D18*
G01*
X800100Y2177897D03*
G01*
X800100Y2317902D03*
G36*
X525299Y1975401D02*
G01*
X605299Y1975401D01*
X605299Y1885398D01*
X525299Y1885398D01*
G37*
G36*
X385300Y1975401D02*
G01*
X465300Y1975401D01*
X465300Y1885398D01*
X385300Y1885398D01*
G37*
G01*
X355600Y1695602D03*
G01*
X355600Y1555597D03*
G01*
X330200Y1340002D03*
G01*
X330200Y1199997D03*
G01*
X749300Y1340002D03*
G01*
X749300Y1199997D03*
G01*
X533400Y1199997D03*
G01*
X533400Y1340002D03*
G36*
X1729432Y1966407D02*
G01*
X1786001Y1909838D01*
X1722361Y1846198D01*
X1665792Y1902767D01*
G37*
G36*
X1630438Y2065401D02*
G01*
X1687007Y2008832D01*
X1623367Y1945192D01*
X1566798Y2001761D01*
G37*
D20*
G01*
X295960Y3014929D03*
G01*
X295960Y2844749D03*
G36*
X339153Y3371248D02*
G01*
X252752Y3371248D01*
X252752Y3451895D01*
X339153Y3451895D01*
G37*
D21*
G01*
X295960Y3260928D03*
G36*
X424700Y2378900D02*
G01*
X424700Y2243899D01*
X283700Y2243899D01*
X283700Y2378900D01*
G37*
G36*
X489699Y2378900D02*
G01*
X489699Y2243899D01*
X630699Y2243899D01*
X630699Y2378900D01*
G37*
D23*
G01*
X1016000Y1608607D03*
G01*
X1016000Y1261592D03*
G01*
X1231900Y1608607D03*
G01*
X1231900Y1261592D03*
G01*
X1447800Y1608607D03*
G01*
X1447800Y1261592D03*
G36*
X508000Y337820D02*
G01*
X807999Y337820D01*
X807999Y37820D01*
X508000Y37820D01*
G37*
G36*
X1107998Y337820D02*
G01*
X1407998Y337820D01*
X1407998Y37820D01*
X1107998Y37820D01*
G37*
G36*
X1707997Y337820D02*
G01*
X2007996Y337820D01*
X2007996Y37820D01*
X1707997Y37820D01*
G37*
D25*
G01*
X292988Y577672D03*
G01*
X483006Y577672D03*
G01*
X388010Y797915D03*
G01*
X832993Y797915D03*
G01*
X643001Y797915D03*
G01*
X737996Y577672D03*
G01*
X992987Y577672D03*
G01*
X1183004Y577672D03*
G01*
X1088009Y797915D03*
G01*
X1532991Y797915D03*
G01*
X1342999Y797915D03*
G01*
X1437995Y577672D03*
G01*
X1693011Y577672D03*
G01*
X1883003Y577672D03*
G01*
X1788007Y797915D03*
G01*
X2232990Y797915D03*
G01*
X2042998Y797915D03*
G01*
X2137994Y577672D03*
G36*
X908601Y1887804D02*
G01*
X969695Y1948898D01*
X1026723Y1891870D01*
X965629Y1830776D01*
G37*
G36*
X859104Y1937301D02*
G01*
X920198Y1998395D01*
X863170Y2055423D01*
X802076Y1994329D01*
G37*
D27*
G01*
X565404Y1768297D03*
G01*
X755395Y1768297D03*
G01*
X755395Y1508277D03*
G01*
X660400Y1508277D03*
G01*
X565404Y1508277D03*
G36*
X993434Y2055281D02*
G01*
X1040457Y2102304D01*
X1056297Y2086465D01*
X1009274Y2039442D01*
G37*
G36*
X1021720Y2026996D02*
G01*
X1068740Y2074019D01*
X1084579Y2058179D01*
X1037559Y2011156D01*
G37*
G36*
X1050005Y1998710D02*
G01*
X1097028Y2045733D01*
X1112865Y2029896D01*
X1065842Y1982873D01*
G37*
G36*
X1078288Y1970427D02*
G01*
X1125311Y2017448D01*
X1141148Y2001611D01*
X1094127Y1954588D01*
G37*
G36*
X1106573Y1942142D02*
G01*
X1153596Y1989165D01*
X1169433Y1973328D01*
X1122410Y1926305D01*
G37*
G36*
X1134856Y1913859D02*
G01*
X1181879Y1960879D01*
X1197719Y1945040D01*
X1150696Y1898020D01*
G37*
G36*
X1163142Y1885574D02*
G01*
X1210165Y1932597D01*
X1226004Y1916757D01*
X1178981Y1869734D01*
G37*
G36*
X1310218Y1869734D02*
G01*
X1326057Y1885574D01*
X1279034Y1932597D01*
X1263195Y1916757D01*
G37*
G36*
X1338503Y1898020D02*
G01*
X1354343Y1913859D01*
X1307320Y1960879D01*
X1291480Y1945040D01*
G37*
G36*
X1366789Y1926305D02*
G01*
X1382626Y1942142D01*
X1335603Y1989165D01*
X1319766Y1973328D01*
G37*
G36*
X1395072Y1954588D02*
G01*
X1410911Y1970427D01*
X1363888Y2017448D01*
X1348051Y2001611D01*
G37*
G36*
X1423357Y1982873D02*
G01*
X1439194Y1998710D01*
X1392171Y2045733D01*
X1376334Y2029896D01*
G37*
G36*
X1451640Y2011156D02*
G01*
X1467479Y2026996D01*
X1420459Y2074019D01*
X1404620Y2058179D01*
G37*
G36*
X1479925Y2039442D02*
G01*
X1495765Y2055281D01*
X1448742Y2102304D01*
X1432902Y2086465D01*
G37*
G36*
X1479925Y2202357D02*
G01*
X1432902Y2155334D01*
X1448742Y2139495D01*
X1495765Y2186518D01*
G37*
G36*
X1451640Y2230643D02*
G01*
X1404620Y2183620D01*
X1420459Y2167780D01*
X1467479Y2214803D01*
G37*
G36*
X1423357Y2258926D02*
G01*
X1376334Y2211903D01*
X1392171Y2196066D01*
X1439194Y2243089D01*
G37*
G36*
X1395072Y2287211D02*
G01*
X1348051Y2240188D01*
X1363888Y2224351D01*
X1410911Y2271372D01*
G37*
G36*
X1366789Y2315494D02*
G01*
X1319766Y2268471D01*
X1335603Y2252634D01*
X1382626Y2299657D01*
G37*
G36*
X1338503Y2343779D02*
G01*
X1291480Y2296759D01*
X1307320Y2280920D01*
X1354343Y2327940D01*
G37*
G36*
X1310218Y2372065D02*
G01*
X1263195Y2325042D01*
X1279034Y2309202D01*
X1326057Y2356225D01*
G37*
G36*
X1210165Y2309202D02*
G01*
X1226004Y2325042D01*
X1178981Y2372065D01*
X1163142Y2356225D01*
G37*
G36*
X1181879Y2280920D02*
G01*
X1197719Y2296759D01*
X1150696Y2343779D01*
X1134856Y2327940D01*
G37*
G36*
X1153596Y2252634D02*
G01*
X1169433Y2268471D01*
X1122410Y2315494D01*
X1106573Y2299657D01*
G37*
G36*
X1125311Y2224351D02*
G01*
X1141148Y2240188D01*
X1094127Y2287211D01*
X1078288Y2271372D01*
G37*
G36*
X1097028Y2196066D02*
G01*
X1112865Y2211903D01*
X1065842Y2258926D01*
X1050005Y2243089D01*
G37*
G36*
X1068740Y2167780D02*
G01*
X1084579Y2183620D01*
X1037559Y2230643D01*
X1021720Y2214803D01*
G37*
G36*
X1040457Y2139495D02*
G01*
X1056297Y2155334D01*
X1009274Y2202357D01*
X993434Y2186518D01*
G37*
G36*
X1244600Y2311819D02*
G01*
X1435519Y2120900D01*
X1244600Y1929980D01*
X1053680Y2120900D01*
G37*
G36*
X2132949Y1124811D02*
G01*
X2037488Y1029350D01*
X1937786Y1129052D01*
X2033247Y1224513D01*
G37*
G36*
X2178911Y1078849D02*
G01*
X2083450Y983388D01*
X2183152Y883686D01*
X2278613Y979147D01*
G37*
G36*
X2272649Y1264511D02*
G01*
X2177188Y1169050D01*
X2077486Y1268752D01*
X2172947Y1364213D01*
G37*
G36*
X2318611Y1218549D02*
G01*
X2223150Y1123088D01*
X2322852Y1023386D01*
X2418313Y1118847D01*
G37*
D31*
G01*
X1508074Y2587752D03*
G01*
X1008075Y2587752D03*
D32*
G01*
X708075Y3587750D03*
G01*
X1808073Y3587750D03*
D33*
G01*
X208000Y3787800D03*
G01*
X2307996Y3787800D03*
G01*
X208000Y187807D03*
G01*
X2307996Y187807D03*
D16*
G01*
X342900Y596900D03*
G01*
X939800Y609600D03*
G01*
X1752600Y609600D03*
G01*
X1651000Y800100D03*
G01*
X2120900Y787400D03*
G01*
X1524000Y1028700D03*
G01*
X939800Y1244600D03*
G01*
X1155700Y1257300D03*
G01*
X1371600Y1257300D03*
G01*
X1092200Y1854200D03*
G01*
X1193800Y1803400D03*
G01*
X1270000Y1828800D03*
G01*
X1016000Y1790700D03*
G01*
X1828800Y1244600D03*
G01*
X1905000Y1181100D03*
G01*
X1803400Y1104900D03*
G01*
X1739900Y1028700D03*
G01*
X1689100Y2184400D03*
G01*
X1612900Y2197100D03*
G01*
X1587500Y2070100D03*
G01*
X2425700Y2768600D03*
G01*
X2425700Y2679700D03*
G01*
X2425700Y2603500D03*
G01*
X159004Y2102104D03*
G01*
X203200Y2146300D03*
G01*
X264566Y2146300D03*
G01*
X325399Y2146300D03*
G01*
X392506Y1340002D03*
G01*
X455320Y1340002D03*
G01*
X606399Y1340002D03*
G01*
X670560Y1340002D03*
G01*
X565404Y1454404D03*
G01*
X533400Y1397000D03*
G01*
X826490Y1889836D03*
G01*
X886713Y1889836D03*
G01*
X766292Y1889836D03*
G01*
X800100Y596900D03*
G01*
X1854200Y596900D03*
G01*
X1066800Y609600D03*
G01*
X1564411Y464820D03*
G01*
X1244600Y2247900D03*
G01*
X1117600Y2133600D03*
G01*
X1244600Y1993900D03*
G01*
X1320800Y2146300D03*
G01*
X347573Y2072233D03*
G01*
X349453Y2006371D03*
G01*
X767410Y1201318D03*
G01*
X748995Y1107262D03*
G01*
X576173Y795426D03*
G01*
X713206Y795426D03*
G01*
X1490573Y163093D03*
G01*
X1616252Y161747D03*
G01*
X1493265Y72186D03*
G01*
X1612900Y68173D03*
G01*
X893698Y168859D03*
G01*
X984961Y170738D03*
G01*
X985901Y76200D03*
G01*
X894181Y79019D03*
G01*
X427558Y1101140D03*
G01*
X643940Y1099718D03*
G01*
X327532Y1057452D03*
G01*
X259359Y987247D03*
G01*
X247980Y870965D03*
G01*
X247980Y737260D03*
G01*
X465886Y1547393D03*
G01*
X397713Y1548053D03*
G01*
X284759Y1547393D03*
G01*
X193167Y1548053D03*
G01*
X664159Y2696641D03*
G01*
X659942Y2494838D03*
G01*
X583742Y2494838D03*
G01*
X566318Y2698521D03*
G01*
X892759Y2316581D03*
G01*
X800582Y2405938D03*
G01*
X1358900Y1397000D03*
G01*
X1155700Y1409700D03*
G01*
X896620Y1510029D03*
G01*
X890270Y1383029D03*
G01*
X2376170Y1062989D03*
G01*
X939800Y2108200D03*
G01*
X863600Y2463800D03*
G01*
X850900Y2844800D03*
G01*
X774700Y2489200D03*
G01*
X774700Y2946400D03*
G01*
X1371600Y2463800D03*
G01*
X1663700Y2413000D03*
G01*
X1329410Y1562100D03*
G01*
X660400Y1435100D03*
G01*
X1778000Y1663700D03*
G01*
X1778000Y1549400D03*
G01*
X1778000Y1447800D03*
M02*
