G04 Layer: TopSolderMaskLayer*
G04 EasyEDA v6.4.25, 2021-10-30T01:07:18+08:00*
G04 7f02064591534d1f9d428ba05e81f3eb,34bb6763e28e4bbdb854ef51fa08daf4,10*
G04 Gerber Generator version 0.2*
G04 Scale: 100 percent, Rotated: No, Reflected: No *
G04 Dimensions in millimeters *
G04 leading zeros omitted , absolute positions ,4 integer and 5 decimal *
%FSLAX45Y45*%
%MOMM*%

%ADD15C,0.5000*%
%ADD46C,1.7032*%
%ADD49C,2.6016*%
%ADD50C,1.9016*%
%ADD62C,3.7032*%

%LPD*%
D15*
X647700Y800100D02*
G01*
X647700Y723900D01*
X685800Y685800D01*
X2006600Y685800D01*
X2044700Y723900D01*
X2044700Y889000D01*
X2425700Y1270000D01*
X2425700Y1460500D01*
X2425700Y2768600D01*
X2166556Y1188656D02*
G01*
X2298700Y1320800D01*
X2298700Y2654300D01*
X2108200Y2844800D01*
X1181100Y2844800D01*
X1008001Y2671701D01*
X1008001Y2587800D01*
X2075116Y1097216D02*
G01*
X2166556Y1188656D01*
X1787999Y904400D02*
G01*
X1836099Y952500D01*
X1930400Y952500D01*
X2075116Y1097216D01*
X1087998Y797933D02*
G01*
X1087998Y952500D01*
X388000Y797933D02*
G01*
X388000Y908700D01*
X431800Y952500D01*
X1739900Y952500D01*
X1787999Y904400D01*
X1787999Y797933D01*
D46*
G01*
X2006600Y2349500D03*
G01*
X2006600Y2120900D03*
G01*
X2006600Y1663700D03*
G01*
X2006600Y1905000D03*
G36*
X750062Y2132837D02*
G01*
X750062Y2223007D01*
X850137Y2223007D01*
X850137Y2132837D01*
G37*
G36*
X750062Y2272792D02*
G01*
X750062Y2362962D01*
X850137Y2362962D01*
X850137Y2272792D01*
G37*
G36*
X520192Y1880362D02*
G01*
X520192Y1980437D01*
X610362Y1980437D01*
X610362Y1880362D01*
G37*
G36*
X380237Y1880362D02*
G01*
X380237Y1980437D01*
X470407Y1980437D01*
X470407Y1880362D01*
G37*
G36*
X305562Y1650492D02*
G01*
X305562Y1740662D01*
X405637Y1740662D01*
X405637Y1650492D01*
G37*
G36*
X305562Y1510537D02*
G01*
X305562Y1600707D01*
X405637Y1600707D01*
X405637Y1510537D01*
G37*
G36*
X280162Y1294892D02*
G01*
X280162Y1385062D01*
X380237Y1385062D01*
X380237Y1294892D01*
G37*
G36*
X280162Y1154937D02*
G01*
X280162Y1245107D01*
X380237Y1245107D01*
X380237Y1154937D01*
G37*
G36*
X699262Y1294892D02*
G01*
X699262Y1385062D01*
X799337Y1385062D01*
X799337Y1294892D01*
G37*
G36*
X699262Y1154937D02*
G01*
X699262Y1245107D01*
X799337Y1245107D01*
X799337Y1154937D01*
G37*
G36*
X483362Y1154937D02*
G01*
X483362Y1245107D01*
X583437Y1245107D01*
X583437Y1154937D01*
G37*
G36*
X483362Y1294892D02*
G01*
X483362Y1385062D01*
X583437Y1385062D01*
X583437Y1294892D01*
G37*
G36*
X1722373Y1838960D02*
G01*
X1658620Y1902713D01*
X1729486Y1973579D01*
X1793239Y1909826D01*
G37*
G36*
X1623313Y1938020D02*
G01*
X1559560Y2001773D01*
X1630426Y2072639D01*
X1694179Y2008886D01*
G37*
D49*
G01*
X1508074Y2587752D03*
G01*
X1008075Y2587752D03*
D50*
G01*
X708075Y3587750D03*
G01*
X1808073Y3587750D03*
G36*
X250952Y2969768D02*
G01*
X250952Y3059937D01*
X341121Y3059937D01*
X341121Y2969768D01*
G37*
G36*
X250952Y2799587D02*
G01*
X250952Y2889757D01*
X341121Y2889757D01*
X341121Y2799587D01*
G37*
G36*
X247650Y3366262D02*
G01*
X247650Y3456939D01*
X344170Y3456939D01*
X344170Y3366262D01*
G37*
G36*
X247650Y3215639D02*
G01*
X247650Y3306318D01*
X344170Y3306318D01*
X344170Y3215639D01*
G37*
G36*
X278637Y2238755D02*
G01*
X278637Y2384044D01*
X429768Y2384044D01*
X429768Y2238755D01*
G37*
G36*
X484631Y2238755D02*
G01*
X484631Y2384044D01*
X635762Y2384044D01*
X635762Y2238755D01*
G37*
G36*
X950976Y1533397D02*
G01*
X950976Y1683765D01*
X1081023Y1683765D01*
X1081023Y1533397D01*
G37*
G36*
X950976Y1186434D02*
G01*
X950976Y1336802D01*
X1081023Y1336802D01*
X1081023Y1186434D01*
G37*
G36*
X1166876Y1533397D02*
G01*
X1166876Y1683765D01*
X1296923Y1683765D01*
X1296923Y1533397D01*
G37*
G36*
X1166876Y1186434D02*
G01*
X1166876Y1336802D01*
X1296923Y1336802D01*
X1296923Y1186434D01*
G37*
G36*
X1382776Y1533397D02*
G01*
X1382776Y1683765D01*
X1512823Y1683765D01*
X1512823Y1533397D01*
G37*
G36*
X1382776Y1186434D02*
G01*
X1382776Y1336802D01*
X1512823Y1336802D01*
X1512823Y1186434D01*
G37*
G36*
X497839Y27686D02*
G01*
X497839Y347979D01*
X818134Y347979D01*
X818134Y27686D01*
G37*
G36*
X1097787Y27686D02*
G01*
X1097787Y347979D01*
X1418081Y347979D01*
X1418081Y27686D01*
G37*
G36*
X1697736Y27686D02*
G01*
X1697736Y347979D01*
X2018284Y347979D01*
X2018284Y27686D01*
G37*
G36*
X261365Y520700D02*
G01*
X261365Y634745D01*
X324612Y634745D01*
X324612Y520700D01*
G37*
G36*
X451357Y520700D02*
G01*
X451357Y634745D01*
X514604Y634745D01*
X514604Y520700D01*
G37*
G36*
X356362Y740918D02*
G01*
X356362Y854963D01*
X419607Y854963D01*
X419607Y740918D01*
G37*
G36*
X801370Y740918D02*
G01*
X801370Y854963D01*
X864615Y854963D01*
X864615Y740918D01*
G37*
G36*
X611378Y740918D02*
G01*
X611378Y854963D01*
X674623Y854963D01*
X674623Y740918D01*
G37*
G36*
X706373Y520700D02*
G01*
X706373Y634745D01*
X769620Y634745D01*
X769620Y520700D01*
G37*
G36*
X961389Y520700D02*
G01*
X961389Y634745D01*
X1024636Y634745D01*
X1024636Y520700D01*
G37*
G36*
X1151381Y520700D02*
G01*
X1151381Y634745D01*
X1214628Y634745D01*
X1214628Y520700D01*
G37*
G36*
X1056386Y740918D02*
G01*
X1056386Y854963D01*
X1119631Y854963D01*
X1119631Y740918D01*
G37*
G36*
X1501394Y740918D02*
G01*
X1501394Y854963D01*
X1564639Y854963D01*
X1564639Y740918D01*
G37*
G36*
X1311402Y740918D02*
G01*
X1311402Y854963D01*
X1374647Y854963D01*
X1374647Y740918D01*
G37*
G36*
X1406397Y520700D02*
G01*
X1406397Y634745D01*
X1469644Y634745D01*
X1469644Y520700D01*
G37*
G36*
X1661413Y520700D02*
G01*
X1661413Y634745D01*
X1724660Y634745D01*
X1724660Y520700D01*
G37*
G36*
X1851405Y520700D02*
G01*
X1851405Y634745D01*
X1914652Y634745D01*
X1914652Y520700D01*
G37*
G36*
X1756410Y740918D02*
G01*
X1756410Y854963D01*
X1819655Y854963D01*
X1819655Y740918D01*
G37*
G36*
X2201418Y740918D02*
G01*
X2201418Y854963D01*
X2264663Y854963D01*
X2264663Y740918D01*
G37*
G36*
X2011426Y740918D02*
G01*
X2011426Y854963D01*
X2074671Y854963D01*
X2074671Y740918D01*
G37*
G36*
X2106421Y520700D02*
G01*
X2106421Y634745D01*
X2169668Y634745D01*
X2169668Y520700D01*
G37*
G36*
X965707Y1823465D02*
G01*
X901445Y1887728D01*
X969771Y1956054D01*
X1034034Y1891792D01*
G37*
G36*
X859028Y1930145D02*
G01*
X794765Y1994407D01*
X863092Y2062734D01*
X927354Y1998471D01*
G37*
G36*
X530352Y1713229D02*
G01*
X530352Y1823465D01*
X600455Y1823465D01*
X600455Y1713229D01*
G37*
G36*
X720344Y1713229D02*
G01*
X720344Y1823465D01*
X790447Y1823465D01*
X790447Y1713229D01*
G37*
G36*
X720344Y1453134D02*
G01*
X720344Y1563370D01*
X790447Y1563370D01*
X790447Y1453134D01*
G37*
G36*
X625347Y1453134D02*
G01*
X625347Y1563370D01*
X695452Y1563370D01*
X695452Y1453134D01*
G37*
G36*
X530352Y1453134D02*
G01*
X530352Y1563370D01*
X600455Y1563370D01*
X600455Y1453134D01*
G37*
G36*
X1009395Y2032254D02*
G01*
X986281Y2055368D01*
X1040384Y2109470D01*
X1063497Y2086355D01*
G37*
G36*
X1037589Y2004060D02*
G01*
X1014476Y2026920D01*
X1068831Y2081276D01*
X1091692Y2058162D01*
G37*
G36*
X1065784Y1975612D02*
G01*
X1042923Y1998726D01*
X1097026Y2052828D01*
X1120139Y2029968D01*
G37*
G36*
X1094231Y1947418D02*
G01*
X1071118Y1970531D01*
X1125220Y2024634D01*
X1148334Y2001520D01*
G37*
G36*
X1122426Y1919223D02*
G01*
X1099312Y1942084D01*
X1153668Y1996439D01*
X1176528Y1973326D01*
G37*
G36*
X1150620Y1890776D02*
G01*
X1127760Y1913889D01*
X1181862Y1967992D01*
X1204976Y1945131D01*
G37*
G36*
X1179068Y1862581D02*
G01*
X1155954Y1885695D01*
X1210055Y1939797D01*
X1233170Y1916684D01*
G37*
G36*
X1310131Y1862581D02*
G01*
X1256029Y1916684D01*
X1279144Y1939797D01*
X1333245Y1885695D01*
G37*
G36*
X1338579Y1890776D02*
G01*
X1284223Y1945131D01*
X1307337Y1967992D01*
X1361439Y1913889D01*
G37*
G36*
X1366773Y1919223D02*
G01*
X1312671Y1973326D01*
X1335531Y1996439D01*
X1389887Y1942084D01*
G37*
G36*
X1394968Y1947418D02*
G01*
X1340865Y2001520D01*
X1363979Y2024634D01*
X1418081Y1970531D01*
G37*
G36*
X1423415Y1975612D02*
G01*
X1369060Y2029968D01*
X1392173Y2052828D01*
X1446276Y1998726D01*
G37*
G36*
X1451610Y2004060D02*
G01*
X1397507Y2058162D01*
X1420368Y2081276D01*
X1474723Y2026920D01*
G37*
G36*
X1479804Y2032254D02*
G01*
X1425702Y2086355D01*
X1448815Y2109470D01*
X1502918Y2055368D01*
G37*
G36*
X1448815Y2132329D02*
G01*
X1425702Y2155444D01*
X1479804Y2209545D01*
X1502918Y2186431D01*
G37*
G36*
X1420368Y2160523D02*
G01*
X1397507Y2183637D01*
X1451610Y2237739D01*
X1474723Y2214879D01*
G37*
G36*
X1392173Y2188971D02*
G01*
X1369060Y2211831D01*
X1423415Y2266187D01*
X1446276Y2243073D01*
G37*
G36*
X1363979Y2217165D02*
G01*
X1340865Y2240279D01*
X1394968Y2294381D01*
X1418081Y2271268D01*
G37*
G36*
X1335531Y2245360D02*
G01*
X1312671Y2268473D01*
X1366773Y2322576D01*
X1389887Y2299715D01*
G37*
G36*
X1307337Y2273807D02*
G01*
X1284223Y2296668D01*
X1338579Y2351023D01*
X1361439Y2327910D01*
G37*
G36*
X1279144Y2302002D02*
G01*
X1256029Y2325115D01*
X1310131Y2379218D01*
X1333245Y2356104D01*
G37*
G36*
X1210055Y2302002D02*
G01*
X1155954Y2356104D01*
X1179068Y2379218D01*
X1233170Y2325115D01*
G37*
G36*
X1181862Y2273807D02*
G01*
X1127760Y2327910D01*
X1150620Y2351023D01*
X1204976Y2296668D01*
G37*
G36*
X1153668Y2245360D02*
G01*
X1099312Y2299715D01*
X1122426Y2322576D01*
X1176528Y2268473D01*
G37*
G36*
X1125220Y2217165D02*
G01*
X1071118Y2271268D01*
X1094231Y2294381D01*
X1148334Y2240279D01*
G37*
G36*
X1097026Y2188971D02*
G01*
X1042923Y2243073D01*
X1065784Y2266187D01*
X1120139Y2211831D01*
G37*
G36*
X1068831Y2160523D02*
G01*
X1014476Y2214879D01*
X1037589Y2237739D01*
X1091692Y2183637D01*
G37*
G36*
X1040384Y2132329D02*
G01*
X986281Y2186431D01*
X1009395Y2209545D01*
X1063497Y2155444D01*
G37*
G36*
X1244600Y1922779D02*
G01*
X1046479Y2120900D01*
X1244600Y2319020D01*
X1442720Y2120900D01*
G37*
G36*
X2037587Y1022095D02*
G01*
X1930654Y1129029D01*
X2033270Y1231645D01*
X2140204Y1124712D01*
G37*
G36*
X2183129Y876554D02*
G01*
X2076195Y983487D01*
X2178812Y1086104D01*
X2285745Y979170D01*
G37*
G36*
X2177287Y1161795D02*
G01*
X2070354Y1268729D01*
X2172970Y1371345D01*
X2279904Y1264412D01*
G37*
G36*
X2322829Y1016254D02*
G01*
X2215895Y1123187D01*
X2318512Y1225804D01*
X2425445Y1118870D01*
G37*
D62*
G01*
X208000Y3787800D03*
G01*
X2307996Y3787800D03*
G01*
X208000Y187807D03*
G01*
X2307996Y187807D03*
M02*
