G04 Layer: BottomSilkLayer*
G04 EasyEDA v6.4.25, 2021-10-30T01:07:18+08:00*
G04 7f02064591534d1f9d428ba05e81f3eb,34bb6763e28e4bbdb854ef51fa08daf4,10*
G04 Gerber Generator version 0.2*
G04 Scale: 100 percent, Rotated: No, Reflected: No *
G04 Dimensions in millimeters *
G04 leading zeros omitted , absolute positions ,4 integer and 5 decimal *
%FSLAX45Y45*%
%MOMM*%

%ADD10C,0.2540*%
%ADD11C,0.2000*%
%ADD12C,0.3000*%
%ADD43C,0.1524*%
%ADD45C,0.2032*%

%LPD*%
G36*
X820216Y3430270D02*
G01*
X811682Y3429914D01*
X794562Y3427780D01*
X770788Y3424072D01*
X759206Y3420973D01*
X745947Y3416655D01*
X732637Y3411677D01*
X697839Y3396386D01*
X717804Y3371697D01*
X725474Y3363468D01*
X733094Y3356203D01*
X739749Y3350869D01*
X742442Y3349193D01*
X748690Y3346602D01*
X754837Y3345586D01*
X761441Y3346246D01*
X772566Y3349599D01*
X777697Y3350615D01*
X783894Y3351529D01*
X798830Y3352952D01*
X815441Y3353663D01*
X830275Y3353612D01*
X842619Y3353003D01*
X854202Y3351834D01*
X864971Y3350209D01*
X874725Y3348126D01*
X883259Y3345637D01*
X887069Y3344214D01*
X892149Y3341878D01*
X897940Y3338880D01*
X904189Y3335274D01*
X917295Y3326790D01*
X923747Y3322167D01*
X935532Y3312820D01*
X943864Y3305048D01*
X951687Y3296665D01*
X958951Y3287572D01*
X965758Y3277768D01*
X968959Y3272637D01*
X974953Y3261766D01*
X981303Y3248609D01*
X986688Y3236061D01*
X988720Y3230524D01*
X990244Y3225292D01*
X991463Y3220059D01*
X992276Y3214674D01*
X992784Y3208883D01*
X993038Y3202584D01*
X992835Y3187395D01*
X992073Y3169615D01*
X990904Y3154984D01*
X989126Y3142742D01*
X986485Y3131820D01*
X984758Y3126536D01*
X980287Y3115716D01*
X974344Y3103676D01*
X968756Y3093821D01*
X962304Y3084169D01*
X955192Y3074822D01*
X947521Y3065932D01*
X939342Y3057702D01*
X935177Y3053842D01*
X926642Y3046882D01*
X917600Y3040430D01*
X907999Y3034436D01*
X898144Y3029102D01*
X888339Y3024530D01*
X878789Y3020822D01*
X869086Y3017977D01*
X858926Y3015742D01*
X848614Y3014116D01*
X838047Y3013151D01*
X827125Y3012846D01*
X815695Y3013202D01*
X802487Y3014218D01*
X788009Y3015742D01*
X775004Y3017418D01*
X765048Y3019044D01*
X758952Y3020263D01*
X756158Y3020364D01*
X753364Y3019958D01*
X750316Y3018993D01*
X746963Y3017316D01*
X743204Y3014878D01*
X738886Y3011678D01*
X732944Y3006648D01*
X997864Y3006648D01*
X1021537Y3039516D01*
X1030986Y3052165D01*
X1032611Y3054045D01*
X1038047Y3047085D01*
X1066749Y3006648D01*
X732944Y3006648D01*
X721664Y2996285D01*
X705459Y2980486D01*
X662432Y2937865D01*
X1306423Y2940862D01*
X1352092Y2962402D01*
X1359916Y2966466D01*
X1374495Y2974848D01*
X1386382Y2982671D01*
X1390853Y2986074D01*
X1394002Y2989021D01*
X1405890Y3001670D01*
X1355750Y3052064D01*
X1340205Y3067050D01*
X1327810Y3078429D01*
X1323289Y3082290D01*
X1320088Y3084728D01*
X1318412Y3085592D01*
X1316837Y3083153D01*
X1315516Y3076549D01*
X1314653Y3066796D01*
X1314348Y3054858D01*
X1314348Y3024124D01*
X1293977Y3018028D01*
X1289253Y3016808D01*
X1283563Y3015640D01*
X1270203Y3013710D01*
X1255623Y3012389D01*
X1241552Y3011932D01*
X1234084Y3012135D01*
X1226312Y3012694D01*
X1218387Y3013608D01*
X1210411Y3014827D01*
X1202537Y3016402D01*
X1194917Y3018231D01*
X1187653Y3020314D01*
X1180846Y3022600D01*
X1174597Y3025190D01*
X1167841Y3028442D01*
X1153566Y3036417D01*
X1139748Y3045460D01*
X1133551Y3050082D01*
X1128115Y3054553D01*
X1120495Y3061868D01*
X1113028Y3070199D01*
X1105916Y3079394D01*
X1099159Y3089351D01*
X1092911Y3099917D01*
X1087221Y3110941D01*
X1081125Y3124301D01*
X1076655Y3135833D01*
X1074978Y3141218D01*
X1073607Y3146501D01*
X1072540Y3151835D01*
X1071118Y3163112D01*
X1070559Y3176066D01*
X1070508Y3191205D01*
X1071118Y3204464D01*
X1071727Y3210306D01*
X1072642Y3215792D01*
X1073810Y3221228D01*
X1075385Y3226612D01*
X1077315Y3232200D01*
X1079652Y3238144D01*
X1085850Y3251758D01*
X1109065Y3298342D01*
X1086916Y3320948D01*
X1077874Y3329686D01*
X1069594Y3336848D01*
X1063040Y3341725D01*
X1059129Y3343503D01*
X1056132Y3342182D01*
X1052169Y3338576D01*
X1047800Y3333242D01*
X1043533Y3326688D01*
X1033627Y3309924D01*
X1025601Y3322777D01*
X1020368Y3329787D01*
X1012088Y3339439D01*
X1001928Y3350412D01*
X990955Y3361436D01*
X986790Y3365347D01*
X977341Y3373272D01*
X966724Y3381197D01*
X955344Y3388817D01*
X943610Y3395929D01*
X931824Y3402279D01*
X920648Y3407511D01*
X908862Y3412337D01*
X896467Y3416858D01*
X884072Y3420872D01*
X872388Y3424123D01*
X862076Y3426510D01*
X851255Y3428085D01*
X838098Y3429406D01*
G37*
G36*
X1275181Y3429660D02*
G01*
X1233474Y3429304D01*
X1224940Y3428593D01*
X1205331Y3426256D01*
X1195933Y3424834D01*
X1190904Y3423818D01*
X1177848Y3420059D01*
X1162202Y3414522D01*
X1145844Y3407867D01*
X1130401Y3400704D01*
X1115720Y3392830D01*
X1109014Y3388918D01*
X1097889Y3381603D01*
X1093876Y3378454D01*
X1091082Y3375812D01*
X1080973Y3364382D01*
X1131062Y3313937D01*
X1146556Y3298901D01*
X1158900Y3287522D01*
X1166571Y3281222D01*
X1168247Y3280359D01*
X1169771Y3282797D01*
X1171041Y3289452D01*
X1171905Y3299358D01*
X1172260Y3321405D01*
X1172565Y3329076D01*
X1173226Y3334816D01*
X1174496Y3339033D01*
X1176477Y3342081D01*
X1179423Y3344367D01*
X1183487Y3346297D01*
X1188821Y3348228D01*
X1192936Y3349396D01*
X1198372Y3350463D01*
X1212240Y3352241D01*
X1228547Y3353409D01*
X1245362Y3353714D01*
X1257808Y3353358D01*
X1269695Y3352495D01*
X1280871Y3351072D01*
X1291082Y3349244D01*
X1300226Y3346907D01*
X1308150Y3344214D01*
X1313230Y3341878D01*
X1318971Y3338880D01*
X1325219Y3335274D01*
X1338326Y3326790D01*
X1344828Y3322167D01*
X1356614Y3312820D01*
X1364945Y3305048D01*
X1372768Y3296615D01*
X1376476Y3292195D01*
X1383487Y3282746D01*
X1390040Y3272536D01*
X1396085Y3261614D01*
X1402181Y3248914D01*
X1407363Y3236671D01*
X1409395Y3231083D01*
X1411071Y3225698D01*
X1412443Y3220415D01*
X1413510Y3215030D01*
X1414322Y3209442D01*
X1415237Y3197148D01*
X1415491Y3182467D01*
X1415237Y3167329D01*
X1414881Y3160826D01*
X1414272Y3154883D01*
X1413408Y3149295D01*
X1412240Y3143859D01*
X1410716Y3138474D01*
X1408836Y3132886D01*
X1403705Y3120593D01*
X1396492Y3105658D01*
X1377492Y3067558D01*
X1399641Y3045002D01*
X1408684Y3036265D01*
X1416964Y3029051D01*
X1423517Y3024225D01*
X1427480Y3022447D01*
X1428953Y3023057D01*
X1431036Y3024733D01*
X1433626Y3027375D01*
X1439926Y3035198D01*
X1447038Y3045510D01*
X1454302Y3057550D01*
X1461770Y3071215D01*
X1468678Y3085134D01*
X1474165Y3097479D01*
X1477264Y3106013D01*
X1479448Y3114598D01*
X1481582Y3124962D01*
X1483512Y3136493D01*
X1485138Y3148584D01*
X1486357Y3160623D01*
X1487119Y3172561D01*
X1487373Y3185312D01*
X1487119Y3198164D01*
X1486408Y3210712D01*
X1485290Y3222447D01*
X1483766Y3232912D01*
X1481277Y3243884D01*
X1477365Y3257651D01*
X1472742Y3271418D01*
X1467967Y3283407D01*
X1465732Y3288233D01*
X1460195Y3298393D01*
X1453032Y3310432D01*
X1445107Y3322929D01*
X1437386Y3334308D01*
X1419606Y3359302D01*
X1824837Y3359302D01*
X1824837Y3427628D01*
X1389380Y3429558D01*
G37*
G36*
X829259Y3326231D02*
G01*
X812850Y3325876D01*
X798677Y3324758D01*
X786536Y3323386D01*
X777748Y3321761D01*
X774954Y3320999D01*
X773480Y3320237D01*
X772718Y3318408D01*
X773226Y3316224D01*
X774903Y3313836D01*
X777646Y3311651D01*
X782370Y3309975D01*
X789533Y3309061D01*
X798169Y3309010D01*
X812546Y3310382D01*
X818337Y3310534D01*
X824484Y3310382D01*
X830935Y3309874D01*
X837590Y3309010D01*
X844397Y3307842D01*
X851153Y3306368D01*
X857859Y3304590D01*
X864920Y3302304D01*
X871778Y3299663D01*
X878382Y3296615D01*
X884732Y3293211D01*
X890879Y3289401D01*
X896721Y3285185D01*
X902360Y3280664D01*
X907796Y3275736D01*
X912571Y3270707D01*
X917295Y3265119D01*
X921867Y3259074D01*
X926185Y3252673D01*
X930249Y3246018D01*
X933958Y3239211D01*
X937260Y3232302D01*
X940053Y3225444D01*
X944371Y3212896D01*
X947928Y3200704D01*
X950315Y3190290D01*
X951179Y3182975D01*
X950976Y3179826D01*
X950366Y3175812D01*
X948080Y3165703D01*
X944778Y3154070D01*
X940663Y3142183D01*
X938123Y3135985D01*
X935024Y3129584D01*
X931468Y3123133D01*
X927557Y3116732D01*
X923391Y3110585D01*
X919073Y3104845D01*
X914704Y3099663D01*
X910437Y3095193D01*
X901344Y3087116D01*
X891235Y3079191D01*
X881329Y3072282D01*
X876858Y3069488D01*
X872896Y3067304D01*
X868273Y3065272D01*
X862990Y3063494D01*
X857097Y3061919D01*
X850595Y3060649D01*
X843635Y3059684D01*
X836117Y3058922D01*
X828192Y3058515D01*
X812596Y3058261D01*
X798982Y3057652D01*
X787603Y3056534D01*
X783183Y3055823D01*
X779881Y3055061D01*
X777798Y3054197D01*
X775157Y3052165D01*
X774090Y3050235D01*
X774649Y3048355D01*
X776782Y3046577D01*
X781050Y3044952D01*
X788314Y3043174D01*
X797712Y3041446D01*
X808075Y3040024D01*
X814425Y3039465D01*
X821029Y3039262D01*
X827836Y3039465D01*
X834847Y3040024D01*
X841959Y3040888D01*
X849172Y3042158D01*
X856487Y3043783D01*
X863853Y3045764D01*
X871372Y3048203D01*
X878687Y3050997D01*
X885698Y3054197D01*
X892505Y3057753D01*
X899058Y3061766D01*
X905459Y3066237D01*
X911707Y3071114D01*
X917803Y3076397D01*
X922782Y3081223D01*
X932891Y3092196D01*
X937717Y3097987D01*
X946200Y3109366D01*
X949553Y3114548D01*
X952195Y3119170D01*
X954379Y3123996D01*
X956564Y3129635D01*
X960526Y3142589D01*
X963625Y3156407D01*
X964742Y3163112D01*
X965504Y3169412D01*
X965911Y3175762D01*
X966063Y3182518D01*
X965657Y3196437D01*
X965149Y3203194D01*
X963472Y3215233D01*
X962355Y3220110D01*
X960882Y3224885D01*
X956462Y3236061D01*
X950671Y3248152D01*
X944168Y3259734D01*
X940917Y3264865D01*
X937412Y3269792D01*
X933399Y3274923D01*
X924458Y3285032D01*
X915212Y3293973D01*
X910844Y3297682D01*
X906830Y3300628D01*
X898093Y3306064D01*
X887933Y3311601D01*
X877620Y3316630D01*
X868426Y3320440D01*
X863346Y3322116D01*
X857605Y3323488D01*
X851255Y3324555D01*
X844397Y3325418D01*
X837031Y3325977D01*
G37*
G36*
X572008Y3232962D02*
G01*
X568655Y3232759D01*
X566115Y3231845D01*
X564286Y3229711D01*
X563067Y3225901D01*
X562457Y3219907D01*
X562254Y3211322D01*
X562813Y3184347D01*
X563930Y3159201D01*
X564692Y3150616D01*
X565708Y3144164D01*
X567029Y3139643D01*
X568756Y3136646D01*
X570890Y3134868D01*
X573532Y3133953D01*
X576326Y3133750D01*
X578459Y3134563D01*
X580085Y3136747D01*
X581253Y3140760D01*
X582015Y3146958D01*
X582472Y3155696D01*
X582777Y3182569D01*
X582472Y3210356D01*
X582015Y3219246D01*
X581152Y3225495D01*
X579831Y3229457D01*
X577951Y3231743D01*
X575360Y3232759D01*
G37*
G36*
X609092Y3232962D02*
G01*
X605790Y3232708D01*
X603300Y3231692D01*
X601421Y3229406D01*
X600151Y3225342D01*
X599287Y3219145D01*
X598830Y3210255D01*
X598525Y3182620D01*
X598779Y3154019D01*
X599236Y3145129D01*
X600100Y3139186D01*
X601573Y3135630D01*
X603656Y3133902D01*
X606552Y3133547D01*
X610362Y3133902D01*
X616305Y3136087D01*
X622147Y3141014D01*
X627888Y3148685D01*
X633628Y3159302D01*
X645058Y3182975D01*
X646785Y3159302D01*
X648106Y3147314D01*
X650189Y3140100D01*
X653694Y3136544D01*
X659079Y3135630D01*
X662279Y3135884D01*
X664819Y3136950D01*
X666750Y3139236D01*
X668172Y3143199D01*
X669239Y3149244D01*
X670001Y3157829D01*
X671118Y3184296D01*
X672642Y3232962D01*
X659384Y3232962D01*
X655675Y3232708D01*
X652272Y3231845D01*
X649173Y3230270D01*
X646176Y3227882D01*
X643178Y3224580D01*
X640080Y3220212D01*
X636727Y3214725D01*
X620064Y3182975D01*
X619861Y3207969D01*
X619353Y3220923D01*
X617778Y3228492D01*
X614527Y3232099D01*
G37*
G36*
X693267Y3232962D02*
G01*
X689813Y3232759D01*
X687222Y3231845D01*
X685342Y3229762D01*
X684123Y3225952D01*
X683463Y3220008D01*
X683260Y3211372D01*
X683869Y3184296D01*
X684987Y3157829D01*
X685749Y3149244D01*
X686765Y3143199D01*
X688238Y3139236D01*
X690168Y3136950D01*
X692658Y3135884D01*
X695909Y3135630D01*
X699109Y3135833D01*
X701598Y3136798D01*
X703529Y3138881D01*
X705002Y3142335D01*
X706069Y3147517D01*
X706831Y3154883D01*
X707999Y3177235D01*
X708355Y3193948D01*
X708304Y3208731D01*
X707745Y3219907D01*
X707339Y3223666D01*
X706831Y3225952D01*
X704951Y3228644D01*
X701751Y3230880D01*
X697687Y3232404D01*
G37*
G36*
X719582Y3232962D02*
G01*
X719632Y3167481D01*
X719886Y3155543D01*
X720344Y3146704D01*
X721207Y3140557D01*
X722477Y3136544D01*
X724357Y3134258D01*
X726846Y3133191D01*
X730097Y3132988D01*
X735634Y3133902D01*
X738886Y3137814D01*
X740511Y3146196D01*
X741172Y3160623D01*
X741680Y3188258D01*
X749757Y3168497D01*
X753516Y3160826D01*
X757682Y3154578D01*
X761796Y3150311D01*
X765302Y3148787D01*
X769010Y3150514D01*
X773531Y3155340D01*
X778357Y3162452D01*
X782878Y3171139D01*
X793038Y3193491D01*
X793292Y3153968D01*
X793546Y3147009D01*
X794054Y3141726D01*
X794918Y3137966D01*
X796086Y3135477D01*
X797712Y3134156D01*
X799846Y3133699D01*
X802487Y3133953D01*
X805129Y3134868D01*
X807313Y3136646D01*
X808990Y3139643D01*
X810310Y3144164D01*
X811326Y3150616D01*
X812088Y3159201D01*
X813206Y3184347D01*
X814730Y3232962D01*
X794766Y3232810D01*
X791006Y3232150D01*
X787806Y3230930D01*
X785012Y3228949D01*
X782472Y3226104D01*
X780034Y3222193D01*
X777494Y3217062D01*
X765556Y3188258D01*
X758596Y3204006D01*
X755904Y3210661D01*
X753618Y3217113D01*
X752043Y3222599D01*
X751433Y3226409D01*
X750112Y3229000D01*
X746709Y3231083D01*
X741680Y3232454D01*
X735380Y3232962D01*
G37*
G36*
X1530096Y3232962D02*
G01*
X1530096Y3159302D01*
X1756460Y3159302D01*
X1756460Y2938221D01*
X1824837Y2938221D01*
X1824837Y3232962D01*
G37*
G36*
X544322Y3227730D02*
G01*
X541172Y3227222D01*
X537667Y3225850D01*
X534162Y3223869D01*
X531164Y3221380D01*
X528726Y3216605D01*
X526694Y3208274D01*
X525373Y3197555D01*
X524865Y3185617D01*
X525373Y3173679D01*
X526694Y3162909D01*
X528726Y3154578D01*
X531164Y3149803D01*
X534162Y3147364D01*
X537667Y3145332D01*
X541172Y3144012D01*
X544322Y3143504D01*
X546049Y3144012D01*
X547522Y3145688D01*
X548690Y3148634D01*
X549656Y3152902D01*
X550316Y3158642D01*
X550824Y3165906D01*
X551180Y3185617D01*
X550824Y3205276D01*
X550316Y3212541D01*
X549656Y3218281D01*
X548690Y3222548D01*
X547522Y3225495D01*
X546049Y3227171D01*
G37*
G36*
X832561Y3227730D02*
G01*
X830478Y3227273D01*
X828802Y3225850D01*
X827430Y3223209D01*
X826414Y3219196D01*
X825703Y3213608D01*
X825195Y3206292D01*
X824839Y3185617D01*
X825195Y3164890D01*
X825703Y3157575D01*
X826414Y3151987D01*
X827430Y3147974D01*
X828802Y3145383D01*
X830478Y3143910D01*
X832561Y3143504D01*
X836015Y3144316D01*
X839622Y3146501D01*
X843026Y3149701D01*
X845718Y3153664D01*
X847852Y3159353D01*
X849579Y3167278D01*
X850747Y3176371D01*
X851153Y3185617D01*
X850747Y3194862D01*
X849579Y3203956D01*
X847852Y3211880D01*
X845718Y3217519D01*
X843026Y3221482D01*
X839622Y3224733D01*
X836015Y3226917D01*
G37*
G36*
X1824837Y2922473D02*
G01*
X998423Y2920542D01*
X826262Y2919780D01*
X767435Y2919272D01*
X723798Y2918561D01*
X693064Y2917647D01*
X672947Y2916428D01*
X666191Y2915767D01*
X661263Y2914954D01*
X657809Y2914091D01*
X655269Y2912872D01*
X654151Y2911500D01*
X653796Y2909976D01*
X653999Y2907385D01*
X654659Y2906217D01*
X656082Y2905201D01*
X659384Y2904032D01*
X663498Y2903220D01*
X669340Y2902458D01*
X677113Y2901797D01*
X699617Y2900680D01*
X733399Y2899816D01*
X780592Y2899156D01*
X843584Y2898648D01*
X1025753Y2897936D01*
X1824837Y2896108D01*
G37*
G36*
X1227480Y2864561D02*
G01*
X1224381Y2863748D01*
X1221892Y2861462D01*
X1220216Y2858160D01*
X1219606Y2854045D01*
X1220216Y2849930D01*
X1221892Y2846578D01*
X1224381Y2844342D01*
X1227480Y2843479D01*
X1230579Y2844342D01*
X1233068Y2846578D01*
X1234744Y2849930D01*
X1235405Y2854045D01*
X1234744Y2858160D01*
X1233068Y2861462D01*
X1230579Y2863748D01*
G37*
G36*
X1574850Y2864561D02*
G01*
X1571752Y2863748D01*
X1569262Y2861462D01*
X1567586Y2858160D01*
X1566976Y2854045D01*
X1567586Y2849930D01*
X1569262Y2846578D01*
X1571752Y2844342D01*
X1574850Y2843479D01*
X1577949Y2844342D01*
X1580438Y2846578D01*
X1582115Y2849930D01*
X1582775Y2854045D01*
X1582115Y2858160D01*
X1580438Y2861462D01*
X1577949Y2863748D01*
G37*
G36*
X669747Y2854045D02*
G01*
X660806Y2853537D01*
X652526Y2852166D01*
X645871Y2850184D01*
X641705Y2847695D01*
X639267Y2844495D01*
X637235Y2840482D01*
X635863Y2836113D01*
X635406Y2831896D01*
X635965Y2828239D01*
X637540Y2825242D01*
X639826Y2823210D01*
X642670Y2822448D01*
X645718Y2823260D01*
X648614Y2825546D01*
X651052Y2828899D01*
X654761Y2837637D01*
X658114Y2840888D01*
X662889Y2842869D01*
X669086Y2843479D01*
X673506Y2843377D01*
X676859Y2842818D01*
X679246Y2841447D01*
X680923Y2838907D01*
X681939Y2834741D01*
X682498Y2828696D01*
X682752Y2809290D01*
X682752Y2775102D01*
X666953Y2775102D01*
X660044Y2775559D01*
X655116Y2777032D01*
X652170Y2779522D01*
X651154Y2782976D01*
X650544Y2786024D01*
X648868Y2788564D01*
X646328Y2790240D01*
X643280Y2790850D01*
X640232Y2790139D01*
X637692Y2788107D01*
X636016Y2785059D01*
X635406Y2781401D01*
X635863Y2777236D01*
X637235Y2772867D01*
X639267Y2768803D01*
X641705Y2765602D01*
X645668Y2763164D01*
X651713Y2761132D01*
X659130Y2759811D01*
X666953Y2759303D01*
X674827Y2759811D01*
X682193Y2761132D01*
X688289Y2763164D01*
X692251Y2765602D01*
X693572Y2767634D01*
X694791Y2770886D01*
X695858Y2775254D01*
X696772Y2780588D01*
X697534Y2786837D01*
X698449Y2801366D01*
X698449Y2817063D01*
X697941Y2831033D01*
X696976Y2842107D01*
X696417Y2846171D01*
X695756Y2849067D01*
X695045Y2850489D01*
X691946Y2851861D01*
X686155Y2852978D01*
X678484Y2853740D01*
G37*
G36*
X866648Y2854045D02*
G01*
X855065Y2853588D01*
X846785Y2852115D01*
X841400Y2849524D01*
X838555Y2845714D01*
X837336Y2839872D01*
X836320Y2830220D01*
X835660Y2818028D01*
X835406Y2804668D01*
X835507Y2797810D01*
X836421Y2785110D01*
X837184Y2779522D01*
X838058Y2775102D01*
X850646Y2775102D01*
X852779Y2818434D01*
X853440Y2826461D01*
X854303Y2832354D01*
X855624Y2836468D01*
X857503Y2839212D01*
X860145Y2840888D01*
X863650Y2841904D01*
X882751Y2844190D01*
X882751Y2775102D01*
X838058Y2775102D01*
X839216Y2770632D01*
X840384Y2767533D01*
X841705Y2765602D01*
X845667Y2763164D01*
X851712Y2761132D01*
X859129Y2759811D01*
X866952Y2759303D01*
X874826Y2759811D01*
X882192Y2761132D01*
X888288Y2763164D01*
X892200Y2765602D01*
X893571Y2767634D01*
X894791Y2770886D01*
X895858Y2775254D01*
X896772Y2780588D01*
X897534Y2786837D01*
X898448Y2801366D01*
X898448Y2817063D01*
X897940Y2831033D01*
X896975Y2842107D01*
X896416Y2846171D01*
X895756Y2849067D01*
X895045Y2850489D01*
X891692Y2851861D01*
X885240Y2852978D01*
X876604Y2853740D01*
G37*
G36*
X1056436Y2854045D02*
G01*
X1046226Y2853588D01*
X1037844Y2852470D01*
X1032205Y2850794D01*
X1030122Y2848762D01*
X1031595Y2846730D01*
X1035558Y2845054D01*
X1041400Y2843936D01*
X1058570Y2843072D01*
X1064107Y2841040D01*
X1066444Y2836316D01*
X1066952Y2827731D01*
X1066444Y2819298D01*
X1064310Y2814574D01*
X1059586Y2812389D01*
X1045057Y2811526D01*
X1040028Y2810357D01*
X1036624Y2808681D01*
X1035405Y2806649D01*
X1036624Y2804617D01*
X1040028Y2802940D01*
X1045057Y2801823D01*
X1059942Y2800908D01*
X1064666Y2798318D01*
X1066596Y2792018D01*
X1067409Y2770632D01*
X1068781Y2764129D01*
X1071219Y2760421D01*
X1074877Y2759303D01*
X1077061Y2759760D01*
X1078788Y2761284D01*
X1080160Y2764078D01*
X1081227Y2768498D01*
X1081938Y2774696D01*
X1082446Y2782976D01*
X1082751Y2806649D01*
X1082751Y2854045D01*
G37*
G36*
X1814322Y2833014D02*
G01*
X1722221Y2830322D01*
X1720291Y2784906D01*
X1720240Y2776931D01*
X1720443Y2770733D01*
X1720951Y2766110D01*
X1721866Y2762808D01*
X1723237Y2760726D01*
X1725015Y2759608D01*
X1727250Y2759303D01*
X1729435Y2759608D01*
X1731264Y2760726D01*
X1732635Y2762707D01*
X1733753Y2765755D01*
X1734515Y2770022D01*
X1735023Y2775559D01*
X1735683Y2808884D01*
X1736191Y2814472D01*
X1737106Y2818231D01*
X1738579Y2820568D01*
X1740662Y2821686D01*
X1743506Y2821889D01*
X1747215Y2821482D01*
X1750771Y2820771D01*
X1753565Y2819654D01*
X1755698Y2817825D01*
X1757324Y2815031D01*
X1758543Y2811068D01*
X1759457Y2805633D01*
X1760118Y2798572D01*
X1760626Y2789529D01*
X1761642Y2777794D01*
X1763166Y2768193D01*
X1764995Y2761691D01*
X1766976Y2759303D01*
X1768906Y2761691D01*
X1770786Y2768193D01*
X1772310Y2777794D01*
X1774494Y2805633D01*
X1775358Y2811068D01*
X1776577Y2815031D01*
X1778203Y2817825D01*
X1780387Y2819654D01*
X1783181Y2820771D01*
X1786686Y2821482D01*
X1790395Y2821889D01*
X1793239Y2821686D01*
X1795373Y2820568D01*
X1796796Y2818231D01*
X1797761Y2814472D01*
X1798269Y2808884D01*
X1798929Y2775762D01*
X1799437Y2770174D01*
X1800199Y2765907D01*
X1801215Y2762808D01*
X1802587Y2760776D01*
X1804314Y2759659D01*
X1806448Y2759303D01*
X1808581Y2759659D01*
X1810308Y2760929D01*
X1811680Y2763215D01*
X1812747Y2766720D01*
X1813509Y2771648D01*
X1814271Y2786176D01*
G37*
G36*
X1227480Y2832963D02*
G01*
X1225346Y2832608D01*
X1223619Y2831338D01*
X1222248Y2829001D01*
X1221181Y2825496D01*
X1220419Y2820619D01*
X1219657Y2806090D01*
X1219657Y2786176D01*
X1220419Y2771648D01*
X1221181Y2766720D01*
X1222248Y2763215D01*
X1223619Y2760929D01*
X1225346Y2759659D01*
X1227480Y2759303D01*
X1229614Y2759659D01*
X1231341Y2760929D01*
X1232763Y2763215D01*
X1233779Y2766720D01*
X1234541Y2771648D01*
X1235049Y2778048D01*
X1235405Y2796133D01*
X1235049Y2814218D01*
X1234541Y2820619D01*
X1233779Y2825496D01*
X1232763Y2829001D01*
X1231341Y2831338D01*
X1229614Y2832608D01*
G37*
G36*
X1404366Y2832963D02*
G01*
X1392326Y2832506D01*
X1383792Y2831084D01*
X1378305Y2828493D01*
X1375410Y2824632D01*
X1374190Y2819146D01*
X1373174Y2810408D01*
X1372463Y2799537D01*
X1372209Y2787802D01*
X1372616Y2774340D01*
X1373886Y2765501D01*
X1376273Y2760726D01*
X1379880Y2759303D01*
X1383487Y2760878D01*
X1386128Y2766060D01*
X1387906Y2775407D01*
X1389583Y2797911D01*
X1390294Y2804718D01*
X1391158Y2810103D01*
X1392275Y2814218D01*
X1393698Y2817266D01*
X1395526Y2819400D01*
X1397762Y2820771D01*
X1400556Y2821584D01*
X1404721Y2821787D01*
X1408836Y2820822D01*
X1412392Y2818993D01*
X1414932Y2816402D01*
X1416710Y2811678D01*
X1418132Y2804007D01*
X1419148Y2794558D01*
X1419961Y2774594D01*
X1421130Y2766618D01*
X1422806Y2761284D01*
X1424838Y2759303D01*
X1425956Y2760014D01*
X1426972Y2762097D01*
X1427835Y2765399D01*
X1429258Y2775204D01*
X1430020Y2788513D01*
X1430121Y2832963D01*
G37*
G36*
X1574850Y2832963D02*
G01*
X1572717Y2832608D01*
X1570990Y2831338D01*
X1569618Y2829001D01*
X1568551Y2825496D01*
X1567789Y2820619D01*
X1567027Y2806090D01*
X1567027Y2786176D01*
X1567789Y2771648D01*
X1568551Y2766720D01*
X1569618Y2763215D01*
X1570990Y2760929D01*
X1572717Y2759659D01*
X1574850Y2759303D01*
X1576984Y2759659D01*
X1578711Y2760929D01*
X1580134Y2763215D01*
X1581150Y2766720D01*
X1581912Y2771648D01*
X1582420Y2778048D01*
X1582775Y2796133D01*
X1582420Y2814218D01*
X1581912Y2820619D01*
X1581150Y2825496D01*
X1580134Y2829001D01*
X1578711Y2831338D01*
X1576984Y2832608D01*
G37*
D11*
X2266591Y3338146D02*
G01*
X2353863Y3338146D01*
X2370226Y3343600D01*
X2375682Y3349053D01*
X2381135Y3359962D01*
X2381135Y3376328D01*
X2375682Y3387237D01*
X2282954Y3338146D02*
G01*
X2272045Y3349053D01*
X2266591Y3359962D01*
X2266591Y3376328D01*
X2272045Y3387237D01*
X2282954Y3398146D01*
X2299317Y3403600D01*
X2310226Y3403600D01*
X2326591Y3398146D01*
X2337501Y3387237D01*
X2342954Y3376328D01*
X2342954Y3359962D01*
X2337501Y3349053D01*
X2326591Y3338146D01*
X2228410Y3302144D02*
G01*
X2233863Y3296691D01*
X2228410Y3291235D01*
X2222954Y3296691D01*
X2228410Y3302144D01*
X2266591Y3296691D02*
G01*
X2342954Y3296691D01*
X2228410Y3238873D02*
G01*
X2321135Y3238873D01*
X2337501Y3233417D01*
X2342954Y3222510D01*
X2342954Y3211601D01*
X2266591Y3255236D02*
G01*
X2266591Y3217054D01*
X2228410Y3175599D02*
G01*
X2342954Y3175599D01*
X2288410Y3175599D02*
G01*
X2272045Y3159236D01*
X2266591Y3148327D01*
X2266591Y3131964D01*
X2272045Y3121055D01*
X2288410Y3115599D01*
X2342954Y3115599D01*
X2266591Y3079600D02*
G01*
X2321135Y3079600D01*
X2337501Y3074146D01*
X2342954Y3063237D01*
X2342954Y3046872D01*
X2337501Y3035965D01*
X2321135Y3019600D01*
X2266591Y3019600D02*
G01*
X2342954Y3019600D01*
X2228410Y2983600D02*
G01*
X2342954Y2983600D01*
X2282954Y2983600D02*
G01*
X2272045Y2972691D01*
X2266591Y2961782D01*
X2266591Y2945419D01*
X2272045Y2934510D01*
X2282954Y2923600D01*
X2299317Y2918147D01*
X2310226Y2918147D01*
X2326591Y2923600D01*
X2337501Y2934510D01*
X2342954Y2945419D01*
X2342954Y2961782D01*
X2337501Y2972691D01*
X2326591Y2983600D01*
X2315682Y2876692D02*
G01*
X2321135Y2882145D01*
X2326591Y2876692D01*
X2321135Y2871236D01*
X2315682Y2876692D01*
X2282954Y2769783D02*
G01*
X2272045Y2780692D01*
X2266591Y2791602D01*
X2266591Y2807964D01*
X2272045Y2818874D01*
X2282954Y2829783D01*
X2299317Y2835236D01*
X2310226Y2835236D01*
X2326591Y2829783D01*
X2337501Y2818874D01*
X2342954Y2807964D01*
X2342954Y2791602D01*
X2337501Y2780692D01*
X2326591Y2769783D01*
X2266591Y2706509D02*
G01*
X2272045Y2717419D01*
X2282954Y2728328D01*
X2299317Y2733784D01*
X2310226Y2733784D01*
X2326591Y2728328D01*
X2337501Y2717419D01*
X2342954Y2706509D01*
X2342954Y2690147D01*
X2337501Y2679237D01*
X2326591Y2668328D01*
X2310226Y2662875D01*
X2299317Y2662875D01*
X2282954Y2668328D01*
X2272045Y2679237D01*
X2266591Y2690147D01*
X2266591Y2706509D01*
X2266591Y2626873D02*
G01*
X2342954Y2626873D01*
X2288410Y2626873D02*
G01*
X2272045Y2610510D01*
X2266591Y2599601D01*
X2266591Y2583238D01*
X2272045Y2572329D01*
X2288410Y2566873D01*
X2342954Y2566873D01*
X2288410Y2566873D02*
G01*
X2272045Y2550510D01*
X2266591Y2539601D01*
X2266591Y2523238D01*
X2272045Y2512329D01*
X2288410Y2506873D01*
X2342954Y2506873D01*
X2206591Y2372692D02*
G01*
X2381135Y2470873D01*
X2228410Y2260330D02*
G01*
X2342954Y2336693D01*
X2228410Y2336693D02*
G01*
X2228410Y2260330D01*
X2342954Y2336693D02*
G01*
X2342954Y2260330D01*
X2228410Y2224328D02*
G01*
X2342954Y2224328D01*
X2288410Y2224328D02*
G01*
X2272045Y2207966D01*
X2266591Y2197056D01*
X2266591Y2180694D01*
X2272045Y2169784D01*
X2288410Y2164328D01*
X2342954Y2164328D01*
X2266591Y2128329D02*
G01*
X2321135Y2128329D01*
X2337501Y2122876D01*
X2342954Y2111966D01*
X2342954Y2095601D01*
X2337501Y2084692D01*
X2321135Y2068329D01*
X2266591Y2068329D02*
G01*
X2342954Y2068329D01*
X2228410Y2032330D02*
G01*
X2282954Y1988693D01*
X2342954Y1988693D01*
X2228410Y1945058D02*
G01*
X2282954Y1988693D01*
X2266591Y1843603D02*
G01*
X2342954Y1843603D01*
X2282954Y1843603D02*
G01*
X2272045Y1854512D01*
X2266591Y1865421D01*
X2266591Y1881784D01*
X2272045Y1892693D01*
X2282954Y1903603D01*
X2299317Y1909056D01*
X2310226Y1909056D01*
X2326591Y1903603D01*
X2337501Y1892693D01*
X2342954Y1881784D01*
X2342954Y1865421D01*
X2337501Y1854512D01*
X2326591Y1843603D01*
X2266591Y1807603D02*
G01*
X2342954Y1807603D01*
X2288410Y1807603D02*
G01*
X2272045Y1791238D01*
X2266591Y1780331D01*
X2266591Y1763966D01*
X2272045Y1753057D01*
X2288410Y1747603D01*
X2342954Y1747603D01*
X2266591Y1651604D02*
G01*
X2342954Y1711604D01*
X2266591Y1711604D02*
G01*
X2266591Y1651604D01*
X2342954Y1711604D02*
G01*
X2342954Y1651604D01*
X2228410Y1615602D02*
G01*
X2342954Y1615602D01*
X2288410Y1615602D02*
G01*
X2272045Y1599239D01*
X2266591Y1588330D01*
X2266591Y1571967D01*
X2272045Y1561058D01*
X2288410Y1555602D01*
X2342954Y1555602D01*
X2299317Y1519603D02*
G01*
X2299317Y1454150D01*
X2288410Y1454150D01*
X2277501Y1459603D01*
X2272045Y1465059D01*
X2266591Y1475968D01*
X2266591Y1492331D01*
X2272045Y1503240D01*
X2282954Y1514149D01*
X2299317Y1519603D01*
X2310226Y1519603D01*
X2326591Y1514149D01*
X2337501Y1503240D01*
X2342954Y1492331D01*
X2342954Y1475968D01*
X2337501Y1465059D01*
X2326591Y1454150D01*
X2266591Y1418150D02*
G01*
X2342954Y1418150D01*
X2288410Y1418150D02*
G01*
X2272045Y1401785D01*
X2266591Y1390876D01*
X2266591Y1374513D01*
X2272045Y1363604D01*
X2288410Y1358150D01*
X2342954Y1358150D01*
X2250226Y1322148D02*
G01*
X2244773Y1311239D01*
X2228410Y1294876D01*
X2342954Y1294876D01*
X2206591Y1160696D02*
G01*
X2381135Y1258877D01*
X2266591Y1124694D02*
G01*
X2342954Y1124694D01*
X2288410Y1124694D02*
G01*
X2272045Y1108331D01*
X2266591Y1097422D01*
X2266591Y1081059D01*
X2272045Y1070150D01*
X2288410Y1064694D01*
X2342954Y1064694D01*
X2288410Y1064694D02*
G01*
X2272045Y1048331D01*
X2266591Y1037422D01*
X2266591Y1021059D01*
X2272045Y1010150D01*
X2288410Y1004694D01*
X2342954Y1004694D01*
X2228410Y968695D02*
G01*
X2233863Y963241D01*
X2228410Y957785D01*
X2222954Y963241D01*
X2228410Y968695D01*
X2266591Y963241D02*
G01*
X2342954Y963241D01*
X2266591Y921786D02*
G01*
X2342954Y921786D01*
X2288410Y921786D02*
G01*
X2272045Y905423D01*
X2266591Y894514D01*
X2266591Y878151D01*
X2272045Y867242D01*
X2288410Y861786D01*
X2342954Y861786D01*
X2228410Y825787D02*
G01*
X2233863Y820333D01*
X2228410Y814877D01*
X2222954Y820333D01*
X2228410Y825787D01*
X2266591Y820333D02*
G01*
X2342954Y820333D01*
X2228410Y778878D02*
G01*
X2342954Y778878D01*
X2228410Y778878D02*
G01*
X2228410Y707969D01*
X2282954Y778878D02*
G01*
X2282954Y735241D01*
X2228410Y639241D02*
G01*
X2233863Y650151D01*
X2244773Y661060D01*
X2255682Y666513D01*
X2272045Y671969D01*
X2299317Y671969D01*
X2315682Y666513D01*
X2326591Y661060D01*
X2337501Y650151D01*
X2342954Y639241D01*
X2342954Y617423D01*
X2337501Y606513D01*
X2326591Y595604D01*
X2315682Y590151D01*
X2299317Y584695D01*
X2272045Y584695D01*
X2255682Y590151D01*
X2244773Y595604D01*
X2233863Y606513D01*
X2228410Y617423D01*
X2228410Y639241D01*
X2255682Y466877D02*
G01*
X2244773Y472333D01*
X2233863Y483242D01*
X2228410Y494151D01*
X2228410Y515970D01*
X2233863Y526877D01*
X2244773Y537786D01*
X2255682Y543242D01*
X2272045Y548695D01*
X2299317Y548695D01*
X2315682Y543242D01*
X2326591Y537786D01*
X2337501Y526877D01*
X2342954Y515970D01*
X2342954Y494151D01*
X2337501Y483242D01*
X2326591Y472333D01*
X2315682Y466877D01*
D45*
X2045390Y3390900D02*
G01*
X2140846Y3354537D01*
X2045390Y3318172D02*
G01*
X2140846Y3354537D01*
X2104481Y3288172D02*
G01*
X2104481Y3233628D01*
X2095390Y3233628D01*
X2086300Y3238172D01*
X2081753Y3242718D01*
X2077209Y3251809D01*
X2077209Y3265446D01*
X2081753Y3274537D01*
X2090846Y3283628D01*
X2104481Y3288172D01*
X2113572Y3288172D01*
X2127209Y3283628D01*
X2136300Y3274537D01*
X2140846Y3265446D01*
X2140846Y3251809D01*
X2136300Y3242718D01*
X2127209Y3233628D01*
X2077209Y3203628D02*
G01*
X2140846Y3203628D01*
X2104481Y3203628D02*
G01*
X2090846Y3199081D01*
X2081753Y3189991D01*
X2077209Y3180900D01*
X2077209Y3167263D01*
X2090846Y3087263D02*
G01*
X2081753Y3091809D01*
X2077209Y3105447D01*
X2077209Y3119081D01*
X2081753Y3132719D01*
X2090846Y3137263D01*
X2099937Y3132719D01*
X2104481Y3123628D01*
X2109028Y3100900D01*
X2113572Y3091809D01*
X2122662Y3087263D01*
X2127209Y3087263D01*
X2136300Y3091809D01*
X2140846Y3105447D01*
X2140846Y3119081D01*
X2136300Y3132719D01*
X2127209Y3137263D01*
X2045390Y3057263D02*
G01*
X2049937Y3052719D01*
X2045390Y3048172D01*
X2040846Y3052719D01*
X2045390Y3057263D01*
X2077209Y3052719D02*
G01*
X2140846Y3052719D01*
X2077209Y2995447D02*
G01*
X2081753Y3004538D01*
X2090846Y3013628D01*
X2104481Y3018172D01*
X2113572Y3018172D01*
X2127209Y3013628D01*
X2136300Y3004538D01*
X2140846Y2995447D01*
X2140846Y2981810D01*
X2136300Y2972719D01*
X2127209Y2963628D01*
X2113572Y2959082D01*
X2104481Y2959082D01*
X2090846Y2963628D01*
X2081753Y2972719D01*
X2077209Y2981810D01*
X2077209Y2995447D01*
X2077209Y2929082D02*
G01*
X2140846Y2929082D01*
X2095390Y2929082D02*
G01*
X2081753Y2915447D01*
X2077209Y2906354D01*
X2077209Y2892719D01*
X2081753Y2883628D01*
X2095390Y2879082D01*
X2140846Y2879082D01*
X2063572Y2779082D02*
G01*
X2059028Y2769991D01*
X2045390Y2756354D01*
X2140846Y2756354D01*
X2118118Y2721810D02*
G01*
X2122662Y2726354D01*
X2127209Y2721810D01*
X2122662Y2717264D01*
X2118118Y2721810D01*
X2063572Y2687264D02*
G01*
X2059028Y2678173D01*
X2045390Y2664538D01*
X2140846Y2664538D01*
X2118118Y2629992D02*
G01*
X2122662Y2634538D01*
X2127209Y2629992D01*
X2122662Y2625448D01*
X2118118Y2629992D01*
X2068118Y2590901D02*
G01*
X2063572Y2590901D01*
X2054481Y2586354D01*
X2049937Y2581810D01*
X2045390Y2572720D01*
X2045390Y2554538D01*
X2049937Y2545448D01*
X2054481Y2540901D01*
X2063572Y2536355D01*
X2072662Y2536355D01*
X2081753Y2540901D01*
X2095390Y2549992D01*
X2140846Y2595448D01*
X2140846Y2531811D01*
D43*
X812195Y775368D02*
G01*
X823216Y779040D01*
X837910Y779040D01*
X848934Y775368D01*
X863627Y760671D01*
X867300Y749650D01*
X867300Y734956D01*
X863627Y723935D01*
X856279Y709239D01*
X837910Y690869D01*
X823216Y683524D01*
X812195Y679848D01*
X797501Y679848D01*
X786477Y683524D01*
X771784Y698218D01*
X768111Y709239D01*
X768111Y723935D01*
X771784Y734956D01*
X791621Y803287D02*
G01*
X787948Y814308D01*
X787948Y836350D01*
X710801Y759203D01*
X1469867Y948568D02*
G01*
X1475064Y958959D01*
X1485455Y969350D01*
X1495844Y974544D01*
X1516626Y974544D01*
X1527017Y969350D01*
X1537408Y958959D01*
X1542605Y948568D01*
X1547799Y932980D01*
X1547799Y907003D01*
X1542605Y891418D01*
X1537408Y881026D01*
X1527017Y870635D01*
X1516626Y865441D01*
X1495844Y865441D01*
X1485455Y870635D01*
X1475064Y881026D01*
X1469867Y891418D01*
X1430383Y948568D02*
G01*
X1430383Y953762D01*
X1425186Y964153D01*
X1419992Y969350D01*
X1409600Y974544D01*
X1388818Y974544D01*
X1378427Y969350D01*
X1373233Y964153D01*
X1368036Y953762D01*
X1368036Y943371D01*
X1373233Y932980D01*
X1383624Y917394D01*
X1435577Y865441D01*
X1362842Y865441D01*
X1141267Y749762D02*
G01*
X1146464Y760153D01*
X1156855Y770544D01*
X1167244Y775738D01*
X1188026Y775738D01*
X1198417Y770544D01*
X1208808Y760153D01*
X1214005Y749762D01*
X1219200Y734174D01*
X1219200Y708197D01*
X1214005Y692612D01*
X1208808Y682221D01*
X1198417Y671829D01*
X1188026Y666635D01*
X1167244Y666635D01*
X1156855Y671829D01*
X1146464Y682221D01*
X1141267Y692612D01*
X1096586Y775738D02*
G01*
X1039436Y775738D01*
X1070610Y734174D01*
X1055024Y734174D01*
X1044633Y728979D01*
X1039436Y723785D01*
X1034242Y708197D01*
X1034242Y697806D01*
X1039436Y682221D01*
X1049827Y671829D01*
X1065415Y666635D01*
X1081001Y666635D01*
X1096586Y671829D01*
X1101783Y677024D01*
X1106977Y687415D01*
X964737Y2157267D02*
G01*
X954346Y2162464D01*
X943955Y2172855D01*
X938761Y2183244D01*
X938761Y2204026D01*
X943955Y2214417D01*
X954346Y2224808D01*
X964737Y2230005D01*
X980325Y2235200D01*
X1006302Y2235200D01*
X1021887Y2230005D01*
X1032278Y2224808D01*
X1042670Y2214417D01*
X1047864Y2204026D01*
X1047864Y2183244D01*
X1042670Y2172855D01*
X1032278Y2162464D01*
X1021887Y2157267D01*
X938761Y2050242D02*
G01*
X1047864Y2102195D01*
X938761Y2122977D02*
G01*
X938761Y2050242D01*
X1231392Y2106421D02*
G01*
X1220978Y2111755D01*
X1210563Y2122170D01*
X1205484Y2132329D01*
X1205484Y2153157D01*
X1210563Y2163571D01*
X1220978Y2173986D01*
X1231392Y2179320D01*
X1247139Y2184400D01*
X1273047Y2184400D01*
X1288542Y2179320D01*
X1298955Y2173986D01*
X1309370Y2163571D01*
X1314450Y2153157D01*
X1314450Y2132329D01*
X1309370Y2122170D01*
X1298955Y2111755D01*
X1288542Y2106421D01*
X1226312Y2072131D02*
G01*
X1220978Y2061718D01*
X1205484Y2046223D01*
X1314450Y2046223D01*
X1205484Y1980692D02*
G01*
X1210563Y1996439D01*
X1226312Y2006600D01*
X1252220Y2011934D01*
X1267713Y2011934D01*
X1293876Y2006600D01*
X1309370Y1996439D01*
X1314450Y1980692D01*
X1314450Y1970278D01*
X1309370Y1954784D01*
X1293876Y1944370D01*
X1267713Y1939289D01*
X1252220Y1939289D01*
X1226312Y1944370D01*
X1210563Y1954784D01*
X1205484Y1970278D01*
X1205484Y1980692D01*
X799084Y2222500D02*
G01*
X908050Y2222500D01*
X799084Y2222500D02*
G01*
X799084Y2175763D01*
X804163Y2160270D01*
X809497Y2154936D01*
X819912Y2149855D01*
X830326Y2149855D01*
X840739Y2154936D01*
X845820Y2160270D01*
X850900Y2175763D01*
X850900Y2222500D01*
X850900Y2186178D02*
G01*
X908050Y2149855D01*
X824992Y2110231D02*
G01*
X819912Y2110231D01*
X809497Y2105152D01*
X804163Y2099818D01*
X799084Y2089404D01*
X799084Y2068829D01*
X804163Y2058415D01*
X809497Y2053081D01*
X819912Y2048002D01*
X830326Y2048002D01*
X840739Y2053081D01*
X856234Y2063495D01*
X908050Y2115565D01*
X908050Y2042668D01*
X355600Y2490215D02*
G01*
X355600Y2381250D01*
X355600Y2490215D02*
G01*
X308863Y2490215D01*
X293370Y2485136D01*
X288036Y2479802D01*
X282955Y2469387D01*
X282955Y2458973D01*
X288036Y2448560D01*
X293370Y2443479D01*
X308863Y2438400D01*
X355600Y2438400D01*
X319278Y2438400D02*
G01*
X282955Y2381250D01*
X238252Y2490215D02*
G01*
X181102Y2490215D01*
X212089Y2448560D01*
X196595Y2448560D01*
X186181Y2443479D01*
X181102Y2438400D01*
X175768Y2422652D01*
X175768Y2412237D01*
X181102Y2396744D01*
X191515Y2386329D01*
X207010Y2381250D01*
X222504Y2381250D01*
X238252Y2386329D01*
X243331Y2391410D01*
X248665Y2401823D01*
X660400Y2490215D02*
G01*
X660400Y2381250D01*
X660400Y2490215D02*
G01*
X613663Y2490215D01*
X598170Y2485136D01*
X592836Y2479802D01*
X587755Y2469387D01*
X587755Y2458973D01*
X592836Y2448560D01*
X598170Y2443479D01*
X613663Y2438400D01*
X660400Y2438400D01*
X624078Y2438400D02*
G01*
X587755Y2381250D01*
X501395Y2490215D02*
G01*
X553465Y2417571D01*
X475487Y2417571D01*
X501395Y2490215D02*
G01*
X501395Y2381250D01*
X338785Y2241930D02*
G01*
X338785Y2163953D01*
X333705Y2148459D01*
X323291Y2138045D01*
X307543Y2132964D01*
X297129Y2132964D01*
X281635Y2138045D01*
X271221Y2148459D01*
X266141Y2163953D01*
X266141Y2241930D01*
X179781Y2241930D02*
G01*
X231851Y2169287D01*
X153873Y2169287D01*
X179781Y2241930D02*
G01*
X179781Y2132964D01*
X1623913Y145135D02*
G01*
X1623913Y62077D01*
X1629247Y46329D01*
X1634327Y41249D01*
X1644741Y36169D01*
X1655155Y36169D01*
X1665569Y41249D01*
X1670903Y46329D01*
X1675983Y62077D01*
X1675983Y72491D01*
X1584543Y119227D02*
G01*
X1584543Y124307D01*
X1579463Y134721D01*
X1574129Y140055D01*
X1563715Y145135D01*
X1542887Y145135D01*
X1532473Y140055D01*
X1527393Y134721D01*
X1522313Y124307D01*
X1522313Y113893D01*
X1527393Y103479D01*
X1537807Y87985D01*
X1589623Y36169D01*
X1516979Y36169D01*
X1019555Y1489506D02*
G01*
X1097534Y1489506D01*
X1113028Y1484426D01*
X1123442Y1474012D01*
X1128521Y1458264D01*
X1128521Y1447850D01*
X1123442Y1432356D01*
X1113028Y1421942D01*
X1097534Y1416862D01*
X1019555Y1416862D01*
X1045463Y1377238D02*
G01*
X1040384Y1377238D01*
X1029970Y1372158D01*
X1024636Y1366824D01*
X1019555Y1356410D01*
X1019555Y1335836D01*
X1024636Y1325422D01*
X1029970Y1320088D01*
X1040384Y1315008D01*
X1050797Y1315008D01*
X1061212Y1320088D01*
X1076705Y1330502D01*
X1128521Y1382572D01*
X1128521Y1309674D01*
X1233170Y3758184D02*
G01*
X1233170Y3841242D01*
X1227836Y3856989D01*
X1222755Y3862070D01*
X1212342Y3867150D01*
X1201928Y3867150D01*
X1191513Y3862070D01*
X1186179Y3856989D01*
X1181100Y3841242D01*
X1181100Y3830828D01*
X1329689Y3758184D02*
G01*
X1277620Y3758184D01*
X1272539Y3804920D01*
X1277620Y3799839D01*
X1293368Y3794505D01*
X1308862Y3794505D01*
X1324610Y3799839D01*
X1334770Y3810000D01*
X1340104Y3825747D01*
X1340104Y3836162D01*
X1334770Y3851655D01*
X1324610Y3862070D01*
X1308862Y3867150D01*
X1293368Y3867150D01*
X1277620Y3862070D01*
X1272539Y3856989D01*
X1267460Y3846576D01*
X214884Y1651000D02*
G01*
X323850Y1651000D01*
X323850Y1651000D02*
G01*
X323850Y1588770D01*
X240792Y1549145D02*
G01*
X235712Y1549145D01*
X225297Y1544065D01*
X219963Y1538731D01*
X214884Y1528318D01*
X214884Y1507489D01*
X219963Y1497329D01*
X225297Y1491995D01*
X235712Y1486915D01*
X246126Y1486915D01*
X256539Y1491995D01*
X272034Y1502410D01*
X323850Y1554479D01*
X323850Y1481581D01*
D10*
X831679Y990158D02*
G01*
X775108Y933587D01*
X932060Y933594D02*
G01*
X875494Y990163D01*
X831674Y833211D02*
G01*
X775108Y889777D01*
X973193Y893284D02*
G01*
X1029761Y836716D01*
X1029761Y792899D02*
G01*
X973195Y736333D01*
X872812Y792904D02*
G01*
X929380Y736335D01*
X1058100Y927707D02*
G01*
X1058100Y847704D01*
X1169075Y958692D02*
G01*
X1089078Y958692D01*
X1169075Y816726D02*
G01*
X1089078Y816726D01*
X1226665Y959274D02*
G01*
X1306664Y959274D01*
X1337647Y928291D02*
G01*
X1337647Y848293D01*
X1226665Y817313D02*
G01*
X1306664Y817313D01*
X1252918Y801977D02*
G01*
X1252918Y721974D01*
X1363893Y832962D02*
G01*
X1283896Y832962D01*
X1363893Y690996D02*
G01*
X1283896Y690996D01*
X1421483Y833544D02*
G01*
X1501482Y833544D01*
X1532465Y802561D02*
G01*
X1532465Y722563D01*
X1421483Y691583D02*
G01*
X1501482Y691583D01*
X645822Y1994598D02*
G01*
X725825Y1994598D01*
X614837Y2105573D02*
G01*
X614837Y2025576D01*
X756803Y2105573D02*
G01*
X756803Y2025576D01*
X614255Y2163163D02*
G01*
X614255Y2243162D01*
X645238Y2274145D02*
G01*
X725236Y2274145D01*
X756216Y2163163D02*
G01*
X756216Y2243162D01*
D43*
X1357439Y1888980D02*
G01*
X1357439Y2029980D01*
X1538160Y2029980D02*
G01*
X1538160Y1888980D01*
X1522920Y1873740D02*
G01*
X1372679Y1873740D01*
X1357439Y2251219D02*
G01*
X1357439Y2110219D01*
X1538160Y2110219D02*
G01*
X1538160Y2251219D01*
X1522920Y2266459D02*
G01*
X1372679Y2266459D01*
X586760Y2090978D02*
G01*
X586760Y1995091D01*
X454639Y1995091D01*
X454639Y2090978D01*
X586760Y2176221D02*
G01*
X586760Y2272108D01*
X454639Y2272108D01*
X454639Y2176221D01*
X224078Y2512039D02*
G01*
X128191Y2512039D01*
X128191Y2644160D01*
X224078Y2644160D01*
X309321Y2512039D02*
G01*
X405208Y2512039D01*
X405208Y2644160D01*
X309321Y2644160D01*
X541578Y2512039D02*
G01*
X445691Y2512039D01*
X445691Y2644160D01*
X541578Y2644160D01*
X626821Y2512039D02*
G01*
X722708Y2512039D01*
X722708Y2644160D01*
X626821Y2644160D01*
D10*
X99009Y2274399D02*
G01*
X99009Y2094397D01*
X409011Y2274399D02*
G01*
X409011Y2094397D01*
X1758000Y317500D02*
G01*
X1758000Y469900D01*
X1627190Y469900D02*
G01*
X1757977Y469920D01*
X742000Y317500D02*
G01*
X742000Y469900D01*
X742000Y469900D02*
G01*
X872810Y469900D01*
D43*
X899279Y1574139D02*
G01*
X899279Y1219860D01*
X1564520Y1219860D01*
X1564520Y1574139D01*
X899279Y1574139D01*
D10*
X1432466Y3634198D02*
G01*
X1619951Y3634198D01*
X1307464Y3634198D02*
G01*
X1346238Y3634198D01*
X1182463Y3634198D02*
G01*
X1221237Y3634198D01*
X908751Y3634198D02*
G01*
X1096236Y3634198D01*
X908751Y3634198D02*
G01*
X908751Y3771084D01*
X1501421Y3977098D02*
G01*
X1014580Y3977098D01*
X1619951Y3634198D02*
G01*
X1619951Y3771084D01*
X183700Y1784799D02*
G01*
X183700Y1364800D01*
X250586Y1364800D01*
X536813Y1364800D02*
G01*
X603699Y1364800D01*
X603699Y1784799D01*
X536813Y1784799D01*
X250586Y1784799D02*
G01*
X183700Y1784799D01*
G75*
G01*
X1029767Y792897D02*
G03*
X1029767Y836714I-21908J21908D01*
G75*
G01*
X929381Y736328D02*
G03*
X973198Y736331I21907J21909D01*
G75*
G01*
X875497Y990158D02*
G03*
X831680Y990158I-21908J-21908D01*
G75*
G01*
X775111Y933590D02*
G03*
X775111Y889775I21909J-21908D01*
G75*
G01*
X1337653Y928291D02*
G03*
X1306670Y959274I-30983J0D01*
G75*
G01*
X1306670Y817308D02*
G03*
X1337653Y848294I0J30983D01*
G75*
G01*
X1089083Y958693D02*
G03*
X1058100Y927707I0J-30983D01*
G75*
G01*
X1058100Y847710D02*
G03*
X1089083Y816727I30983J0D01*
G75*
G01*
X1532471Y802561D02*
G03*
X1501488Y833544I-30983J0D01*
G75*
G01*
X1501488Y691578D02*
G03*
X1532471Y722564I0J30983D01*
G75*
G01*
X1283901Y832963D02*
G03*
X1252918Y801977I0J-30983D01*
G75*
G01*
X1252918Y721980D02*
G03*
X1283901Y690997I30983J0D01*
G75*
G01*
X645239Y2274151D02*
G03*
X614256Y2243168I0J-30983D01*
G75*
G01*
X756222Y2243168D02*
G03*
X725236Y2274151I-30983J0D01*
G75*
G01*
X614837Y2025581D02*
G03*
X645823Y1994599I30983J0D01*
G75*
G01*
X725820Y1994599D02*
G03*
X756803Y2025581I0J30982D01*
D43*
G75*
G01*
X1538160Y1888980D02*
G02*
X1522920Y1873740I-15240J0D01*
G75*
G01*
X1372680Y1873740D02*
G02*
X1357440Y1888980I0J15240D01*
G75*
G01*
X1538160Y2251220D02*
G03*
X1522920Y2266460I-15240J0D01*
G75*
G01*
X1372680Y2266460D02*
G03*
X1357440Y2251220I0J-15240D01*
D10*
G75*
G01
X431800Y2044700D02*
G03X431800Y2044700I-12700J0D01*
D12*
G75*
G01
X954405Y1498905D02*
G03X954405Y1498905I-15011J0D01*
G75*
G01
X890981Y1684096D02*
G03X890981Y1684096I-15011J0D01*
M02*
