G04 Layer: BottomSilkLayer*
G04 EasyEDA v6.4.20.6, 2021-08-18T09:30:06+08:00*
G04 2d57448aed11401ea87c12970cfe30e9,34bb6763e28e4bbdb854ef51fa08daf4,10*
G04 Gerber Generator version 0.2*
G04 Scale: 100 percent, Rotated: No, Reflected: No *
G04 Dimensions in millimeters *
G04 leading zeros omitted , absolute positions ,4 integer and 5 decimal *
%FSLAX45Y45*%
%MOMM*%

%ADD10C,0.2540*%
%ADD11C,0.2000*%
%ADD32C,0.3000*%
%ADD42C,0.1524*%
%ADD44C,0.2032*%

%LPD*%
G36*
X312216Y-557530D02*
G01*
X303682Y-557885D01*
X286562Y-560019D01*
X262788Y-563727D01*
X251206Y-566826D01*
X237947Y-571144D01*
X224637Y-576122D01*
X189839Y-591413D01*
X209804Y-616102D01*
X217474Y-624332D01*
X225094Y-631596D01*
X231749Y-636930D01*
X234442Y-638606D01*
X240690Y-641197D01*
X246837Y-642213D01*
X253441Y-641553D01*
X264566Y-638200D01*
X269697Y-637184D01*
X275894Y-636270D01*
X290830Y-634847D01*
X307441Y-634136D01*
X322275Y-634187D01*
X334619Y-634796D01*
X346202Y-635965D01*
X356971Y-637590D01*
X366725Y-639673D01*
X375259Y-642162D01*
X379069Y-643585D01*
X384149Y-645922D01*
X389940Y-648919D01*
X396189Y-652526D01*
X409295Y-661009D01*
X415747Y-665632D01*
X427532Y-674979D01*
X435864Y-682752D01*
X443687Y-691134D01*
X450951Y-700227D01*
X457758Y-710031D01*
X460959Y-715162D01*
X466953Y-726033D01*
X473303Y-739190D01*
X478688Y-751738D01*
X480720Y-757275D01*
X482244Y-762508D01*
X483463Y-767740D01*
X484276Y-773125D01*
X484784Y-778916D01*
X485038Y-785215D01*
X484835Y-800404D01*
X484073Y-818184D01*
X482904Y-832815D01*
X481126Y-845058D01*
X478485Y-855980D01*
X476758Y-861263D01*
X472287Y-872083D01*
X466343Y-884123D01*
X460756Y-893978D01*
X454304Y-903630D01*
X447192Y-912977D01*
X439521Y-921867D01*
X431342Y-930097D01*
X427177Y-933958D01*
X418642Y-940917D01*
X409600Y-947369D01*
X399999Y-953363D01*
X390144Y-958697D01*
X380339Y-963269D01*
X370789Y-966978D01*
X361086Y-969822D01*
X350926Y-972058D01*
X340614Y-973683D01*
X330047Y-974648D01*
X319125Y-974953D01*
X307695Y-974598D01*
X294487Y-973582D01*
X280009Y-972058D01*
X267004Y-970381D01*
X257048Y-968756D01*
X250952Y-967536D01*
X248158Y-967435D01*
X245364Y-967841D01*
X242316Y-968806D01*
X238963Y-970483D01*
X235204Y-972921D01*
X230886Y-976121D01*
X224944Y-981151D01*
X489864Y-981151D01*
X513537Y-948283D01*
X522985Y-935634D01*
X524611Y-933754D01*
X530047Y-940714D01*
X558749Y-981151D01*
X224944Y-981151D01*
X213664Y-991514D01*
X197459Y-1007313D01*
X154432Y-1049934D01*
X798423Y-1046937D01*
X844092Y-1025398D01*
X851916Y-1021334D01*
X866495Y-1012952D01*
X878382Y-1005128D01*
X882853Y-1001725D01*
X886002Y-998778D01*
X897890Y-986129D01*
X847750Y-935736D01*
X832205Y-920750D01*
X819810Y-909370D01*
X815289Y-905510D01*
X812088Y-903071D01*
X810412Y-902208D01*
X808837Y-904646D01*
X807516Y-911250D01*
X806653Y-921003D01*
X806348Y-932942D01*
X806348Y-963676D01*
X785977Y-969771D01*
X781253Y-970991D01*
X775563Y-972159D01*
X762203Y-974090D01*
X747623Y-975410D01*
X733552Y-975868D01*
X726084Y-975664D01*
X718312Y-975106D01*
X710387Y-974191D01*
X702411Y-972972D01*
X694537Y-971397D01*
X686917Y-969568D01*
X679653Y-967486D01*
X672846Y-965200D01*
X666597Y-962609D01*
X659841Y-959358D01*
X645566Y-951382D01*
X631748Y-942340D01*
X625551Y-937717D01*
X620115Y-933246D01*
X612495Y-925931D01*
X605028Y-917600D01*
X597916Y-908405D01*
X591159Y-898448D01*
X584911Y-887882D01*
X579221Y-876858D01*
X573125Y-863498D01*
X568655Y-851966D01*
X566978Y-846582D01*
X565607Y-841298D01*
X564540Y-835964D01*
X563118Y-824687D01*
X562559Y-811733D01*
X562508Y-796594D01*
X563118Y-783336D01*
X563727Y-777494D01*
X564642Y-772007D01*
X565810Y-766572D01*
X567385Y-761187D01*
X569315Y-755599D01*
X571652Y-749655D01*
X577850Y-736041D01*
X601065Y-689457D01*
X578916Y-666851D01*
X569874Y-658114D01*
X561594Y-650951D01*
X555040Y-646074D01*
X551129Y-644296D01*
X548132Y-645617D01*
X544169Y-649224D01*
X539800Y-654558D01*
X535533Y-661111D01*
X525627Y-677875D01*
X517601Y-665022D01*
X512368Y-658012D01*
X504088Y-648360D01*
X493928Y-637387D01*
X482955Y-626364D01*
X478790Y-622452D01*
X469341Y-614527D01*
X458724Y-606602D01*
X447344Y-598982D01*
X435609Y-591870D01*
X423824Y-585520D01*
X412648Y-580288D01*
X400862Y-575462D01*
X388467Y-570941D01*
X376072Y-566928D01*
X364388Y-563676D01*
X354076Y-561289D01*
X343255Y-559714D01*
X330098Y-558393D01*
G37*
G36*
X767181Y-558139D02*
G01*
X725474Y-558495D01*
X716940Y-559206D01*
X697331Y-561543D01*
X687933Y-562965D01*
X682904Y-563981D01*
X669848Y-567740D01*
X654202Y-573278D01*
X637844Y-579932D01*
X622401Y-587095D01*
X607720Y-594969D01*
X601014Y-598881D01*
X589889Y-606196D01*
X585876Y-609346D01*
X583082Y-611987D01*
X572973Y-623417D01*
X623062Y-673862D01*
X638556Y-688898D01*
X650900Y-700278D01*
X658571Y-706577D01*
X660247Y-707440D01*
X661771Y-705002D01*
X663041Y-698347D01*
X663905Y-688441D01*
X664260Y-666394D01*
X664565Y-658723D01*
X665226Y-652983D01*
X666496Y-648766D01*
X668477Y-645718D01*
X671423Y-643432D01*
X675487Y-641502D01*
X680821Y-639572D01*
X684936Y-638403D01*
X690372Y-637336D01*
X704240Y-635558D01*
X720547Y-634390D01*
X737362Y-634085D01*
X749808Y-634441D01*
X761695Y-635304D01*
X772871Y-636727D01*
X783082Y-638556D01*
X792226Y-640892D01*
X800150Y-643585D01*
X805230Y-645922D01*
X810971Y-648919D01*
X817219Y-652526D01*
X830326Y-661009D01*
X836828Y-665632D01*
X848614Y-674979D01*
X856945Y-682752D01*
X864768Y-691184D01*
X868476Y-695604D01*
X875487Y-705053D01*
X882040Y-715264D01*
X888085Y-726186D01*
X894181Y-738886D01*
X899363Y-751128D01*
X901395Y-756716D01*
X903071Y-762101D01*
X904443Y-767384D01*
X905510Y-772769D01*
X906322Y-778357D01*
X907237Y-790651D01*
X907491Y-805332D01*
X907237Y-820470D01*
X906881Y-826973D01*
X906271Y-832916D01*
X905408Y-838504D01*
X904240Y-843940D01*
X902716Y-849325D01*
X900836Y-854913D01*
X895705Y-867206D01*
X888492Y-882142D01*
X869492Y-920242D01*
X891641Y-942797D01*
X900684Y-951534D01*
X908964Y-958748D01*
X915517Y-963574D01*
X919480Y-965352D01*
X920953Y-964742D01*
X923036Y-963066D01*
X925626Y-960424D01*
X931926Y-952601D01*
X939037Y-942289D01*
X946302Y-930249D01*
X953769Y-916584D01*
X960678Y-902665D01*
X966165Y-890320D01*
X969264Y-881786D01*
X971448Y-873201D01*
X973582Y-862837D01*
X975512Y-851306D01*
X977137Y-839216D01*
X978357Y-827176D01*
X979119Y-815238D01*
X979373Y-802487D01*
X979119Y-789635D01*
X978408Y-777087D01*
X977290Y-765352D01*
X975766Y-754888D01*
X973277Y-743915D01*
X969365Y-730148D01*
X964742Y-716381D01*
X959967Y-704392D01*
X957732Y-699566D01*
X952195Y-689406D01*
X945032Y-677367D01*
X937107Y-664870D01*
X929386Y-653491D01*
X911606Y-628497D01*
X1316837Y-628497D01*
X1316837Y-560171D01*
X881380Y-558241D01*
G37*
G36*
X321259Y-661568D02*
G01*
X304850Y-661924D01*
X290677Y-663041D01*
X278536Y-664413D01*
X269748Y-666038D01*
X266954Y-666800D01*
X265480Y-667562D01*
X264718Y-669391D01*
X265226Y-671576D01*
X266903Y-673963D01*
X269646Y-676148D01*
X274370Y-677824D01*
X281533Y-678738D01*
X290169Y-678789D01*
X304546Y-677418D01*
X310337Y-677265D01*
X316484Y-677418D01*
X322935Y-677926D01*
X329590Y-678789D01*
X336397Y-679958D01*
X343154Y-681431D01*
X349859Y-683209D01*
X356920Y-685495D01*
X363778Y-688136D01*
X370382Y-691184D01*
X376732Y-694588D01*
X382879Y-698398D01*
X388721Y-702614D01*
X394360Y-707136D01*
X399796Y-712063D01*
X404571Y-717092D01*
X409295Y-722680D01*
X413867Y-728726D01*
X418185Y-735126D01*
X422249Y-741781D01*
X425958Y-748588D01*
X429259Y-755497D01*
X432054Y-762355D01*
X436372Y-774903D01*
X439928Y-787095D01*
X442315Y-797509D01*
X443179Y-804824D01*
X442976Y-807974D01*
X442366Y-811987D01*
X440080Y-822096D01*
X436778Y-833729D01*
X432663Y-845616D01*
X430123Y-851814D01*
X427024Y-858215D01*
X423468Y-864666D01*
X419557Y-871067D01*
X415391Y-877214D01*
X411073Y-882954D01*
X406704Y-888136D01*
X402437Y-892606D01*
X393344Y-900684D01*
X383235Y-908608D01*
X373329Y-915517D01*
X368858Y-918311D01*
X364896Y-920496D01*
X360273Y-922528D01*
X354990Y-924306D01*
X349097Y-925880D01*
X342595Y-927150D01*
X335635Y-928116D01*
X328117Y-928878D01*
X320192Y-929284D01*
X304596Y-929538D01*
X290982Y-930148D01*
X279603Y-931265D01*
X275183Y-931976D01*
X271881Y-932738D01*
X269798Y-933602D01*
X267157Y-935634D01*
X266090Y-937564D01*
X266649Y-939444D01*
X268782Y-941222D01*
X273050Y-942848D01*
X280314Y-944626D01*
X289712Y-946353D01*
X300075Y-947775D01*
X306425Y-948334D01*
X313029Y-948537D01*
X319836Y-948334D01*
X326847Y-947775D01*
X333959Y-946912D01*
X341172Y-945642D01*
X348488Y-944016D01*
X355854Y-942035D01*
X363372Y-939596D01*
X370687Y-936802D01*
X377698Y-933602D01*
X384505Y-930046D01*
X391058Y-926033D01*
X397459Y-921562D01*
X403707Y-916686D01*
X409803Y-911402D01*
X414782Y-906576D01*
X424891Y-895603D01*
X429717Y-889812D01*
X438200Y-878433D01*
X441553Y-873252D01*
X444195Y-868629D01*
X446379Y-863803D01*
X448564Y-858164D01*
X452526Y-845210D01*
X455625Y-831392D01*
X456742Y-824687D01*
X457504Y-818388D01*
X457911Y-812038D01*
X458063Y-805281D01*
X457657Y-791362D01*
X457149Y-784606D01*
X455472Y-772566D01*
X454355Y-767689D01*
X452882Y-762914D01*
X448462Y-751738D01*
X442671Y-739648D01*
X436168Y-728065D01*
X432917Y-722934D01*
X429412Y-718007D01*
X425399Y-712876D01*
X416458Y-702767D01*
X407212Y-693826D01*
X402844Y-690118D01*
X398830Y-687171D01*
X390093Y-681736D01*
X379933Y-676198D01*
X369620Y-671169D01*
X360426Y-667359D01*
X355346Y-665683D01*
X349605Y-664311D01*
X343255Y-663244D01*
X336397Y-662381D01*
X329031Y-661822D01*
G37*
G36*
X64008Y-754837D02*
G01*
X60655Y-755040D01*
X58115Y-755954D01*
X56286Y-758088D01*
X55067Y-761898D01*
X54457Y-767892D01*
X54254Y-776478D01*
X54813Y-803452D01*
X55930Y-828598D01*
X56692Y-837184D01*
X57708Y-843635D01*
X59029Y-848156D01*
X60756Y-851153D01*
X62890Y-852932D01*
X65532Y-853846D01*
X68326Y-854049D01*
X70459Y-853236D01*
X72085Y-851052D01*
X73253Y-847039D01*
X74015Y-840841D01*
X74472Y-832103D01*
X74777Y-805230D01*
X74472Y-777443D01*
X74015Y-768553D01*
X73152Y-762304D01*
X71831Y-758342D01*
X69951Y-756056D01*
X67360Y-755040D01*
G37*
G36*
X101092Y-754837D02*
G01*
X97790Y-755091D01*
X95300Y-756107D01*
X93421Y-758393D01*
X92151Y-762457D01*
X91287Y-768654D01*
X90830Y-777544D01*
X90525Y-805180D01*
X90779Y-833780D01*
X91236Y-842670D01*
X92100Y-848614D01*
X93573Y-852169D01*
X95656Y-853897D01*
X98552Y-854252D01*
X102362Y-853897D01*
X108305Y-851712D01*
X114147Y-846785D01*
X119887Y-839114D01*
X125628Y-828497D01*
X137058Y-804824D01*
X138785Y-828497D01*
X140106Y-840486D01*
X142189Y-847699D01*
X145694Y-851255D01*
X151079Y-852169D01*
X154279Y-851916D01*
X156819Y-850849D01*
X158750Y-848563D01*
X160172Y-844600D01*
X161239Y-838555D01*
X162001Y-829970D01*
X163118Y-803503D01*
X164642Y-754837D01*
X151384Y-754837D01*
X147675Y-755091D01*
X144272Y-755954D01*
X141173Y-757529D01*
X138176Y-759917D01*
X135178Y-763219D01*
X132080Y-767588D01*
X128727Y-773074D01*
X112064Y-804824D01*
X111861Y-779830D01*
X111353Y-766876D01*
X109778Y-759307D01*
X106527Y-755700D01*
G37*
G36*
X185267Y-754837D02*
G01*
X181813Y-755040D01*
X179222Y-755954D01*
X177342Y-758037D01*
X176123Y-761847D01*
X175463Y-767791D01*
X175260Y-776427D01*
X175869Y-803503D01*
X176987Y-829970D01*
X177749Y-838555D01*
X178765Y-844600D01*
X180238Y-848563D01*
X182168Y-850849D01*
X184658Y-851916D01*
X187909Y-852169D01*
X191109Y-851966D01*
X193598Y-851001D01*
X195529Y-848918D01*
X197002Y-845464D01*
X198069Y-840282D01*
X198831Y-832916D01*
X199999Y-810564D01*
X200355Y-793851D01*
X200304Y-779068D01*
X199745Y-767892D01*
X199339Y-764133D01*
X198831Y-761847D01*
X196951Y-759155D01*
X193751Y-756920D01*
X189687Y-755396D01*
G37*
G36*
X211582Y-754837D02*
G01*
X211632Y-820318D01*
X211886Y-832256D01*
X212344Y-841095D01*
X213207Y-847242D01*
X214477Y-851255D01*
X216357Y-853541D01*
X218846Y-854608D01*
X222097Y-854811D01*
X227634Y-853897D01*
X230886Y-849985D01*
X232511Y-841603D01*
X233171Y-827176D01*
X233679Y-799541D01*
X241757Y-819302D01*
X245516Y-826973D01*
X249682Y-833221D01*
X253796Y-837488D01*
X257302Y-839012D01*
X261010Y-837285D01*
X265531Y-832459D01*
X270357Y-825347D01*
X274878Y-816660D01*
X285038Y-794308D01*
X285292Y-833831D01*
X285546Y-840790D01*
X286054Y-846074D01*
X286918Y-849833D01*
X288086Y-852322D01*
X289712Y-853643D01*
X291846Y-854100D01*
X294487Y-853846D01*
X297129Y-852932D01*
X299313Y-851153D01*
X300990Y-848156D01*
X302310Y-843635D01*
X303326Y-837184D01*
X304088Y-828598D01*
X305206Y-803452D01*
X306730Y-754837D01*
X286766Y-754989D01*
X283006Y-755650D01*
X279806Y-756869D01*
X277012Y-758850D01*
X274472Y-761695D01*
X272034Y-765606D01*
X269494Y-770737D01*
X257556Y-799541D01*
X250596Y-783793D01*
X247904Y-777138D01*
X245617Y-770686D01*
X244043Y-765200D01*
X243433Y-761390D01*
X242112Y-758799D01*
X238709Y-756716D01*
X233679Y-755345D01*
X227380Y-754837D01*
G37*
G36*
X1022096Y-754837D02*
G01*
X1022096Y-828497D01*
X1248460Y-828497D01*
X1248460Y-1049578D01*
X1316837Y-1049578D01*
X1316837Y-754837D01*
G37*
G36*
X36322Y-760069D02*
G01*
X33172Y-760577D01*
X29667Y-761949D01*
X26162Y-763930D01*
X23164Y-766419D01*
X20726Y-771194D01*
X18694Y-779526D01*
X17373Y-790244D01*
X16865Y-802182D01*
X17373Y-814120D01*
X18694Y-824890D01*
X20726Y-833221D01*
X23164Y-837996D01*
X26162Y-840435D01*
X29667Y-842467D01*
X33172Y-843787D01*
X36322Y-844296D01*
X38049Y-843787D01*
X39522Y-842111D01*
X40690Y-839165D01*
X41656Y-834898D01*
X42316Y-829157D01*
X42824Y-821893D01*
X43180Y-802182D01*
X42824Y-782523D01*
X42316Y-775258D01*
X41656Y-769518D01*
X40690Y-765251D01*
X39522Y-762304D01*
X38049Y-760628D01*
G37*
G36*
X324561Y-760069D02*
G01*
X322478Y-760526D01*
X320802Y-761949D01*
X319430Y-764590D01*
X318414Y-768604D01*
X317703Y-774192D01*
X317195Y-781507D01*
X316839Y-802182D01*
X317195Y-822909D01*
X317703Y-830224D01*
X318414Y-835812D01*
X319430Y-839825D01*
X320802Y-842416D01*
X322478Y-843889D01*
X324561Y-844296D01*
X328015Y-843483D01*
X331622Y-841298D01*
X335026Y-838098D01*
X337718Y-834136D01*
X339852Y-828446D01*
X341579Y-820521D01*
X342747Y-811428D01*
X343154Y-802182D01*
X342747Y-792937D01*
X341579Y-783844D01*
X339852Y-775919D01*
X337718Y-770280D01*
X335026Y-766318D01*
X331622Y-763066D01*
X328015Y-760882D01*
G37*
G36*
X1316837Y-1065326D02*
G01*
X490423Y-1067257D01*
X318262Y-1068019D01*
X259435Y-1068527D01*
X215798Y-1069238D01*
X185064Y-1070152D01*
X164947Y-1071372D01*
X158191Y-1072032D01*
X153263Y-1072845D01*
X149809Y-1073708D01*
X147269Y-1074928D01*
X146151Y-1076299D01*
X145796Y-1077823D01*
X145999Y-1080414D01*
X146659Y-1081582D01*
X148082Y-1082598D01*
X151384Y-1083767D01*
X155498Y-1084580D01*
X161340Y-1085342D01*
X169113Y-1086002D01*
X191617Y-1087120D01*
X225399Y-1087983D01*
X272592Y-1088644D01*
X335584Y-1089152D01*
X517753Y-1089863D01*
X1316837Y-1091692D01*
G37*
G36*
X719480Y-1123238D02*
G01*
X716381Y-1124051D01*
X713892Y-1126337D01*
X712216Y-1129639D01*
X711606Y-1133754D01*
X712216Y-1137869D01*
X713892Y-1141222D01*
X716381Y-1143457D01*
X719480Y-1144320D01*
X722579Y-1143457D01*
X725068Y-1141222D01*
X726744Y-1137869D01*
X727405Y-1133754D01*
X726744Y-1129639D01*
X725068Y-1126337D01*
X722579Y-1124051D01*
G37*
G36*
X1066850Y-1123238D02*
G01*
X1063752Y-1124051D01*
X1061262Y-1126337D01*
X1059586Y-1129639D01*
X1058976Y-1133754D01*
X1059586Y-1137869D01*
X1061262Y-1141222D01*
X1063752Y-1143457D01*
X1066850Y-1144320D01*
X1069949Y-1143457D01*
X1072438Y-1141222D01*
X1074115Y-1137869D01*
X1074775Y-1133754D01*
X1074115Y-1129639D01*
X1072438Y-1126337D01*
X1069949Y-1124051D01*
G37*
G36*
X161747Y-1133754D02*
G01*
X152806Y-1134262D01*
X144526Y-1135634D01*
X137871Y-1137615D01*
X133705Y-1140104D01*
X131267Y-1143304D01*
X129235Y-1147318D01*
X127863Y-1151686D01*
X127406Y-1155903D01*
X127965Y-1159560D01*
X129539Y-1162558D01*
X131826Y-1164590D01*
X134670Y-1165352D01*
X137718Y-1164539D01*
X140614Y-1162253D01*
X143052Y-1158900D01*
X146761Y-1150162D01*
X150114Y-1146911D01*
X154889Y-1144930D01*
X161086Y-1144320D01*
X165506Y-1144422D01*
X168859Y-1144981D01*
X171246Y-1146352D01*
X172923Y-1148892D01*
X173939Y-1153058D01*
X174498Y-1159103D01*
X174752Y-1178509D01*
X174752Y-1212697D01*
X158953Y-1212697D01*
X152044Y-1212240D01*
X147116Y-1210767D01*
X144170Y-1208278D01*
X143154Y-1204823D01*
X142544Y-1201775D01*
X140868Y-1199235D01*
X138328Y-1197559D01*
X135280Y-1196949D01*
X132232Y-1197660D01*
X129692Y-1199692D01*
X128016Y-1202740D01*
X127406Y-1206398D01*
X127863Y-1210564D01*
X129235Y-1214932D01*
X131267Y-1218996D01*
X133705Y-1222197D01*
X137668Y-1224635D01*
X143713Y-1226667D01*
X151130Y-1227988D01*
X158953Y-1228496D01*
X166827Y-1227988D01*
X174193Y-1226667D01*
X180289Y-1224635D01*
X184251Y-1222197D01*
X185572Y-1220165D01*
X186791Y-1216914D01*
X187858Y-1212545D01*
X188772Y-1207211D01*
X189534Y-1200962D01*
X190449Y-1186434D01*
X190449Y-1170736D01*
X189941Y-1156766D01*
X188976Y-1145692D01*
X188417Y-1141628D01*
X187756Y-1138732D01*
X187045Y-1137310D01*
X183946Y-1135938D01*
X178155Y-1134821D01*
X170484Y-1134059D01*
G37*
G36*
X358648Y-1133754D02*
G01*
X347065Y-1134211D01*
X338785Y-1135684D01*
X333400Y-1138275D01*
X330555Y-1142085D01*
X329336Y-1147927D01*
X328320Y-1157579D01*
X327660Y-1169771D01*
X327406Y-1183132D01*
X327507Y-1189990D01*
X328422Y-1202690D01*
X329184Y-1208278D01*
X330058Y-1212697D01*
X342646Y-1212697D01*
X344779Y-1169365D01*
X345440Y-1161338D01*
X346303Y-1155446D01*
X347624Y-1151331D01*
X349504Y-1148588D01*
X352145Y-1146911D01*
X355650Y-1145895D01*
X374751Y-1143609D01*
X374751Y-1212697D01*
X330058Y-1212697D01*
X331216Y-1217168D01*
X332384Y-1220266D01*
X333705Y-1222197D01*
X337667Y-1224635D01*
X343712Y-1226667D01*
X351129Y-1227988D01*
X358952Y-1228496D01*
X366826Y-1227988D01*
X374192Y-1226667D01*
X380288Y-1224635D01*
X384200Y-1222197D01*
X385572Y-1220165D01*
X386791Y-1216914D01*
X387858Y-1212545D01*
X388772Y-1207211D01*
X389534Y-1200962D01*
X390448Y-1186434D01*
X390448Y-1170736D01*
X389940Y-1156766D01*
X388975Y-1145692D01*
X388416Y-1141628D01*
X387756Y-1138732D01*
X387045Y-1137310D01*
X383692Y-1135938D01*
X377240Y-1134821D01*
X368604Y-1134059D01*
G37*
G36*
X548436Y-1133754D02*
G01*
X538226Y-1134211D01*
X529844Y-1135329D01*
X524205Y-1137005D01*
X522122Y-1139037D01*
X523595Y-1141069D01*
X527558Y-1142746D01*
X533400Y-1143863D01*
X550570Y-1144727D01*
X556107Y-1146759D01*
X558444Y-1151483D01*
X558952Y-1160068D01*
X558444Y-1168501D01*
X556310Y-1173226D01*
X551586Y-1175410D01*
X537057Y-1176274D01*
X532028Y-1177442D01*
X528624Y-1179118D01*
X527405Y-1181150D01*
X528624Y-1183182D01*
X532028Y-1184859D01*
X537057Y-1185976D01*
X551942Y-1186891D01*
X556666Y-1189482D01*
X558596Y-1195781D01*
X559409Y-1217168D01*
X560781Y-1223670D01*
X563219Y-1227378D01*
X566877Y-1228496D01*
X569061Y-1228039D01*
X570788Y-1226515D01*
X572160Y-1223721D01*
X573227Y-1219301D01*
X573938Y-1213104D01*
X574446Y-1204823D01*
X574751Y-1181150D01*
X574751Y-1133754D01*
G37*
G36*
X1306322Y-1154785D02*
G01*
X1214221Y-1157478D01*
X1212291Y-1202893D01*
X1212240Y-1210868D01*
X1212443Y-1217066D01*
X1212951Y-1221689D01*
X1213866Y-1224991D01*
X1215237Y-1227074D01*
X1217015Y-1228191D01*
X1219250Y-1228496D01*
X1221435Y-1228191D01*
X1223264Y-1227074D01*
X1224635Y-1225092D01*
X1225753Y-1222044D01*
X1226515Y-1217777D01*
X1227023Y-1212240D01*
X1227683Y-1178915D01*
X1228191Y-1173327D01*
X1229106Y-1169568D01*
X1230579Y-1167231D01*
X1232662Y-1166114D01*
X1235506Y-1165910D01*
X1239215Y-1166317D01*
X1242771Y-1167028D01*
X1245565Y-1168146D01*
X1247698Y-1169974D01*
X1249324Y-1172768D01*
X1250543Y-1176731D01*
X1251458Y-1182166D01*
X1252118Y-1189228D01*
X1252626Y-1198270D01*
X1253642Y-1210005D01*
X1255166Y-1219606D01*
X1256995Y-1226108D01*
X1258976Y-1228496D01*
X1260906Y-1226108D01*
X1262786Y-1219606D01*
X1264310Y-1210005D01*
X1266494Y-1182166D01*
X1267358Y-1176731D01*
X1268577Y-1172768D01*
X1270203Y-1169974D01*
X1272387Y-1168146D01*
X1275181Y-1167028D01*
X1278686Y-1166317D01*
X1282395Y-1165910D01*
X1285240Y-1166114D01*
X1287373Y-1167231D01*
X1288796Y-1169568D01*
X1289761Y-1173327D01*
X1290269Y-1178915D01*
X1290929Y-1212037D01*
X1291437Y-1217625D01*
X1292199Y-1221892D01*
X1293215Y-1224991D01*
X1294587Y-1227023D01*
X1296314Y-1228140D01*
X1298448Y-1228496D01*
X1300581Y-1228140D01*
X1302308Y-1226870D01*
X1303680Y-1224584D01*
X1304747Y-1221079D01*
X1305509Y-1216152D01*
X1306271Y-1201623D01*
G37*
G36*
X719480Y-1154836D02*
G01*
X717346Y-1155192D01*
X715619Y-1156462D01*
X714248Y-1158798D01*
X713181Y-1162304D01*
X712419Y-1167180D01*
X711657Y-1181709D01*
X711657Y-1201623D01*
X712419Y-1216152D01*
X713181Y-1221079D01*
X714248Y-1224584D01*
X715619Y-1226870D01*
X717346Y-1228140D01*
X719480Y-1228496D01*
X721614Y-1228140D01*
X723341Y-1226870D01*
X724763Y-1224584D01*
X725779Y-1221079D01*
X726541Y-1216152D01*
X727049Y-1209751D01*
X727405Y-1191666D01*
X727049Y-1173581D01*
X726541Y-1167180D01*
X725779Y-1162304D01*
X724763Y-1158798D01*
X723341Y-1156462D01*
X721614Y-1155192D01*
G37*
G36*
X896366Y-1154836D02*
G01*
X884326Y-1155293D01*
X875792Y-1156716D01*
X870305Y-1159306D01*
X867410Y-1163167D01*
X866190Y-1168654D01*
X865174Y-1177391D01*
X864463Y-1188262D01*
X864209Y-1199997D01*
X864616Y-1213459D01*
X865886Y-1222298D01*
X868273Y-1227074D01*
X871880Y-1228496D01*
X875487Y-1226921D01*
X878128Y-1221740D01*
X879906Y-1212392D01*
X881583Y-1189888D01*
X882294Y-1183081D01*
X883158Y-1177696D01*
X884275Y-1173581D01*
X885698Y-1170533D01*
X887526Y-1168400D01*
X889762Y-1167028D01*
X892556Y-1166215D01*
X896721Y-1166012D01*
X900836Y-1166977D01*
X904392Y-1168806D01*
X906932Y-1171397D01*
X908710Y-1176121D01*
X910132Y-1183792D01*
X911148Y-1193241D01*
X911961Y-1213205D01*
X913130Y-1221181D01*
X914806Y-1226515D01*
X916838Y-1228496D01*
X917956Y-1227785D01*
X918971Y-1225702D01*
X919835Y-1222400D01*
X921258Y-1212596D01*
X922019Y-1199286D01*
X922121Y-1154836D01*
G37*
G36*
X1066850Y-1154836D02*
G01*
X1064717Y-1155192D01*
X1062990Y-1156462D01*
X1061618Y-1158798D01*
X1060551Y-1162304D01*
X1059789Y-1167180D01*
X1059027Y-1181709D01*
X1059027Y-1201623D01*
X1059789Y-1216152D01*
X1060551Y-1221079D01*
X1061618Y-1224584D01*
X1062990Y-1226870D01*
X1064717Y-1228140D01*
X1066850Y-1228496D01*
X1068984Y-1228140D01*
X1070711Y-1226870D01*
X1072134Y-1224584D01*
X1073150Y-1221079D01*
X1073912Y-1216152D01*
X1074420Y-1209751D01*
X1074775Y-1191666D01*
X1074420Y-1173581D01*
X1073912Y-1167180D01*
X1073150Y-1162304D01*
X1072134Y-1158798D01*
X1070711Y-1156462D01*
X1068984Y-1155192D01*
G37*
D11*
X1579572Y-424606D02*
G01*
X1694116Y-424606D01*
X1579572Y-424606D02*
G01*
X1579572Y-462787D01*
X1585026Y-479153D01*
X1595935Y-490059D01*
X1606844Y-495515D01*
X1623207Y-500969D01*
X1650479Y-500969D01*
X1666844Y-495515D01*
X1677753Y-490059D01*
X1688663Y-479153D01*
X1694116Y-462787D01*
X1694116Y-424606D01*
X1650479Y-536971D02*
G01*
X1650479Y-602424D01*
X1639572Y-602424D01*
X1628663Y-596971D01*
X1623207Y-591515D01*
X1617753Y-580605D01*
X1617753Y-564243D01*
X1623207Y-553333D01*
X1634116Y-542424D01*
X1650479Y-536971D01*
X1661388Y-536971D01*
X1677753Y-542424D01*
X1688663Y-553333D01*
X1694116Y-564243D01*
X1694116Y-580605D01*
X1688663Y-591515D01*
X1677753Y-602424D01*
X1634116Y-698423D02*
G01*
X1623207Y-692970D01*
X1617753Y-676605D01*
X1617753Y-660242D01*
X1623207Y-643879D01*
X1634116Y-638423D01*
X1645025Y-643879D01*
X1650479Y-654789D01*
X1655935Y-682061D01*
X1661388Y-692970D01*
X1672297Y-698423D01*
X1677753Y-698423D01*
X1688663Y-692970D01*
X1694116Y-676605D01*
X1694116Y-660242D01*
X1688663Y-643879D01*
X1677753Y-638423D01*
X1579572Y-734423D02*
G01*
X1585026Y-739879D01*
X1579572Y-745332D01*
X1574116Y-739879D01*
X1579572Y-734423D01*
X1617753Y-739879D02*
G01*
X1694116Y-739879D01*
X1617753Y-846787D02*
G01*
X1705025Y-846787D01*
X1721388Y-841334D01*
X1726844Y-835878D01*
X1732297Y-824969D01*
X1732297Y-808606D01*
X1726844Y-797697D01*
X1634116Y-846787D02*
G01*
X1623207Y-835878D01*
X1617753Y-824969D01*
X1617753Y-808606D01*
X1623207Y-797697D01*
X1634116Y-786787D01*
X1650479Y-781334D01*
X1661388Y-781334D01*
X1677753Y-786787D01*
X1688663Y-797697D01*
X1694116Y-808606D01*
X1694116Y-824969D01*
X1688663Y-835878D01*
X1677753Y-846787D01*
X1617753Y-882787D02*
G01*
X1694116Y-882787D01*
X1639572Y-882787D02*
G01*
X1623207Y-899152D01*
X1617753Y-910059D01*
X1617753Y-926424D01*
X1623207Y-937333D01*
X1639572Y-942787D01*
X1694116Y-942787D01*
X1650479Y-978786D02*
G01*
X1650479Y-1044242D01*
X1639572Y-1044242D01*
X1628663Y-1038786D01*
X1623207Y-1033332D01*
X1617753Y-1022423D01*
X1617753Y-1006060D01*
X1623207Y-995151D01*
X1634116Y-984242D01*
X1650479Y-978786D01*
X1661388Y-978786D01*
X1677753Y-984242D01*
X1688663Y-995151D01*
X1694116Y-1006060D01*
X1694116Y-1022423D01*
X1688663Y-1033332D01*
X1677753Y-1044242D01*
X1579572Y-1145694D02*
G01*
X1694116Y-1145694D01*
X1634116Y-1145694D02*
G01*
X1623207Y-1134788D01*
X1617753Y-1123878D01*
X1617753Y-1107513D01*
X1623207Y-1096604D01*
X1634116Y-1085695D01*
X1650479Y-1080241D01*
X1661388Y-1080241D01*
X1677753Y-1085695D01*
X1688663Y-1096604D01*
X1694116Y-1107513D01*
X1694116Y-1123878D01*
X1688663Y-1134788D01*
X1677753Y-1145694D01*
X1579572Y-1265694D02*
G01*
X1694116Y-1265694D01*
X1579572Y-1265694D02*
G01*
X1579572Y-1314787D01*
X1585026Y-1331150D01*
X1590479Y-1336603D01*
X1601388Y-1342059D01*
X1612298Y-1342059D01*
X1623207Y-1336603D01*
X1628663Y-1331150D01*
X1634116Y-1314787D01*
X1634116Y-1265694D02*
G01*
X1634116Y-1314787D01*
X1639572Y-1331150D01*
X1645025Y-1336603D01*
X1655935Y-1342059D01*
X1672297Y-1342059D01*
X1683207Y-1336603D01*
X1688663Y-1331150D01*
X1694116Y-1314787D01*
X1694116Y-1265694D01*
X1617753Y-1383515D02*
G01*
X1694116Y-1416240D01*
X1617753Y-1448968D02*
G01*
X1694116Y-1416240D01*
X1715935Y-1405331D01*
X1726844Y-1394421D01*
X1732297Y-1383515D01*
X1732297Y-1378059D01*
X1782772Y-500969D02*
G01*
X1897316Y-424606D01*
X1782772Y-424606D02*
G01*
X1782772Y-500969D01*
X1897316Y-424606D02*
G01*
X1897316Y-500969D01*
X1782772Y-536971D02*
G01*
X1897316Y-536971D01*
X1842772Y-536971D02*
G01*
X1826407Y-553333D01*
X1820953Y-564243D01*
X1820953Y-580605D01*
X1826407Y-591515D01*
X1842772Y-596971D01*
X1897316Y-596971D01*
X1820953Y-632970D02*
G01*
X1875497Y-632970D01*
X1891863Y-638423D01*
X1897316Y-649333D01*
X1897316Y-665695D01*
X1891863Y-676605D01*
X1875497Y-692970D01*
X1820953Y-692970D02*
G01*
X1897316Y-692970D01*
X1782772Y-728969D02*
G01*
X1837316Y-772607D01*
X1897316Y-772607D01*
X1782772Y-816241D02*
G01*
X1837316Y-772607D01*
X1820953Y-917696D02*
G01*
X1897316Y-917696D01*
X1837316Y-917696D02*
G01*
X1826407Y-906787D01*
X1820953Y-895878D01*
X1820953Y-879515D01*
X1826407Y-868606D01*
X1837316Y-857697D01*
X1853679Y-852241D01*
X1864588Y-852241D01*
X1880953Y-857697D01*
X1891863Y-868606D01*
X1897316Y-879515D01*
X1897316Y-895878D01*
X1891863Y-906787D01*
X1880953Y-917696D01*
X1820953Y-953696D02*
G01*
X1897316Y-953696D01*
X1842772Y-953696D02*
G01*
X1826407Y-970059D01*
X1820953Y-980968D01*
X1820953Y-997333D01*
X1826407Y-1008242D01*
X1842772Y-1013696D01*
X1897316Y-1013696D01*
X1820953Y-1109695D02*
G01*
X1897316Y-1049695D01*
X1820953Y-1049695D02*
G01*
X1820953Y-1109695D01*
X1897316Y-1049695D02*
G01*
X1897316Y-1109695D01*
X1782772Y-1145694D02*
G01*
X1897316Y-1145694D01*
X1842772Y-1145694D02*
G01*
X1826407Y-1162060D01*
X1820953Y-1172969D01*
X1820953Y-1189332D01*
X1826407Y-1200241D01*
X1842772Y-1205694D01*
X1897316Y-1205694D01*
X1853679Y-1241696D02*
G01*
X1853679Y-1307150D01*
X1842772Y-1307150D01*
X1831863Y-1301696D01*
X1826407Y-1296240D01*
X1820953Y-1285331D01*
X1820953Y-1268968D01*
X1826407Y-1258059D01*
X1837316Y-1247150D01*
X1853679Y-1241696D01*
X1864588Y-1241696D01*
X1880953Y-1247150D01*
X1891863Y-1258059D01*
X1897316Y-1268968D01*
X1897316Y-1285331D01*
X1891863Y-1296240D01*
X1880953Y-1307150D01*
X1820953Y-1343149D02*
G01*
X1897316Y-1343149D01*
X1842772Y-1343149D02*
G01*
X1826407Y-1359514D01*
X1820953Y-1370423D01*
X1820953Y-1386786D01*
X1826407Y-1397695D01*
X1842772Y-1403149D01*
X1897316Y-1403149D01*
D44*
X1199791Y-1805355D02*
G01*
X1287063Y-1805355D01*
X1303426Y-1799899D01*
X1308882Y-1794446D01*
X1314335Y-1783537D01*
X1314335Y-1767171D01*
X1308882Y-1756262D01*
X1216154Y-1805355D02*
G01*
X1205245Y-1794446D01*
X1199791Y-1783537D01*
X1199791Y-1767171D01*
X1205245Y-1756262D01*
X1216154Y-1745353D01*
X1232517Y-1739900D01*
X1243426Y-1739900D01*
X1259791Y-1745353D01*
X1270701Y-1756262D01*
X1276154Y-1767171D01*
X1276154Y-1783537D01*
X1270701Y-1794446D01*
X1259791Y-1805355D01*
X1161608Y-1841355D02*
G01*
X1167063Y-1846808D01*
X1161608Y-1852264D01*
X1156154Y-1846808D01*
X1161608Y-1841355D01*
X1199791Y-1846808D02*
G01*
X1276154Y-1846808D01*
X1161608Y-1904626D02*
G01*
X1254335Y-1904626D01*
X1270701Y-1910082D01*
X1276154Y-1920991D01*
X1276154Y-1931901D01*
X1199791Y-1888263D02*
G01*
X1199791Y-1926445D01*
X1161608Y-1967900D02*
G01*
X1276154Y-1967900D01*
X1221607Y-1967900D02*
G01*
X1205245Y-1984263D01*
X1199791Y-1995172D01*
X1199791Y-2011535D01*
X1205245Y-2022444D01*
X1221607Y-2027900D01*
X1276154Y-2027900D01*
X1199791Y-2063899D02*
G01*
X1254335Y-2063899D01*
X1270701Y-2069355D01*
X1276154Y-2080262D01*
X1276154Y-2096627D01*
X1270701Y-2107537D01*
X1254335Y-2123899D01*
X1199791Y-2123899D02*
G01*
X1276154Y-2123899D01*
X1161608Y-2159899D02*
G01*
X1276154Y-2159899D01*
X1216154Y-2159899D02*
G01*
X1205245Y-2170808D01*
X1199791Y-2181717D01*
X1199791Y-2198082D01*
X1205245Y-2208989D01*
X1216154Y-2219899D01*
X1232517Y-2225354D01*
X1243426Y-2225354D01*
X1259791Y-2219899D01*
X1270701Y-2208989D01*
X1276154Y-2198082D01*
X1276154Y-2181717D01*
X1270701Y-2170808D01*
X1259791Y-2159899D01*
X1248882Y-2266810D02*
G01*
X1254335Y-2261354D01*
X1259791Y-2266810D01*
X1254335Y-2272263D01*
X1248882Y-2266810D01*
X1216154Y-2373718D02*
G01*
X1205245Y-2362809D01*
X1199791Y-2351900D01*
X1199791Y-2335537D01*
X1205245Y-2324628D01*
X1216154Y-2313719D01*
X1232517Y-2308263D01*
X1243426Y-2308263D01*
X1259791Y-2313719D01*
X1270701Y-2324628D01*
X1276154Y-2335537D01*
X1276154Y-2351900D01*
X1270701Y-2362809D01*
X1259791Y-2373718D01*
X1199791Y-2436990D02*
G01*
X1205245Y-2426080D01*
X1216154Y-2415171D01*
X1232517Y-2409718D01*
X1243426Y-2409718D01*
X1259791Y-2415171D01*
X1270701Y-2426080D01*
X1276154Y-2436990D01*
X1276154Y-2453355D01*
X1270701Y-2464264D01*
X1259791Y-2475171D01*
X1243426Y-2480627D01*
X1232517Y-2480627D01*
X1216154Y-2475171D01*
X1205245Y-2464264D01*
X1199791Y-2453355D01*
X1199791Y-2436990D01*
X1199791Y-2516626D02*
G01*
X1276154Y-2516626D01*
X1221607Y-2516626D02*
G01*
X1205245Y-2532992D01*
X1199791Y-2543898D01*
X1199791Y-2560264D01*
X1205245Y-2571173D01*
X1221607Y-2576626D01*
X1276154Y-2576626D01*
X1221607Y-2576626D02*
G01*
X1205245Y-2592992D01*
X1199791Y-2603898D01*
X1199791Y-2620263D01*
X1205245Y-2631173D01*
X1221607Y-2636626D01*
X1276154Y-2636626D01*
X1139791Y-2770809D02*
G01*
X1314335Y-2672626D01*
X1199791Y-2866809D02*
G01*
X1276154Y-2806809D01*
X1199791Y-2806809D02*
G01*
X1199791Y-2866809D01*
X1276154Y-2806809D02*
G01*
X1276154Y-2866809D01*
X1161608Y-2902808D02*
G01*
X1276154Y-2902808D01*
X1221607Y-2902808D02*
G01*
X1205245Y-2919173D01*
X1199791Y-2930083D01*
X1199791Y-2946445D01*
X1205245Y-2957355D01*
X1221607Y-2962808D01*
X1276154Y-2962808D01*
X1199791Y-2998810D02*
G01*
X1254335Y-2998810D01*
X1270701Y-3004263D01*
X1276154Y-3015173D01*
X1276154Y-3031535D01*
X1270701Y-3042445D01*
X1254335Y-3058810D01*
X1199791Y-3058810D02*
G01*
X1276154Y-3058810D01*
X1199791Y-3100263D02*
G01*
X1276154Y-3132990D01*
X1199791Y-3165718D02*
G01*
X1276154Y-3132990D01*
X1297973Y-3122081D01*
X1308882Y-3111172D01*
X1314335Y-3100263D01*
X1314335Y-3094809D01*
X1199791Y-3267171D02*
G01*
X1276154Y-3267171D01*
X1216154Y-3267171D02*
G01*
X1205245Y-3256264D01*
X1199791Y-3245355D01*
X1199791Y-3228990D01*
X1205245Y-3218080D01*
X1216154Y-3207171D01*
X1232517Y-3201718D01*
X1243426Y-3201718D01*
X1259791Y-3207171D01*
X1270701Y-3218080D01*
X1276154Y-3228990D01*
X1276154Y-3245355D01*
X1270701Y-3256264D01*
X1259791Y-3267171D01*
X1199791Y-3303173D02*
G01*
X1276154Y-3303173D01*
X1221607Y-3303173D02*
G01*
X1205245Y-3319536D01*
X1199791Y-3330445D01*
X1199791Y-3346808D01*
X1205245Y-3357717D01*
X1221607Y-3363173D01*
X1276154Y-3363173D01*
X1402991Y-2625399D02*
G01*
X1479354Y-2565400D01*
X1402991Y-2565400D02*
G01*
X1402991Y-2625399D01*
X1479354Y-2565400D02*
G01*
X1479354Y-2625399D01*
X1364808Y-2661399D02*
G01*
X1479354Y-2661399D01*
X1424807Y-2661399D02*
G01*
X1408445Y-2677764D01*
X1402991Y-2688673D01*
X1402991Y-2705036D01*
X1408445Y-2715945D01*
X1424807Y-2721399D01*
X1479354Y-2721399D01*
X1435717Y-2757401D02*
G01*
X1435717Y-2822854D01*
X1424807Y-2822854D01*
X1413901Y-2817401D01*
X1408445Y-2811945D01*
X1402991Y-2801035D01*
X1402991Y-2784673D01*
X1408445Y-2773763D01*
X1419354Y-2762854D01*
X1435717Y-2757401D01*
X1446626Y-2757401D01*
X1462991Y-2762854D01*
X1473901Y-2773763D01*
X1479354Y-2784673D01*
X1479354Y-2801035D01*
X1473901Y-2811945D01*
X1462991Y-2822854D01*
X1402991Y-2858853D02*
G01*
X1479354Y-2858853D01*
X1424807Y-2858853D02*
G01*
X1408445Y-2875219D01*
X1402991Y-2886128D01*
X1402991Y-2902491D01*
X1408445Y-2913400D01*
X1424807Y-2918853D01*
X1479354Y-2918853D01*
X1386626Y-2954855D02*
G01*
X1381173Y-2965762D01*
X1364808Y-2982127D01*
X1479354Y-2982127D01*
X1342991Y-3116308D02*
G01*
X1517535Y-3018127D01*
X1402991Y-3152310D02*
G01*
X1479354Y-3152310D01*
X1424807Y-3152310D02*
G01*
X1408445Y-3168672D01*
X1402991Y-3179582D01*
X1402991Y-3195944D01*
X1408445Y-3206854D01*
X1424807Y-3212310D01*
X1479354Y-3212310D01*
X1424807Y-3212310D02*
G01*
X1408445Y-3228672D01*
X1402991Y-3239582D01*
X1402991Y-3255944D01*
X1408445Y-3266854D01*
X1424807Y-3272309D01*
X1479354Y-3272309D01*
X1364808Y-3308309D02*
G01*
X1370263Y-3313762D01*
X1364808Y-3319218D01*
X1359354Y-3313762D01*
X1364808Y-3308309D01*
X1402991Y-3313762D02*
G01*
X1479354Y-3313762D01*
X1402991Y-3355218D02*
G01*
X1479354Y-3355218D01*
X1424807Y-3355218D02*
G01*
X1408445Y-3371580D01*
X1402991Y-3382490D01*
X1402991Y-3398855D01*
X1408445Y-3409764D01*
X1424807Y-3415217D01*
X1479354Y-3415217D01*
X1364808Y-3451217D02*
G01*
X1370263Y-3456673D01*
X1364808Y-3462126D01*
X1359354Y-3456673D01*
X1364808Y-3451217D01*
X1402991Y-3456673D02*
G01*
X1479354Y-3456673D01*
X1364808Y-3498126D02*
G01*
X1479354Y-3498126D01*
X1364808Y-3498126D02*
G01*
X1364808Y-3569035D01*
X1419354Y-3498126D02*
G01*
X1419354Y-3541763D01*
X1364808Y-3637762D02*
G01*
X1370263Y-3626853D01*
X1381173Y-3615946D01*
X1392082Y-3610490D01*
X1408445Y-3605037D01*
X1435717Y-3605037D01*
X1452082Y-3610490D01*
X1462991Y-3615946D01*
X1473901Y-3626853D01*
X1479354Y-3637762D01*
X1479354Y-3659581D01*
X1473901Y-3670490D01*
X1462991Y-3681399D01*
X1452082Y-3686855D01*
X1435717Y-3692309D01*
X1408445Y-3692309D01*
X1392082Y-3686855D01*
X1381173Y-3681399D01*
X1370263Y-3670490D01*
X1364808Y-3659581D01*
X1364808Y-3637762D01*
X1392082Y-3810127D02*
G01*
X1381173Y-3804673D01*
X1370263Y-3793764D01*
X1364808Y-3782855D01*
X1364808Y-3761036D01*
X1370263Y-3750127D01*
X1381173Y-3739217D01*
X1392082Y-3733764D01*
X1408445Y-3728308D01*
X1435717Y-3728308D01*
X1452082Y-3733764D01*
X1462991Y-3739217D01*
X1473901Y-3750127D01*
X1479354Y-3761036D01*
X1479354Y-3782855D01*
X1473901Y-3793764D01*
X1462991Y-3804673D01*
X1452082Y-3810127D01*
X38100Y-1162809D02*
G01*
X10828Y-1226446D01*
X-16446Y-1162809D02*
G01*
X10828Y-1226446D01*
X-46446Y-1149172D02*
G01*
X-55537Y-1144628D01*
X-69171Y-1130990D01*
X-69171Y-1226446D01*
X-103718Y-1203718D02*
G01*
X-99171Y-1208262D01*
X-103718Y-1212809D01*
X-108262Y-1208262D01*
X-103718Y-1203718D01*
X-165536Y-1130990D02*
G01*
X-151899Y-1135537D01*
X-142808Y-1149172D01*
X-138264Y-1171900D01*
X-138264Y-1185537D01*
X-142808Y-1208262D01*
X-151899Y-1221900D01*
X-165536Y-1226446D01*
X-174627Y-1226446D01*
X-188264Y-1221900D01*
X-197355Y-1208262D01*
X-201899Y-1185537D01*
X-201899Y-1171900D01*
X-197355Y-1149172D01*
X-188264Y-1135537D01*
X-174627Y-1130990D01*
X-165536Y-1130990D01*
X-236446Y-1203718D02*
G01*
X-231899Y-1208262D01*
X-236446Y-1212809D01*
X-240990Y-1208262D01*
X-236446Y-1203718D01*
X-280080Y-1130990D02*
G01*
X-330080Y-1130990D01*
X-302808Y-1167353D01*
X-316445Y-1167353D01*
X-325536Y-1171900D01*
X-330080Y-1176446D01*
X-334627Y-1190081D01*
X-334627Y-1199172D01*
X-330080Y-1212809D01*
X-320989Y-1221900D01*
X-307355Y-1226446D01*
X-293717Y-1226446D01*
X-280080Y-1221900D01*
X-275536Y-1217353D01*
X-270990Y-1208262D01*
D42*
X685292Y-1919478D02*
G01*
X674878Y-1914144D01*
X664463Y-1903729D01*
X659384Y-1893570D01*
X659384Y-1872742D01*
X664463Y-1862328D01*
X674878Y-1851913D01*
X685292Y-1846579D01*
X701039Y-1841500D01*
X726947Y-1841500D01*
X742442Y-1846579D01*
X752855Y-1851913D01*
X763270Y-1862328D01*
X768350Y-1872742D01*
X768350Y-1893570D01*
X763270Y-1903729D01*
X752855Y-1914144D01*
X742442Y-1919478D01*
X680212Y-1953768D02*
G01*
X674878Y-1964181D01*
X659384Y-1979676D01*
X768350Y-1979676D01*
X659384Y-2045207D02*
G01*
X664463Y-2029460D01*
X680212Y-2019300D01*
X706120Y-2013965D01*
X721613Y-2013965D01*
X747776Y-2019300D01*
X763270Y-2029460D01*
X768350Y-2045207D01*
X768350Y-2055621D01*
X763270Y-2071115D01*
X747776Y-2081529D01*
X721613Y-2086610D01*
X706120Y-2086610D01*
X680212Y-2081529D01*
X664463Y-2071115D01*
X659384Y-2055621D01*
X659384Y-2045207D01*
X1651662Y-1962685D02*
G01*
X1734720Y-1962685D01*
X1750468Y-1957351D01*
X1755548Y-1952271D01*
X1760628Y-1941857D01*
X1760628Y-1931443D01*
X1755548Y-1921029D01*
X1750468Y-1915695D01*
X1734720Y-1910615D01*
X1724306Y-1910615D01*
X1672490Y-1996975D02*
G01*
X1667156Y-2007135D01*
X1651662Y-2022883D01*
X1760628Y-2022883D01*
X291084Y-1765300D02*
G01*
X400050Y-1765300D01*
X291084Y-1765300D02*
G01*
X291084Y-1812036D01*
X296163Y-1827529D01*
X301497Y-1832863D01*
X311912Y-1837944D01*
X322326Y-1837944D01*
X332739Y-1832863D01*
X337820Y-1827529D01*
X342900Y-1812036D01*
X342900Y-1765300D01*
X342900Y-1801621D02*
G01*
X400050Y-1837944D01*
X316992Y-1877568D02*
G01*
X311912Y-1877568D01*
X301497Y-1882647D01*
X296163Y-1887981D01*
X291084Y-1898395D01*
X291084Y-1918970D01*
X296163Y-1929384D01*
X301497Y-1934718D01*
X311912Y-1939797D01*
X322326Y-1939797D01*
X332739Y-1934718D01*
X348234Y-1924304D01*
X400050Y-1872234D01*
X400050Y-1945131D01*
X-152400Y-1497584D02*
G01*
X-152400Y-1606550D01*
X-152400Y-1497584D02*
G01*
X-199136Y-1497584D01*
X-214629Y-1502663D01*
X-219963Y-1507997D01*
X-225044Y-1518412D01*
X-225044Y-1528826D01*
X-219963Y-1539239D01*
X-214629Y-1544320D01*
X-199136Y-1549400D01*
X-152400Y-1549400D01*
X-188721Y-1549400D02*
G01*
X-225044Y-1606550D01*
X-269747Y-1497584D02*
G01*
X-326897Y-1497584D01*
X-295910Y-1539239D01*
X-311404Y-1539239D01*
X-321818Y-1544320D01*
X-326897Y-1549400D01*
X-332231Y-1565147D01*
X-332231Y-1575562D01*
X-326897Y-1591055D01*
X-316484Y-1601470D01*
X-300989Y-1606550D01*
X-285495Y-1606550D01*
X-269747Y-1601470D01*
X-264668Y-1596389D01*
X-259334Y-1585976D01*
X152400Y-1497584D02*
G01*
X152400Y-1606550D01*
X152400Y-1497584D02*
G01*
X105663Y-1497584D01*
X90170Y-1502663D01*
X84836Y-1507997D01*
X79755Y-1518412D01*
X79755Y-1528826D01*
X84836Y-1539239D01*
X90170Y-1544320D01*
X105663Y-1549400D01*
X152400Y-1549400D01*
X116078Y-1549400D02*
G01*
X79755Y-1606550D01*
X-6604Y-1497584D02*
G01*
X45465Y-1570228D01*
X-32512Y-1570228D01*
X-6604Y-1497584D02*
G01*
X-6604Y-1606550D01*
X-169214Y-1745869D02*
G01*
X-169214Y-1823846D01*
X-174294Y-1839340D01*
X-184708Y-1849754D01*
X-200456Y-1854835D01*
X-210870Y-1854835D01*
X-226364Y-1849754D01*
X-236778Y-1839340D01*
X-241858Y-1823846D01*
X-241858Y-1745869D01*
X-328218Y-1745869D02*
G01*
X-276148Y-1818512D01*
X-354126Y-1818512D01*
X-328218Y-1745869D02*
G01*
X-328218Y-1854835D01*
X-33296Y-2384353D02*
G01*
X-33296Y-2493319D01*
X-33296Y-2493319D02*
G01*
X-95526Y-2493319D01*
X-129816Y-2405181D02*
G01*
X-140230Y-2399847D01*
X-155978Y-2384353D01*
X-155978Y-2493319D01*
X961821Y-3039193D02*
G01*
X967155Y-3028779D01*
X977569Y-3018365D01*
X987729Y-3013285D01*
X1008557Y-3013285D01*
X1018971Y-3018365D01*
X1029385Y-3028779D01*
X1034719Y-3039193D01*
X1039799Y-3054941D01*
X1039799Y-3080849D01*
X1034719Y-3096343D01*
X1029385Y-3106757D01*
X1018971Y-3117171D01*
X1008557Y-3122251D01*
X987729Y-3122251D01*
X977569Y-3117171D01*
X967155Y-3106757D01*
X961821Y-3096343D01*
X922451Y-3039193D02*
G01*
X922451Y-3034113D01*
X917117Y-3023699D01*
X912037Y-3018365D01*
X901623Y-3013285D01*
X880795Y-3013285D01*
X870381Y-3018365D01*
X865301Y-3023699D01*
X859967Y-3034113D01*
X859967Y-3044527D01*
X865301Y-3054941D01*
X875715Y-3070435D01*
X927531Y-3122251D01*
X854887Y-3122251D01*
X633227Y-3237992D02*
G01*
X638561Y-3227578D01*
X648975Y-3217163D01*
X659135Y-3212084D01*
X679963Y-3212084D01*
X690377Y-3217163D01*
X700791Y-3227578D01*
X706125Y-3237992D01*
X711205Y-3253739D01*
X711205Y-3279647D01*
X706125Y-3295142D01*
X700791Y-3305555D01*
X690377Y-3315970D01*
X679963Y-3321050D01*
X659135Y-3321050D01*
X648975Y-3315970D01*
X638561Y-3305555D01*
X633227Y-3295142D01*
X588523Y-3212084D02*
G01*
X531373Y-3212084D01*
X562615Y-3253739D01*
X547121Y-3253739D01*
X536707Y-3258820D01*
X531373Y-3263900D01*
X526293Y-3279647D01*
X526293Y-3290062D01*
X531373Y-3305555D01*
X541787Y-3315970D01*
X557535Y-3321050D01*
X573029Y-3321050D01*
X588523Y-3315970D01*
X593857Y-3310889D01*
X598937Y-3300476D01*
X1115913Y-3842664D02*
G01*
X1115913Y-3925722D01*
X1121247Y-3941470D01*
X1126327Y-3946550D01*
X1136741Y-3951630D01*
X1147155Y-3951630D01*
X1157569Y-3946550D01*
X1162903Y-3941470D01*
X1167983Y-3925722D01*
X1167983Y-3915308D01*
X1076543Y-3868572D02*
G01*
X1076543Y-3863492D01*
X1071463Y-3853078D01*
X1066129Y-3847744D01*
X1055715Y-3842664D01*
X1034887Y-3842664D01*
X1024473Y-3847744D01*
X1019393Y-3853078D01*
X1014313Y-3863492D01*
X1014313Y-3873906D01*
X1019393Y-3884320D01*
X1029807Y-3899814D01*
X1081623Y-3951630D01*
X1008979Y-3951630D01*
X511555Y-2498293D02*
G01*
X589534Y-2498293D01*
X605028Y-2503373D01*
X615442Y-2513787D01*
X620521Y-2529535D01*
X620521Y-2539949D01*
X615442Y-2555443D01*
X605028Y-2565857D01*
X589534Y-2570937D01*
X511555Y-2570937D01*
X537463Y-2610561D02*
G01*
X532384Y-2610561D01*
X521970Y-2615641D01*
X516636Y-2620975D01*
X511555Y-2631389D01*
X511555Y-2651963D01*
X516636Y-2662377D01*
X521970Y-2667711D01*
X532384Y-2672791D01*
X542797Y-2672791D01*
X553212Y-2667711D01*
X568705Y-2657297D01*
X620521Y-2605227D01*
X620521Y-2678125D01*
X304182Y-3212358D02*
G01*
X315318Y-3208766D01*
X330047Y-3208766D01*
X340822Y-3212358D01*
X355551Y-3227087D01*
X359321Y-3238042D01*
X359321Y-3252769D01*
X355729Y-3263905D01*
X348185Y-3278634D01*
X329867Y-3296953D01*
X315318Y-3304316D01*
X304182Y-3307910D01*
X289455Y-3307910D01*
X278500Y-3304138D01*
X263771Y-3289409D01*
X260179Y-3278634D01*
X260179Y-3263905D01*
X263771Y-3252769D01*
X283530Y-3184519D02*
G01*
X279935Y-3173384D01*
X279935Y-3151474D01*
X202885Y-3228522D01*
X456692Y-1830578D02*
G01*
X446278Y-1825244D01*
X435863Y-1814829D01*
X430784Y-1804670D01*
X430784Y-1783842D01*
X435863Y-1773428D01*
X446278Y-1763013D01*
X456692Y-1757679D01*
X472439Y-1752600D01*
X498347Y-1752600D01*
X513842Y-1757679D01*
X524255Y-1763013D01*
X534670Y-1773428D01*
X539750Y-1783842D01*
X539750Y-1804670D01*
X534670Y-1814829D01*
X524255Y-1825244D01*
X513842Y-1830578D01*
X430784Y-1937512D02*
G01*
X539750Y-1885695D01*
X430784Y-1864868D02*
G01*
X430784Y-1937512D01*
X811339Y-2136919D02*
G01*
X811339Y-1995919D01*
X992060Y-1995919D02*
G01*
X992060Y-2136919D01*
X976820Y-2152159D02*
G01*
X826579Y-2152159D01*
X811339Y-1774680D02*
G01*
X811339Y-1915680D01*
X992060Y-1915680D02*
G01*
X992060Y-1774680D01*
X976820Y-1759440D02*
G01*
X826579Y-1759440D01*
D10*
X1652399Y-1499999D02*
G01*
X1499999Y-1499999D01*
X1499999Y-1630809D02*
G01*
X1499979Y-1500022D01*
X1652399Y-2515999D02*
G01*
X1499999Y-2515999D01*
X1499999Y-2515999D02*
G01*
X1499999Y-2385189D01*
D42*
X78760Y-1896821D02*
G01*
X78760Y-1992708D01*
X-53360Y-1992708D01*
X-53360Y-1896821D01*
X78760Y-1811578D02*
G01*
X78760Y-1715691D01*
X-53360Y-1715691D01*
X-53360Y-1811578D01*
X-283921Y-1475760D02*
G01*
X-379808Y-1475760D01*
X-379808Y-1343639D01*
X-283921Y-1343639D01*
X-198678Y-1475760D02*
G01*
X-102791Y-1475760D01*
X-102791Y-1343639D01*
X-198678Y-1343639D01*
X33578Y-1475760D02*
G01*
X-62308Y-1475760D01*
X-62308Y-1343639D01*
X33578Y-1343639D01*
X118821Y-1475760D02*
G01*
X214708Y-1475760D01*
X214708Y-1343639D01*
X118821Y-1343639D01*
D10*
X-408990Y-1713400D02*
G01*
X-408990Y-1893402D01*
X-98988Y-1713400D02*
G01*
X-98988Y-1893402D01*
D42*
X204726Y-2753263D02*
G01*
X204726Y-2138075D01*
X204726Y-2138075D01*
X-406397Y-2750456D02*
G01*
X-406397Y-2135268D01*
X-406397Y-2135268D01*
D10*
X549998Y-3060024D02*
G01*
X549998Y-3140026D01*
X660974Y-3029038D02*
G01*
X580976Y-3029038D01*
X660974Y-3171004D02*
G01*
X580976Y-3171004D01*
X718563Y-3028457D02*
G01*
X798563Y-3028457D01*
X829546Y-3059440D02*
G01*
X829546Y-3139437D01*
X718563Y-3170417D02*
G01*
X798563Y-3170417D01*
X744999Y-3185822D02*
G01*
X744999Y-3265825D01*
X855974Y-3154837D02*
G01*
X775977Y-3154837D01*
X855974Y-3296803D02*
G01*
X775977Y-3296803D01*
X913564Y-3154255D02*
G01*
X993564Y-3154255D01*
X1024547Y-3185238D02*
G01*
X1024547Y-3265236D01*
X913564Y-3296216D02*
G01*
X993564Y-3296216D01*
X1250000Y-3670300D02*
G01*
X1250000Y-3517900D01*
X1119190Y-3517900D02*
G01*
X1249977Y-3517879D01*
X234000Y-3670300D02*
G01*
X234000Y-3517900D01*
X234000Y-3517900D02*
G01*
X364810Y-3517900D01*
D42*
X391279Y-2413660D02*
G01*
X391279Y-2767939D01*
X1056520Y-2767939D01*
X1056520Y-2413660D01*
X391279Y-2413660D01*
D10*
X323679Y-2997641D02*
G01*
X267108Y-3054212D01*
X424060Y-3054205D02*
G01*
X367494Y-2997636D01*
X323674Y-3154588D02*
G01*
X267108Y-3098022D01*
X465193Y-3094515D02*
G01*
X521761Y-3151083D01*
X521761Y-3194900D02*
G01*
X465195Y-3251466D01*
X364812Y-3194895D02*
G01*
X421380Y-3251464D01*
X137822Y-1993201D02*
G01*
X217825Y-1993201D01*
X106837Y-1882226D02*
G01*
X106837Y-1962223D01*
X248803Y-1882226D02*
G01*
X248803Y-1962223D01*
X106255Y-1824636D02*
G01*
X106255Y-1744637D01*
X137238Y-1713654D02*
G01*
X217236Y-1713654D01*
X248216Y-1824636D02*
G01*
X248216Y-1744637D01*
D42*
G75*
G01*
X992060Y-2136920D02*
G02*
X976820Y-2152160I-15240J0D01*
G75*
G01*
X826580Y-2152160D02*
G02*
X811340Y-2136920I0J15240D01*
G75*
G01*
X992060Y-1774680D02*
G03*
X976820Y-1759440I-15240J0D01*
G75*
G01*
X826580Y-1759440D02*
G03*
X811340Y-1774680I0J-15240D01*
D10*
G75*
G01*
X829551Y-3059440D02*
G03*
X798568Y-3028457I-30983J0D01*
G75*
G01*
X798568Y-3170423D02*
G03*
X829551Y-3139437I0J30983D01*
G75*
G01*
X580982Y-3029039D02*
G03*
X549999Y-3060024I0J-30983D01*
G75*
G01*
X549999Y-3140022D02*
G03*
X580982Y-3171005I30983J0D01*
G75*
G01*
X1024552Y-3185239D02*
G03*
X993569Y-3154256I-30983J0D01*
G75*
G01*
X993569Y-3296222D02*
G03*
X1024552Y-3265236I0J30983D01*
G75*
G01*
X775983Y-3154837D02*
G03*
X745000Y-3185823I0J-30983D01*
G75*
G01*
X745000Y-3265820D02*
G03*
X775983Y-3296803I30983J0D01*
G75*
G01*
X521767Y-3194903D02*
G03*
X521767Y-3151086I-21908J21908D01*
G75*
G01*
X421381Y-3251472D02*
G03*
X465198Y-3251469I21907J21909D01*
G75*
G01*
X367497Y-2997642D02*
G03*
X323680Y-2997642I-21908J-21908D01*
G75*
G01*
X267111Y-3054210D02*
G03*
X267111Y-3098025I21909J-21908D01*
G75*
G01*
X137239Y-1713649D02*
G03*
X106256Y-1744632I0J-30983D01*
G75*
G01*
X248222Y-1744632D02*
G03*
X217236Y-1713649I-30983J0D01*
G75*
G01*
X106837Y-1962219D02*
G03*
X137823Y-1993201I30983J0D01*
G75*
G01*
X217820Y-1993201D02*
G03*
X248803Y-1962219I0J30982D01*
G75*
G01
X-76200Y-1943100D02*
G03X-76200Y-1943100I-12700J0D01*
D32*
G75*
G01
X446405Y-2488895D02*
G03X446405Y-2488895I-15011J0D01*
G75*
G01
X382981Y-2303704D02*
G03X382981Y-2303704I-15011J0D01*
M02*
