G04 Layer: BottomSolderMaskLayer*
G04 EasyEDA v6.4.24, 2021-09-13T20:31:56+08:00*
G04 7c28fe87c5d546dabd79321d24f41f1d,34bb6763e28e4bbdb854ef51fa08daf4,10*
G04 Gerber Generator version 0.2*
G04 Scale: 100 percent, Rotated: No, Reflected: No *
G04 Dimensions in millimeters *
G04 leading zeros omitted , absolute positions ,4 integer and 5 decimal *
%FSLAX45Y45*%
%MOMM*%

%ADD52C,2.6016*%
%ADD53C,1.9016*%
%ADD61C,3.7032*%
%ADD62C,0.4656*%

%LPD*%
D62*
X431393Y-2372603D02*
G01*
X431393Y-2234803D01*
X496392Y-2372603D02*
G01*
X496392Y-2234803D01*
X561390Y-2372603D02*
G01*
X561390Y-2234803D01*
X626389Y-2372603D02*
G01*
X626389Y-2234803D01*
X691413Y-2372603D02*
G01*
X691413Y-2234803D01*
X756412Y-2372603D02*
G01*
X756412Y-2234803D01*
X821410Y-2372603D02*
G01*
X821410Y-2234803D01*
X886409Y-2372603D02*
G01*
X886409Y-2234803D01*
X951407Y-2372603D02*
G01*
X951407Y-2234803D01*
X1016406Y-2372603D02*
G01*
X1016406Y-2234803D01*
X431393Y-2946796D02*
G01*
X431393Y-2808996D01*
X496392Y-2946796D02*
G01*
X496392Y-2808996D01*
X561390Y-2946796D02*
G01*
X561390Y-2808996D01*
X626389Y-2946796D02*
G01*
X626389Y-2808996D01*
X691413Y-2946796D02*
G01*
X691413Y-2808996D01*
X756412Y-2946796D02*
G01*
X756412Y-2808996D01*
X821410Y-2946796D02*
G01*
X821410Y-2808996D01*
X886409Y-2946796D02*
G01*
X886409Y-2808996D01*
X951407Y-2946796D02*
G01*
X951407Y-2808996D01*
X1016406Y-2946796D02*
G01*
X1016406Y-2808996D01*
G36*
X964437Y-2117344D02*
G01*
X964437Y-1972055D01*
X1115568Y-1972055D01*
X1115568Y-2117344D01*
G37*
G36*
X1170431Y-2117344D02*
G01*
X1170431Y-1972055D01*
X1321562Y-1972055D01*
X1321562Y-2117344D01*
G37*
G36*
X-35560Y-1974850D02*
G01*
X-35560Y-1884171D01*
X60960Y-1884171D01*
X60960Y-1974850D01*
G37*
G36*
X-35560Y-1824228D02*
G01*
X-35560Y-1733550D01*
X60960Y-1733550D01*
X60960Y-1824228D01*
G37*
G36*
X-361950Y-1457960D02*
G01*
X-361950Y-1361439D01*
X-271271Y-1361439D01*
X-271271Y-1457960D01*
G37*
G36*
X-211328Y-1457960D02*
G01*
X-211328Y-1361439D01*
X-120650Y-1361439D01*
X-120650Y-1457960D01*
G37*
G36*
X-44450Y-1457960D02*
G01*
X-44450Y-1361439D01*
X46228Y-1361439D01*
X46228Y-1457960D01*
G37*
G36*
X106171Y-1457960D02*
G01*
X106171Y-1361439D01*
X196850Y-1361439D01*
X196850Y-1457960D01*
G37*
G36*
X-381507Y-1998471D02*
G01*
X-381507Y-1888236D01*
X-316484Y-1888236D01*
X-316484Y-1998471D01*
G37*
G36*
X-286512Y-1998471D02*
G01*
X-286512Y-1888236D01*
X-221487Y-1888236D01*
X-221487Y-1998471D01*
G37*
G36*
X-191515Y-1998471D02*
G01*
X-191515Y-1888236D01*
X-126492Y-1888236D01*
X-126492Y-1998471D01*
G37*
G36*
X-191515Y-1718563D02*
G01*
X-191515Y-1608328D01*
X-126492Y-1608328D01*
X-126492Y-1718563D01*
G37*
G36*
X-286512Y-1718563D02*
G01*
X-286512Y-1608328D01*
X-221487Y-1608328D01*
X-221487Y-1718563D01*
G37*
G36*
X-381507Y-1718563D02*
G01*
X-381507Y-1608328D01*
X-316484Y-1608328D01*
X-316484Y-1718563D01*
G37*
G36*
X574039Y-3150107D02*
G01*
X574039Y-3050031D01*
X663955Y-3050031D01*
X663955Y-3150107D01*
G37*
G36*
X713994Y-3150107D02*
G01*
X713994Y-3050031D01*
X804163Y-3050031D01*
X804163Y-3150107D01*
G37*
G36*
X768857Y-3275837D02*
G01*
X768857Y-3175762D01*
X859028Y-3175762D01*
X859028Y-3275837D01*
G37*
G36*
X908812Y-3275837D02*
G01*
X908812Y-3175762D01*
X998981Y-3175762D01*
X998981Y-3275837D01*
G37*
G36*
X891286Y-3618229D02*
G01*
X891286Y-3427729D01*
X971550Y-3427729D01*
X971550Y-3618229D01*
G37*
G36*
X1016254Y-3618229D02*
G01*
X1016254Y-3427729D01*
X1096518Y-3427729D01*
X1096518Y-3618229D01*
G37*
G36*
X176529Y-3988054D02*
G01*
X176529Y-3697731D01*
X296926Y-3697731D01*
X296926Y-3988054D01*
G37*
G36*
X1191260Y-3988054D02*
G01*
X1191260Y-3697731D01*
X1311655Y-3697731D01*
X1311655Y-3988054D01*
G37*
G36*
X766318Y-3618229D02*
G01*
X766318Y-3427729D01*
X846581Y-3427729D01*
X846581Y-3618229D01*
G37*
G36*
X641350Y-3618229D02*
G01*
X641350Y-3427729D01*
X721613Y-3427729D01*
X721613Y-3618229D01*
G37*
G36*
X516381Y-3618229D02*
G01*
X516381Y-3427729D01*
X596645Y-3427729D01*
X596645Y-3618229D01*
G37*
G36*
X391413Y-3618229D02*
G01*
X391413Y-3427729D01*
X471678Y-3427729D01*
X471678Y-3618229D01*
G37*
G36*
X340613Y-3141979D02*
G01*
X276860Y-3078226D01*
X347726Y-3007360D01*
X411479Y-3071113D01*
G37*
G36*
X439673Y-3241039D02*
G01*
X375920Y-3177286D01*
X446786Y-3106420D01*
X510539Y-3170173D01*
G37*
G36*
X127762Y-1969262D02*
G01*
X127762Y-1879092D01*
X227837Y-1879092D01*
X227837Y-1969262D01*
G37*
G36*
X127762Y-1829307D02*
G01*
X127762Y-1739137D01*
X227837Y-1739137D01*
X227837Y-1829307D01*
G37*
G36*
X856234Y-473963D02*
G01*
X856234Y-283971D01*
X906271Y-283971D01*
X906271Y-473963D01*
G37*
G36*
X731265Y-473963D02*
G01*
X731265Y-283971D01*
X781304Y-283971D01*
X781304Y-473963D01*
G37*
G36*
X606297Y-473963D02*
G01*
X606297Y-283971D01*
X656336Y-283971D01*
X656336Y-473963D01*
G37*
G36*
X378713Y-198628D02*
G01*
X378713Y-8636D01*
X488695Y-8636D01*
X488695Y-198628D01*
G37*
G36*
X1011428Y-198628D02*
G01*
X1011428Y-8636D01*
X1121410Y-8636D01*
X1121410Y-198628D01*
G37*
G36*
X-236981Y-2288031D02*
G01*
X-236981Y-2137918D01*
X8381Y-2137918D01*
X8381Y-2288031D01*
G37*
G36*
X-236981Y-2688081D02*
G01*
X-236981Y-2537968D01*
X8381Y-2537968D01*
X8381Y-2688081D01*
G37*
D52*
G01*
X999997Y-1399997D03*
G01*
X499998Y-1399997D03*
D53*
G01*
X199999Y-399999D03*
G01*
X1299997Y-399999D03*
D61*
G01*
X-299999Y-199999D03*
G01*
X1799996Y-199999D03*
G01*
X-299999Y-3799992D03*
G01*
X1799996Y-3799992D03*
M02*
