G04 Layer: TopSilkLayer*
G04 EasyEDA v6.4.20.6, 2021-08-14T17:17:54+08:00*
G04 75774476de7741c18b808344251b3932,34bb6763e28e4bbdb854ef51fa08daf4,10*
G04 Gerber Generator version 0.2*
G04 Scale: 100 percent, Rotated: No, Reflected: No *
G04 Dimensions in millimeters *
G04 leading zeros omitted , absolute positions ,4 integer and 5 decimal *
%FSLAX45Y45*%
%MOMM*%

%ADD10C,0.2540*%
%ADD40C,0.1524*%
%ADD41C,0.1500*%

%LPD*%
D40*
X1259641Y-1861116D02*
G01*
X1263233Y-1849981D01*
X1263233Y-1835251D01*
X1259641Y-1824476D01*
X1244912Y-1809747D01*
X1233957Y-1805978D01*
X1219230Y-1805978D01*
X1208095Y-1809569D01*
X1193365Y-1817113D01*
X1175047Y-1835431D01*
X1167683Y-1849981D01*
X1164089Y-1861116D01*
X1164089Y-1875843D01*
X1167861Y-1886798D01*
X1182590Y-1901527D01*
X1193365Y-1905119D01*
X1208095Y-1905119D01*
X1219230Y-1901527D01*
X1287480Y-1881769D02*
G01*
X1298615Y-1885363D01*
X1320525Y-1885363D01*
X1243477Y-1962414D01*
X1352138Y-1916973D02*
G01*
X1392547Y-1957384D01*
X1341000Y-1964748D01*
X1352138Y-1975883D01*
X1355907Y-1986838D01*
X1355907Y-1994024D01*
X1348366Y-2008751D01*
X1341000Y-2016114D01*
X1326454Y-2023478D01*
X1311727Y-2023478D01*
X1297178Y-2016114D01*
X1286042Y-2004979D01*
X1278679Y-1990430D01*
X1278679Y-1983247D01*
X1282270Y-1972111D01*
X85879Y-1831492D02*
G01*
X80543Y-1821078D01*
X70129Y-1810664D01*
X59971Y-1805584D01*
X39141Y-1805584D01*
X28727Y-1810664D01*
X18315Y-1821078D01*
X12981Y-1831492D01*
X7899Y-1847242D01*
X7899Y-1873148D01*
X12981Y-1888642D01*
X18313Y-1899058D01*
X28727Y-1909470D01*
X39141Y-1914550D01*
X59971Y-1914550D01*
X70129Y-1909470D01*
X80543Y-1899056D01*
X85879Y-1888642D01*
X171983Y-1805584D02*
G01*
X120167Y-1878228D01*
X198145Y-1878228D01*
X171983Y-1805584D02*
G01*
X171983Y-1914550D01*
X-295122Y-2034692D02*
G01*
X-300456Y-2024278D01*
X-310870Y-2013864D01*
X-321030Y-2008784D01*
X-341858Y-2008784D01*
X-352272Y-2013864D01*
X-362686Y-2024278D01*
X-368020Y-2034692D01*
X-373100Y-2050440D01*
X-373100Y-2076348D01*
X-368020Y-2091842D01*
X-362686Y-2102256D01*
X-352272Y-2112670D01*
X-341858Y-2117750D01*
X-321030Y-2117750D01*
X-310870Y-2112670D01*
X-300456Y-2102256D01*
X-295122Y-2091842D01*
X-198602Y-2008784D02*
G01*
X-250418Y-2008784D01*
X-255752Y-2055520D01*
X-250418Y-2050440D01*
X-234924Y-2045106D01*
X-219430Y-2045106D01*
X-203682Y-2050440D01*
X-193268Y-2060600D01*
X-188188Y-2076348D01*
X-188188Y-2086762D01*
X-193268Y-2102256D01*
X-203682Y-2112670D01*
X-219430Y-2117750D01*
X-234924Y-2117750D01*
X-250418Y-2112670D01*
X-255752Y-2107590D01*
X-260832Y-2097176D01*
X-335508Y-2376322D02*
G01*
X-345922Y-2381656D01*
X-356336Y-2392070D01*
X-361416Y-2402230D01*
X-361416Y-2423058D01*
X-356336Y-2433472D01*
X-345922Y-2443886D01*
X-335508Y-2449220D01*
X-319760Y-2454300D01*
X-293852Y-2454300D01*
X-278358Y-2449220D01*
X-267944Y-2443886D01*
X-257530Y-2433472D01*
X-252450Y-2423058D01*
X-252450Y-2402230D01*
X-257530Y-2392070D01*
X-267944Y-2381656D01*
X-278358Y-2376322D01*
X-345922Y-2279802D02*
G01*
X-356336Y-2284882D01*
X-361416Y-2300630D01*
X-361416Y-2310790D01*
X-356336Y-2326538D01*
X-340588Y-2336952D01*
X-314680Y-2342032D01*
X-288772Y-2342032D01*
X-267944Y-2336952D01*
X-257530Y-2326538D01*
X-252450Y-2310790D01*
X-252450Y-2305710D01*
X-257530Y-2290216D01*
X-267944Y-2279802D01*
X-283438Y-2274468D01*
X-288772Y-2274468D01*
X-304266Y-2279802D01*
X-314680Y-2290216D01*
X-319760Y-2305710D01*
X-319760Y-2310790D01*
X-314680Y-2326538D01*
X-304266Y-2336952D01*
X-288772Y-2342032D01*
X-208508Y-2998622D02*
G01*
X-218922Y-3003956D01*
X-229336Y-3014370D01*
X-234416Y-3024530D01*
X-234416Y-3045358D01*
X-229336Y-3055772D01*
X-218922Y-3066186D01*
X-208508Y-3071520D01*
X-192760Y-3076600D01*
X-166852Y-3076600D01*
X-151358Y-3071520D01*
X-140944Y-3066186D01*
X-130530Y-3055772D01*
X-125450Y-3045358D01*
X-125450Y-3024530D01*
X-130530Y-3014370D01*
X-140944Y-3003956D01*
X-151358Y-2998622D01*
X-234416Y-2938424D02*
G01*
X-229336Y-2953918D01*
X-218922Y-2959252D01*
X-208508Y-2959252D01*
X-198094Y-2953918D01*
X-192760Y-2943504D01*
X-187680Y-2922930D01*
X-182600Y-2907182D01*
X-172186Y-2896768D01*
X-161772Y-2891688D01*
X-146024Y-2891688D01*
X-135610Y-2896768D01*
X-130530Y-2902102D01*
X-125450Y-2917596D01*
X-125450Y-2938424D01*
X-130530Y-2953918D01*
X-135610Y-2959252D01*
X-146024Y-2964332D01*
X-161772Y-2964332D01*
X-172186Y-2959252D01*
X-182600Y-2948838D01*
X-187680Y-2933090D01*
X-192760Y-2912516D01*
X-198094Y-2902102D01*
X-208508Y-2896768D01*
X-218922Y-2896768D01*
X-229336Y-2902102D01*
X-234416Y-2917596D01*
X-234416Y-2938424D01*
X-10109Y-2989122D02*
G01*
X-20523Y-2994456D01*
X-30937Y-3004870D01*
X-36017Y-3015030D01*
X-36017Y-3035858D01*
X-30937Y-3046272D01*
X-20523Y-3056686D01*
X-10109Y-3062020D01*
X5638Y-3067100D01*
X31546Y-3067100D01*
X47040Y-3062020D01*
X57454Y-3056686D01*
X67868Y-3046272D01*
X72948Y-3035858D01*
X72948Y-3015030D01*
X67868Y-3004870D01*
X57454Y-2994456D01*
X47040Y-2989122D01*
X304Y-2887268D02*
G01*
X15798Y-2892602D01*
X26212Y-2903016D01*
X31546Y-2918510D01*
X31546Y-2923590D01*
X26212Y-2939338D01*
X15798Y-2949752D01*
X304Y-2954832D01*
X-4775Y-2954832D01*
X-20523Y-2949752D01*
X-30937Y-2939338D01*
X-36017Y-2923590D01*
X-36017Y-2918510D01*
X-30937Y-2903016D01*
X-20523Y-2892602D01*
X304Y-2887268D01*
X26212Y-2887268D01*
X52374Y-2892602D01*
X67868Y-2903016D01*
X72948Y-2918510D01*
X72948Y-2928924D01*
X67868Y-2944418D01*
X57454Y-2949752D01*
X-96723Y-1479092D02*
G01*
X-102057Y-1468678D01*
X-112471Y-1458264D01*
X-122631Y-1453184D01*
X-143459Y-1453184D01*
X-153873Y-1458264D01*
X-164287Y-1468678D01*
X-169621Y-1479092D01*
X-174701Y-1494840D01*
X-174701Y-1520748D01*
X-169621Y-1536242D01*
X-164287Y-1546656D01*
X-153873Y-1557070D01*
X-143459Y-1562150D01*
X-122631Y-1562150D01*
X-112471Y-1557070D01*
X-102057Y-1546656D01*
X-96723Y-1536242D01*
X-62433Y-1474012D02*
G01*
X-52019Y-1468678D01*
X-36525Y-1453184D01*
X-36525Y-1562150D01*
X-2235Y-1474012D02*
G01*
X8178Y-1468678D01*
X23672Y-1453184D01*
X23672Y-1562150D01*
X210591Y-3062122D02*
G01*
X200177Y-3067456D01*
X189763Y-3077870D01*
X184683Y-3088030D01*
X184683Y-3108858D01*
X189763Y-3119272D01*
X200177Y-3129686D01*
X210591Y-3135020D01*
X226339Y-3140100D01*
X252247Y-3140100D01*
X267741Y-3135020D01*
X278155Y-3129686D01*
X288569Y-3119272D01*
X293649Y-3108858D01*
X293649Y-3088030D01*
X288569Y-3077870D01*
X278155Y-3067456D01*
X267741Y-3062122D01*
X205511Y-3027832D02*
G01*
X200177Y-3017418D01*
X184683Y-3001924D01*
X293649Y-3001924D01*
X210591Y-2962300D02*
G01*
X205511Y-2962300D01*
X195097Y-2957220D01*
X189763Y-2952140D01*
X184683Y-2941726D01*
X184683Y-2920898D01*
X189763Y-2910484D01*
X195097Y-2905150D01*
X205511Y-2900070D01*
X215925Y-2900070D01*
X226339Y-2905150D01*
X241833Y-2915564D01*
X293649Y-2967634D01*
X293649Y-2894990D01*
X451383Y-2606700D02*
G01*
X560349Y-2606700D01*
X451383Y-2606700D02*
G01*
X451383Y-2570378D01*
X456463Y-2554630D01*
X466877Y-2544470D01*
X477291Y-2539136D01*
X493039Y-2534056D01*
X518947Y-2534056D01*
X534441Y-2539136D01*
X544855Y-2544470D01*
X555269Y-2554630D01*
X560349Y-2570378D01*
X560349Y-2606700D01*
X472211Y-2499766D02*
G01*
X466877Y-2489352D01*
X451383Y-2473604D01*
X560349Y-2473604D01*
X667283Y-2619400D02*
G01*
X776249Y-2619400D01*
X667283Y-2619400D02*
G01*
X667283Y-2583078D01*
X672363Y-2567330D01*
X682777Y-2557170D01*
X693191Y-2551836D01*
X708939Y-2546756D01*
X734847Y-2546756D01*
X750341Y-2551836D01*
X760755Y-2557170D01*
X771169Y-2567330D01*
X776249Y-2583078D01*
X776249Y-2619400D01*
X693191Y-2507132D02*
G01*
X688111Y-2507132D01*
X677697Y-2502052D01*
X672363Y-2496718D01*
X667283Y-2486304D01*
X667283Y-2465730D01*
X672363Y-2455316D01*
X677697Y-2449982D01*
X688111Y-2444902D01*
X698525Y-2444902D01*
X708939Y-2449982D01*
X724433Y-2460396D01*
X776249Y-2512466D01*
X776249Y-2439568D01*
X878382Y-2622600D02*
G01*
X987348Y-2622600D01*
X878382Y-2622600D02*
G01*
X878382Y-2586278D01*
X883462Y-2570530D01*
X893876Y-2560370D01*
X904290Y-2555036D01*
X920038Y-2549956D01*
X945946Y-2549956D01*
X961440Y-2555036D01*
X971854Y-2560370D01*
X982268Y-2570530D01*
X987348Y-2586278D01*
X987348Y-2622600D01*
X878382Y-2505252D02*
G01*
X878382Y-2448102D01*
X920038Y-2479090D01*
X920038Y-2463596D01*
X925118Y-2453182D01*
X930198Y-2448102D01*
X945946Y-2442768D01*
X956360Y-2442768D01*
X971854Y-2448102D01*
X982268Y-2458516D01*
X987348Y-2474010D01*
X987348Y-2489504D01*
X982268Y-2505252D01*
X977188Y-2510332D01*
X966774Y-2515666D01*
X721083Y-55984D02*
G01*
X721083Y-139042D01*
X715749Y-154790D01*
X710669Y-159870D01*
X700255Y-164950D01*
X689841Y-164950D01*
X679427Y-159870D01*
X674093Y-154790D01*
X669013Y-139042D01*
X669013Y-128628D01*
X765533Y-55984D02*
G01*
X822683Y-55984D01*
X791695Y-97640D01*
X807189Y-97640D01*
X817603Y-102720D01*
X822683Y-107800D01*
X828017Y-123548D01*
X828017Y-133962D01*
X822683Y-149456D01*
X812523Y-159870D01*
X796775Y-164950D01*
X781281Y-164950D01*
X765533Y-159870D01*
X760453Y-154790D01*
X755373Y-144376D01*
X81686Y-3510051D02*
G01*
X81686Y-3619017D01*
X81686Y-3510051D02*
G01*
X128422Y-3510051D01*
X143916Y-3515131D01*
X149250Y-3520465D01*
X154330Y-3530879D01*
X154330Y-3546373D01*
X149250Y-3556787D01*
X143916Y-3561867D01*
X128422Y-3567201D01*
X81686Y-3567201D01*
X188620Y-3530879D02*
G01*
X199034Y-3525545D01*
X214782Y-3510051D01*
X214782Y-3619017D01*
X668985Y-3510051D02*
G01*
X668985Y-3619017D01*
X668985Y-3510051D02*
G01*
X715721Y-3510051D01*
X731215Y-3515131D01*
X736549Y-3520465D01*
X741629Y-3530879D01*
X741629Y-3546373D01*
X736549Y-3556787D01*
X731215Y-3561867D01*
X715721Y-3567201D01*
X668985Y-3567201D01*
X781253Y-3535959D02*
G01*
X781253Y-3530879D01*
X786333Y-3520465D01*
X791667Y-3515131D01*
X802081Y-3510051D01*
X822655Y-3510051D01*
X833069Y-3515131D01*
X838403Y-3520465D01*
X843483Y-3530879D01*
X843483Y-3541293D01*
X838403Y-3551707D01*
X827989Y-3567201D01*
X775919Y-3619017D01*
X848817Y-3619017D01*
X1268984Y-3510051D02*
G01*
X1268984Y-3619017D01*
X1268984Y-3510051D02*
G01*
X1315720Y-3510051D01*
X1331213Y-3515131D01*
X1336547Y-3520465D01*
X1341628Y-3530879D01*
X1341628Y-3546373D01*
X1336547Y-3556787D01*
X1331213Y-3561867D01*
X1315720Y-3567201D01*
X1268984Y-3567201D01*
X1386331Y-3510051D02*
G01*
X1443481Y-3510051D01*
X1412494Y-3551707D01*
X1427987Y-3551707D01*
X1438402Y-3556787D01*
X1443481Y-3561867D01*
X1448815Y-3577615D01*
X1448815Y-3588029D01*
X1443481Y-3603523D01*
X1433068Y-3613937D01*
X1417573Y-3619017D01*
X1402079Y-3619017D01*
X1386331Y-3613937D01*
X1381252Y-3608857D01*
X1375918Y-3598443D01*
X-166659Y-3245086D02*
G01*
X-177073Y-3250166D01*
X-187487Y-3260580D01*
X-192821Y-3270994D01*
X-197901Y-3286742D01*
X-197901Y-3312650D01*
X-192821Y-3328144D01*
X-187487Y-3338558D01*
X-177073Y-3348972D01*
X-166659Y-3354052D01*
X-145831Y-3354052D01*
X-135671Y-3348972D01*
X-125257Y-3338558D01*
X-119923Y-3328144D01*
X-114843Y-3312650D01*
X-114843Y-3286742D01*
X-119923Y-3270994D01*
X-125257Y-3260580D01*
X-135671Y-3250166D01*
X-145831Y-3245086D01*
X-166659Y-3245086D01*
X-151165Y-3333478D02*
G01*
X-119923Y-3364466D01*
X-80553Y-3265914D02*
G01*
X-70139Y-3260580D01*
X-54391Y-3245086D01*
X-54391Y-3354052D01*
X165839Y-3248286D02*
G01*
X155425Y-3253366D01*
X145011Y-3263780D01*
X139677Y-3274194D01*
X134597Y-3289942D01*
X134597Y-3315850D01*
X139677Y-3331344D01*
X145011Y-3341758D01*
X155425Y-3352172D01*
X165839Y-3357252D01*
X186667Y-3357252D01*
X196827Y-3352172D01*
X207241Y-3341758D01*
X212575Y-3331344D01*
X217655Y-3315850D01*
X217655Y-3289942D01*
X212575Y-3274194D01*
X207241Y-3263780D01*
X196827Y-3253366D01*
X186667Y-3248286D01*
X165839Y-3248286D01*
X181333Y-3336678D02*
G01*
X212575Y-3367666D01*
X257279Y-3274194D02*
G01*
X257279Y-3269114D01*
X262359Y-3258700D01*
X267693Y-3253366D01*
X278107Y-3248286D01*
X298681Y-3248286D01*
X309095Y-3253366D01*
X314429Y-3258700D01*
X319509Y-3269114D01*
X319509Y-3279528D01*
X314429Y-3289942D01*
X304015Y-3305436D01*
X251945Y-3357252D01*
X324843Y-3357252D01*
X512739Y-3241885D02*
G01*
X502325Y-3246965D01*
X491911Y-3257379D01*
X486577Y-3267793D01*
X481497Y-3283541D01*
X481497Y-3309449D01*
X486577Y-3324943D01*
X491911Y-3335357D01*
X502325Y-3345771D01*
X512739Y-3350851D01*
X533567Y-3350851D01*
X543727Y-3345771D01*
X554141Y-3335357D01*
X559475Y-3324943D01*
X564555Y-3309449D01*
X564555Y-3283541D01*
X559475Y-3267793D01*
X554141Y-3257379D01*
X543727Y-3246965D01*
X533567Y-3241885D01*
X512739Y-3241885D01*
X528233Y-3330277D02*
G01*
X559475Y-3361265D01*
X609259Y-3241885D02*
G01*
X666409Y-3241885D01*
X635167Y-3283541D01*
X650915Y-3283541D01*
X661329Y-3288621D01*
X666409Y-3293701D01*
X671743Y-3309449D01*
X671743Y-3319863D01*
X666409Y-3335357D01*
X655995Y-3345771D01*
X640501Y-3350851D01*
X625007Y-3350851D01*
X609259Y-3345771D01*
X604179Y-3340691D01*
X598845Y-3330277D01*
X857940Y-3245086D02*
G01*
X847526Y-3250166D01*
X837112Y-3260580D01*
X831778Y-3270994D01*
X826698Y-3286742D01*
X826698Y-3312650D01*
X831778Y-3328144D01*
X837112Y-3338558D01*
X847526Y-3348972D01*
X857940Y-3354052D01*
X878768Y-3354052D01*
X888928Y-3348972D01*
X899342Y-3338558D01*
X904676Y-3328144D01*
X909756Y-3312650D01*
X909756Y-3286742D01*
X904676Y-3270994D01*
X899342Y-3260580D01*
X888928Y-3250166D01*
X878768Y-3245086D01*
X857940Y-3245086D01*
X873434Y-3333478D02*
G01*
X904676Y-3364466D01*
X996116Y-3245086D02*
G01*
X944046Y-3317730D01*
X1022024Y-3317730D01*
X996116Y-3245086D02*
G01*
X996116Y-3354052D01*
X1220640Y-3245086D02*
G01*
X1210226Y-3250166D01*
X1199812Y-3260580D01*
X1194478Y-3270994D01*
X1189398Y-3286742D01*
X1189398Y-3312650D01*
X1194478Y-3328144D01*
X1199812Y-3338558D01*
X1210226Y-3348972D01*
X1220640Y-3354052D01*
X1241468Y-3354052D01*
X1251628Y-3348972D01*
X1262042Y-3338558D01*
X1267376Y-3328144D01*
X1272456Y-3312650D01*
X1272456Y-3286742D01*
X1267376Y-3270994D01*
X1262042Y-3260580D01*
X1251628Y-3250166D01*
X1241468Y-3245086D01*
X1220640Y-3245086D01*
X1236134Y-3333478D02*
G01*
X1267376Y-3364466D01*
X1369230Y-3245086D02*
G01*
X1317160Y-3245086D01*
X1312080Y-3291822D01*
X1317160Y-3286742D01*
X1332908Y-3281408D01*
X1348402Y-3281408D01*
X1363896Y-3286742D01*
X1374310Y-3296902D01*
X1379644Y-3312650D01*
X1379644Y-3323064D01*
X1374310Y-3338558D01*
X1363896Y-3348972D01*
X1348402Y-3354052D01*
X1332908Y-3354052D01*
X1317160Y-3348972D01*
X1312080Y-3343892D01*
X1306746Y-3333478D01*
X1565838Y-3248286D02*
G01*
X1555424Y-3253366D01*
X1545010Y-3263780D01*
X1539676Y-3274194D01*
X1534596Y-3289942D01*
X1534596Y-3315850D01*
X1539676Y-3331344D01*
X1545010Y-3341758D01*
X1555424Y-3352172D01*
X1565838Y-3357252D01*
X1586666Y-3357252D01*
X1596826Y-3352172D01*
X1607240Y-3341758D01*
X1612574Y-3331344D01*
X1617654Y-3315850D01*
X1617654Y-3289942D01*
X1612574Y-3274194D01*
X1607240Y-3263780D01*
X1596826Y-3253366D01*
X1586666Y-3248286D01*
X1565838Y-3248286D01*
X1581332Y-3336678D02*
G01*
X1612574Y-3367666D01*
X1714428Y-3263780D02*
G01*
X1709094Y-3253366D01*
X1693600Y-3248286D01*
X1683186Y-3248286D01*
X1667692Y-3253366D01*
X1657278Y-3269114D01*
X1651944Y-3295022D01*
X1651944Y-3320930D01*
X1657278Y-3341758D01*
X1667692Y-3352172D01*
X1683186Y-3357252D01*
X1688266Y-3357252D01*
X1704014Y-3352172D01*
X1714428Y-3341758D01*
X1719508Y-3326264D01*
X1719508Y-3320930D01*
X1714428Y-3305436D01*
X1704014Y-3295022D01*
X1688266Y-3289942D01*
X1683186Y-3289942D01*
X1667692Y-3295022D01*
X1657278Y-3305436D01*
X1651944Y-3320930D01*
X275582Y-2059617D02*
G01*
X198531Y-2136668D01*
X275582Y-2059617D02*
G01*
X308630Y-2092665D01*
X315993Y-2107211D01*
X315993Y-2114755D01*
X312221Y-2125713D01*
X304858Y-2133076D01*
X293900Y-2136848D01*
X286537Y-2136668D01*
X271990Y-2129304D01*
X238942Y-2096256D01*
X264627Y-2121941D02*
G01*
X249897Y-2188034D01*
X336468Y-2149960D02*
G01*
X347604Y-2153551D01*
X369694Y-2153729D01*
X292643Y-2230780D01*
X65074Y-2294496D02*
G01*
X65074Y-2372474D01*
X70154Y-2387968D01*
X80568Y-2398382D01*
X96316Y-2403462D01*
X106730Y-2403462D01*
X122224Y-2398382D01*
X132638Y-2387968D01*
X137718Y-2372474D01*
X137718Y-2294496D01*
X182422Y-2294496D02*
G01*
X239572Y-2294496D01*
X208584Y-2336152D01*
X224078Y-2336152D01*
X234492Y-2341232D01*
X239572Y-2346312D01*
X244906Y-2362060D01*
X244906Y-2372474D01*
X239572Y-2387968D01*
X229158Y-2398382D01*
X213664Y-2403462D01*
X198170Y-2403462D01*
X182422Y-2398382D01*
X177342Y-2393302D01*
X172008Y-2382888D01*
X410766Y-1659755D02*
G01*
X465904Y-1714893D01*
X480451Y-1722257D01*
X495180Y-1722257D01*
X509907Y-1714713D01*
X517270Y-1707349D01*
X524634Y-1692800D01*
X524634Y-1678073D01*
X517270Y-1663527D01*
X462132Y-1608386D01*
X501106Y-1598869D02*
G01*
X504697Y-1587733D01*
X504878Y-1565640D01*
X581929Y-1642691D01*
X1344559Y-2637619D02*
G01*
X1348150Y-2626484D01*
X1348150Y-2611754D01*
X1344559Y-2600980D01*
X1329829Y-2586250D01*
X1318874Y-2582481D01*
X1304147Y-2582481D01*
X1293012Y-2586073D01*
X1278282Y-2593616D01*
X1259964Y-2611935D01*
X1252601Y-2626484D01*
X1249009Y-2637619D01*
X1249009Y-2652346D01*
X1252781Y-2663301D01*
X1267508Y-2678031D01*
X1278282Y-2681622D01*
X1293012Y-2681622D01*
X1304147Y-2678031D01*
X1372397Y-2658272D02*
G01*
X1383532Y-2661866D01*
X1405445Y-2661866D01*
X1328394Y-2738917D01*
X1466509Y-2722930D02*
G01*
X1378323Y-2737479D01*
X1433461Y-2792618D01*
X1466509Y-2722930D02*
G01*
X1389458Y-2799981D01*
X1471559Y-2510619D02*
G01*
X1475150Y-2499484D01*
X1475150Y-2484754D01*
X1471559Y-2473980D01*
X1456829Y-2459250D01*
X1445874Y-2455481D01*
X1431147Y-2455481D01*
X1420012Y-2459073D01*
X1405282Y-2466616D01*
X1386964Y-2484935D01*
X1379601Y-2499484D01*
X1376009Y-2510619D01*
X1376009Y-2525346D01*
X1379781Y-2536301D01*
X1394508Y-2551031D01*
X1405282Y-2554622D01*
X1420012Y-2554622D01*
X1431147Y-2551031D01*
X1499397Y-2531272D02*
G01*
X1510532Y-2534866D01*
X1532445Y-2534866D01*
X1455394Y-2611917D01*
X1600873Y-2603294D02*
G01*
X1564055Y-2566476D01*
X1527416Y-2595930D01*
X1534599Y-2595930D01*
X1549326Y-2603116D01*
X1560461Y-2614251D01*
X1567647Y-2628978D01*
X1567827Y-2643527D01*
X1560283Y-2658254D01*
X1552920Y-2665618D01*
X1538371Y-2672981D01*
X1523644Y-2672981D01*
X1509095Y-2665618D01*
X1497959Y-2654482D01*
X1490596Y-2639933D01*
X1490596Y-2632750D01*
X1494188Y-2621615D01*
G36*
X407771Y-2682697D02*
G01*
X407771Y-2713177D01*
X439775Y-2713177D01*
X439775Y-2682697D01*
G37*
G36*
X576224Y-2682697D02*
G01*
X576224Y-2713177D01*
X608228Y-2713177D01*
X608228Y-2682697D01*
G37*
G36*
X623671Y-2682697D02*
G01*
X623671Y-2713177D01*
X655675Y-2713177D01*
X655675Y-2682697D01*
G37*
G36*
X792124Y-2682697D02*
G01*
X792124Y-2713177D01*
X824128Y-2713177D01*
X824128Y-2682697D01*
G37*
G36*
X839571Y-2682697D02*
G01*
X839571Y-2713177D01*
X871575Y-2713177D01*
X871575Y-2682697D01*
G37*
G36*
X1008024Y-2682697D02*
G01*
X1008024Y-2713177D01*
X1040028Y-2713177D01*
X1040028Y-2682697D01*
G37*
D10*
X1294958Y-2102020D02*
G01*
X1238387Y-2158591D01*
X1238394Y-2001639D02*
G01*
X1294963Y-2058205D01*
X1138011Y-2102025D02*
G01*
X1194577Y-2158591D01*
X1198084Y-1960506D02*
G01*
X1141516Y-1903938D01*
X1097699Y-1903938D02*
G01*
X1041133Y-1960504D01*
X1097704Y-2060887D02*
G01*
X1041135Y-2004319D01*
X332077Y-1878901D02*
G01*
X252074Y-1878901D01*
X363062Y-1767926D02*
G01*
X363062Y-1847923D01*
X221096Y-1767926D02*
G01*
X221096Y-1847923D01*
X363644Y-1710336D02*
G01*
X363644Y-1630337D01*
X332661Y-1599354D02*
G01*
X252663Y-1599354D01*
X221683Y-1710336D02*
G01*
X221683Y-1630337D01*
X126301Y-2017422D02*
G01*
X126301Y-2097425D01*
X15326Y-1986437D02*
G01*
X95323Y-1986437D01*
X15326Y-2128403D02*
G01*
X95323Y-2128403D01*
X-42263Y-1985855D02*
G01*
X-122262Y-1985855D01*
X-153245Y-2016838D02*
G01*
X-153245Y-2096836D01*
X-42263Y-2127816D02*
G01*
X-122262Y-2127816D01*
X-192377Y-2223198D02*
G01*
X-112374Y-2223198D01*
X-223362Y-2334173D02*
G01*
X-223362Y-2254176D01*
X-81396Y-2334173D02*
G01*
X-81396Y-2254176D01*
X-223944Y-2391763D02*
G01*
X-223944Y-2471762D01*
X-192961Y-2502745D02*
G01*
X-112963Y-2502745D01*
X-81983Y-2391763D02*
G01*
X-81983Y-2471762D01*
X-217777Y-2578798D02*
G01*
X-137774Y-2578798D01*
X-248762Y-2689773D02*
G01*
X-248762Y-2609776D01*
X-106796Y-2689773D02*
G01*
X-106796Y-2609776D01*
X-249344Y-2747363D02*
G01*
X-249344Y-2827362D01*
X-218361Y-2858345D02*
G01*
X-138363Y-2858345D01*
X-107383Y-2747363D02*
G01*
X-107383Y-2827362D01*
X201322Y-2578798D02*
G01*
X281325Y-2578798D01*
X170337Y-2689773D02*
G01*
X170337Y-2609776D01*
X312303Y-2689773D02*
G01*
X312303Y-2609776D01*
X169755Y-2747363D02*
G01*
X169755Y-2827362D01*
X200738Y-2858345D02*
G01*
X280736Y-2858345D01*
X311716Y-2747363D02*
G01*
X311716Y-2827362D01*
D40*
X-231919Y-1766760D02*
G01*
X-90919Y-1766760D01*
X-90919Y-1586039D02*
G01*
X-231919Y-1586039D01*
X-247159Y-1601279D02*
G01*
X-247159Y-1751520D01*
X130319Y-1766760D02*
G01*
X-10680Y-1766760D01*
X-10680Y-1586039D02*
G01*
X130319Y-1586039D01*
X145559Y-1601279D02*
G01*
X145559Y-1751520D01*
D10*
X65377Y-2856801D02*
G01*
X-14625Y-2856801D01*
X96362Y-2745826D02*
G01*
X96362Y-2825823D01*
X-45603Y-2745826D02*
G01*
X-45603Y-2825823D01*
X96944Y-2688236D02*
G01*
X96944Y-2608237D01*
X65961Y-2577254D02*
G01*
X-14036Y-2577254D01*
X-45016Y-2688236D02*
G01*
X-45016Y-2608237D01*
D40*
X600623Y-2690322D02*
G01*
X600623Y-2415077D01*
X415376Y-2690322D02*
G01*
X415376Y-2415077D01*
X415376Y-2415077D02*
G01*
X434680Y-2415077D01*
X600623Y-2415077D02*
G01*
X581319Y-2415077D01*
X420377Y-2644378D02*
G01*
X595622Y-2644378D01*
X816523Y-2690322D02*
G01*
X816523Y-2415077D01*
X631276Y-2690322D02*
G01*
X631276Y-2415077D01*
X631276Y-2415077D02*
G01*
X650580Y-2415077D01*
X816523Y-2415077D02*
G01*
X797219Y-2415077D01*
X636277Y-2644378D02*
G01*
X811522Y-2644378D01*
X1032423Y-2690322D02*
G01*
X1032423Y-2415077D01*
X847176Y-2690322D02*
G01*
X847176Y-2415077D01*
X847176Y-2415077D02*
G01*
X866480Y-2415077D01*
X1032423Y-2415077D02*
G01*
X1013119Y-2415077D01*
X852177Y-2644378D02*
G01*
X1027422Y-2644378D01*
D10*
X242013Y-505007D02*
G01*
X242013Y-904699D01*
X1258013Y-904699D02*
G01*
X242013Y-904699D01*
X242013Y-4998D02*
G01*
X242013Y-294990D01*
X1258013Y-505007D02*
G01*
X1258013Y-904699D01*
X1258013Y-500D02*
G01*
X1258013Y-294990D01*
X1258013Y-500D02*
G01*
X242013Y-4998D01*
X85013Y-544068D02*
G01*
X85013Y-244990D01*
X1415013Y-541528D02*
G01*
X1415013Y-251968D01*
X242013Y-244990D02*
G01*
X85013Y-244990D01*
X1415013Y-251968D02*
G01*
X1258013Y-251968D01*
X242013Y-544068D02*
G01*
X85013Y-544068D01*
X1415013Y-541528D02*
G01*
X1258013Y-541528D01*
D40*
X32621Y-3385870D02*
G01*
X32621Y-3214131D01*
X-70540Y-3214131D01*
X-272620Y-3385870D02*
G01*
X-272620Y-3214131D01*
X-169458Y-3214131D01*
X-74460Y-3385870D02*
G01*
X-165539Y-3385870D01*
X77378Y-3214131D02*
G01*
X77378Y-3385870D01*
X180540Y-3385870D01*
X382620Y-3214131D02*
G01*
X382620Y-3385870D01*
X279458Y-3385870D01*
X184459Y-3214131D02*
G01*
X275539Y-3214131D01*
X732619Y-3385870D02*
G01*
X732619Y-3214131D01*
X629457Y-3214131D01*
X427377Y-3385870D02*
G01*
X427377Y-3214131D01*
X530539Y-3214131D01*
X625538Y-3385870D02*
G01*
X534459Y-3385870D01*
X777379Y-3214131D02*
G01*
X777379Y-3385870D01*
X880541Y-3385870D01*
X1082621Y-3214131D02*
G01*
X1082621Y-3385870D01*
X979459Y-3385870D01*
X884461Y-3214131D02*
G01*
X975540Y-3214131D01*
X1432620Y-3385870D02*
G01*
X1432620Y-3214131D01*
X1329458Y-3214131D01*
X1127379Y-3385870D02*
G01*
X1127379Y-3214131D01*
X1230541Y-3214131D01*
X1325539Y-3385870D02*
G01*
X1234460Y-3385870D01*
X1477378Y-3214131D02*
G01*
X1477378Y-3385870D01*
X1580540Y-3385870D01*
X1782620Y-3214131D02*
G01*
X1782620Y-3385870D01*
X1679458Y-3385870D01*
X1584459Y-3214131D02*
G01*
X1675538Y-3214131D01*
X389826Y-2121550D02*
G01*
X457629Y-2189353D01*
X551053Y-2095929D01*
X483250Y-2028126D01*
X329549Y-2061273D02*
G01*
X261746Y-1993470D01*
X355170Y-1900046D01*
X422973Y-1967849D01*
D10*
X-2606Y-2259495D02*
G01*
X-2606Y-2439497D01*
X112392Y-2259495D02*
G01*
X192394Y-2259495D01*
X307395Y-2259495D02*
G01*
X307395Y-2439497D01*
D40*
X696033Y-1613847D02*
G01*
X736600Y-1573281D01*
X777166Y-1613847D01*
X989652Y-1907466D02*
G01*
X1030218Y-1866900D01*
X989652Y-1826333D01*
X483547Y-1826333D02*
G01*
X442981Y-1866900D01*
X483547Y-1907466D01*
X777166Y-2119952D02*
G01*
X736600Y-2160518D01*
X696033Y-2119952D01*
X1408234Y-2869524D02*
G01*
X1507937Y-2969226D01*
X1635726Y-2841437D02*
G01*
X1536024Y-2741734D01*
X1514469Y-2741734D02*
G01*
X1408234Y-2847969D01*
X1664375Y-3125665D02*
G01*
X1564673Y-3025962D01*
X1692462Y-2898173D02*
G01*
X1792165Y-2997875D01*
X1792165Y-3019430D02*
G01*
X1685930Y-3125665D01*
X1547934Y-2729824D02*
G01*
X1647637Y-2829526D01*
X1775426Y-2701737D02*
G01*
X1675724Y-2602034D01*
X1654169Y-2602034D02*
G01*
X1547934Y-2708269D01*
X1804075Y-2985965D02*
G01*
X1704373Y-2886262D01*
X1832162Y-2758473D02*
G01*
X1931865Y-2858175D01*
X1931865Y-2879730D02*
G01*
X1825630Y-2985965D01*
D10*
G75*
G01*
X1097697Y-1903933D02*
G02*
X1141514Y-1903933I21908J-21908D01*
G75*
G01*
X1041128Y-2004319D02*
G02*
X1041131Y-1960502I21909J21907D01*
G75*
G01*
X1294958Y-2058203D02*
G02*
X1294958Y-2102020I-21908J-21908D01*
G75*
G01*
X1238390Y-2158589D02*
G02*
X1194575Y-2158589I-21908J21909D01*
G75*
G01*
X332661Y-1599349D02*
G02*
X363647Y-1630332I3J-30983D01*
G75*
G01*
X221678Y-1630332D02*
G02*
X252664Y-1599349I30983J0D01*
G75*
G01*
X363063Y-1847919D02*
G02*
X332077Y-1878901I-30983J0D01*
G75*
G01*
X252080Y-1878901D02*
G02*
X221097Y-1847921I0J30982D01*
G75*
G01*
X-153251Y-2016839D02*
G02*
X-122268Y-1985856I30983J0D01*
G75*
G01*
X-122268Y-2127822D02*
G02*
X-153251Y-2096836I0J30983D01*
G75*
G01*
X95319Y-1986437D02*
G02*
X126301Y-2017423I0J-30983D01*
G75*
G01*
X126301Y-2097420D02*
G02*
X95319Y-2128403I-30982J0D01*
G75*
G01*
X-192961Y-2502751D02*
G02*
X-223944Y-2471768I0J30983D01*
G75*
G01*
X-81978Y-2471768D02*
G02*
X-112964Y-2502751I-30983J0D01*
G75*
G01*
X-223363Y-2254181D02*
G02*
X-192377Y-2223199I30983J0D01*
G75*
G01*
X-112380Y-2223199D02*
G02*
X-81397Y-2254181I0J-30982D01*
G75*
G01*
X-218361Y-2858351D02*
G02*
X-249344Y-2827368I0J30983D01*
G75*
G01*
X-107378Y-2827368D02*
G02*
X-138364Y-2858351I-30983J0D01*
G75*
G01*
X-248763Y-2609781D02*
G02*
X-217777Y-2578799I30983J0D01*
G75*
G01*
X-137780Y-2578799D02*
G02*
X-106797Y-2609781I0J-30982D01*
G75*
G01*
X200739Y-2858351D02*
G02*
X169756Y-2827368I0J30983D01*
G75*
G01*
X311722Y-2827368D02*
G02*
X280736Y-2858351I-30983J0D01*
G75*
G01*
X170337Y-2609781D02*
G02*
X201323Y-2578799I30983J0D01*
G75*
G01*
X281320Y-2578799D02*
G02*
X312303Y-2609781I0J-30982D01*
D40*
G75*
G01*
X-231920Y-1586040D02*
G03*
X-247160Y-1601280I0J-15240D01*
G75*
G01*
X-247160Y-1751520D02*
G03*
X-231920Y-1766760I15240J0D01*
G75*
G01*
X130320Y-1586040D02*
G02*
X145560Y-1601280I0J-15240D01*
G75*
G01*
X145560Y-1751520D02*
G02*
X130320Y-1766760I-15240J0D01*
D10*
G75*
G01*
X65961Y-2577249D02*
G02*
X96944Y-2608232I0J-30983D01*
G75*
G01*
X-45022Y-2608232D02*
G02*
X-14036Y-2577249I30983J0D01*
G75*
G01*
X96363Y-2825819D02*
G02*
X65377Y-2856801I-30983J0D01*
G75*
G01*
X-14620Y-2856801D02*
G02*
X-45603Y-2825819I0J30982D01*
D40*
G75*
G01*
X1536024Y-2741734D02*
G03*
X1514470Y-2741734I-10777J-10776D01*
G75*
G01*
X1408234Y-2847970D02*
G03*
X1408234Y-2869524I10776J-10777D01*
G75*
G01*
X1792166Y-2997876D02*
G02*
X1792166Y-3019430I-10776J-10777D01*
G75*
G01*
X1685930Y-3125666D02*
G02*
X1664376Y-3125666I-10777J10776D01*
G75*
G01*
X1675724Y-2602034D02*
G03*
X1654170Y-2602034I-10777J-10776D01*
G75*
G01*
X1547934Y-2708270D02*
G03*
X1547934Y-2729824I10776J-10777D01*
G75*
G01*
X1931866Y-2858176D02*
G02*
X1931866Y-2879730I-10776J-10777D01*
G75*
G01*
X1825630Y-2985966D02*
G02*
X1804076Y-2985966I-10777J10776D01*
D10*
G75*
G01
X0Y-2501887D02*
G03X0Y-2501887I-12700J0D01*
D41*
G75*
G01
X479643Y-1961660D02*
G03X479643Y-1961660I-7493J0D01*
M02*
