G04 Layer: BottomPasteMaskLayer*
G04 EasyEDA v6.4.20.6, 2021-08-18T09:30:06+08:00*
G04 2d57448aed11401ea87c12970cfe30e9,34bb6763e28e4bbdb854ef51fa08daf4,10*
G04 Gerber Generator version 0.2*
G04 Scale: 100 percent, Rotated: No, Reflected: No *
G04 Dimensions in millimeters *
G04 leading zeros omitted , absolute positions ,4 integer and 5 decimal *
%FSLAX45Y45*%
%MOMM*%

%ADD33C,0.3640*%
%ADD38R,5.8200X3.1240*%

%LPD*%
G36*
X835710Y-1788312D02*
G01*
X830681Y-1793290D01*
X830681Y-1908302D01*
X835710Y-1913280D01*
X876706Y-1913788D01*
X876706Y-1868779D01*
X921715Y-1868779D01*
X921715Y-1912823D01*
X963676Y-1913280D01*
X968705Y-1908302D01*
X968705Y-1793290D01*
X963676Y-1788312D01*
G37*
G36*
X835710Y-2003298D02*
G01*
X830681Y-2008276D01*
X830681Y-2123287D01*
X835710Y-2128316D01*
X963676Y-2128316D01*
X968705Y-2123287D01*
X968705Y-2008276D01*
X963676Y-2003298D01*
X921715Y-2003298D01*
X921715Y-2047798D01*
X876706Y-2047798D01*
X876706Y-2003806D01*
G37*
G36*
X-27279Y-1888693D02*
G01*
X-32308Y-1893722D01*
X-32308Y-1973681D01*
X-27279Y-1978710D01*
X52679Y-1978710D01*
X57708Y-1973681D01*
X57708Y-1893722D01*
X52679Y-1888693D01*
X28498Y-1888693D01*
X28498Y-1925726D01*
X-4521Y-1925726D01*
X-4521Y-1888693D01*
G37*
G36*
X-27279Y-1729689D02*
G01*
X-32308Y-1734718D01*
X-32308Y-1813712D01*
X-27279Y-1818690D01*
X-4521Y-1818690D01*
X-4521Y-1780692D01*
X28498Y-1780692D01*
X28498Y-1818690D01*
X52679Y-1818690D01*
X57708Y-1813712D01*
X57708Y-1734718D01*
X52679Y-1729689D01*
G37*
G36*
X-360781Y-1364691D02*
G01*
X-365810Y-1369720D01*
X-365810Y-1449679D01*
X-360781Y-1454708D01*
X-280822Y-1454708D01*
X-275793Y-1449679D01*
X-275793Y-1425498D01*
X-312826Y-1425498D01*
X-312826Y-1392478D01*
X-275793Y-1392478D01*
X-275793Y-1369720D01*
X-280822Y-1364691D01*
G37*
G36*
X-200812Y-1364691D02*
G01*
X-205790Y-1369720D01*
X-205790Y-1392478D01*
X-167792Y-1392478D01*
X-167792Y-1425498D01*
X-205790Y-1425498D01*
X-205790Y-1449679D01*
X-200812Y-1454708D01*
X-121818Y-1454708D01*
X-116789Y-1449679D01*
X-116789Y-1369720D01*
X-121818Y-1364691D01*
G37*
G36*
X-43281Y-1364691D02*
G01*
X-48310Y-1369720D01*
X-48310Y-1449679D01*
X-43281Y-1454708D01*
X36677Y-1454708D01*
X41706Y-1449679D01*
X41706Y-1425498D01*
X4673Y-1425498D01*
X4673Y-1392478D01*
X41706Y-1392478D01*
X41706Y-1369720D01*
X36677Y-1364691D01*
G37*
G36*
X116687Y-1364691D02*
G01*
X111709Y-1369720D01*
X111709Y-1392478D01*
X149707Y-1392478D01*
X149707Y-1425498D01*
X111709Y-1425498D01*
X111709Y-1449679D01*
X116687Y-1454708D01*
X195681Y-1454708D01*
X200710Y-1449679D01*
X200710Y-1369720D01*
X195681Y-1364691D01*
G37*
D33*
X431393Y-2372603D02*
G01*
X431393Y-2234803D01*
X496392Y-2372603D02*
G01*
X496392Y-2234803D01*
X561390Y-2372603D02*
G01*
X561390Y-2234803D01*
X626389Y-2372603D02*
G01*
X626389Y-2234803D01*
X691413Y-2372603D02*
G01*
X691413Y-2234803D01*
X756412Y-2372603D02*
G01*
X756412Y-2234803D01*
X821410Y-2372603D02*
G01*
X821410Y-2234803D01*
X886409Y-2372603D02*
G01*
X886409Y-2234803D01*
X951407Y-2372603D02*
G01*
X951407Y-2234803D01*
X1016406Y-2372603D02*
G01*
X1016406Y-2234803D01*
X431393Y-2946796D02*
G01*
X431393Y-2808996D01*
X496392Y-2946796D02*
G01*
X496392Y-2808996D01*
X561390Y-2946796D02*
G01*
X561390Y-2808996D01*
X626389Y-2946796D02*
G01*
X626389Y-2808996D01*
X691413Y-2946796D02*
G01*
X691413Y-2808996D01*
X756412Y-2946796D02*
G01*
X756412Y-2808996D01*
X821410Y-2946796D02*
G01*
X821410Y-2808996D01*
X886409Y-2946796D02*
G01*
X886409Y-2808996D01*
X951407Y-2946796D02*
G01*
X951407Y-2808996D01*
X1016406Y-2946796D02*
G01*
X1016406Y-2808996D01*
G36*
X1419989Y-1788553D02*
G01*
X1419989Y-1848497D01*
X1590169Y-1848497D01*
X1590169Y-1788553D01*
G37*
G36*
X1419989Y-1663626D02*
G01*
X1419989Y-1723570D01*
X1590169Y-1723570D01*
X1590169Y-1663626D01*
G37*
G36*
X1690098Y-2463284D02*
G01*
X1690098Y-2563360D01*
X1960100Y-2563360D01*
X1960100Y-2463284D01*
G37*
G36*
X1690098Y-1448562D02*
G01*
X1690098Y-1548637D01*
X1960100Y-1548637D01*
X1960100Y-1448562D01*
G37*
G36*
X1419989Y-1913534D02*
G01*
X1419989Y-1973478D01*
X1590169Y-1973478D01*
X1590169Y-1913534D01*
G37*
G36*
X1419989Y-2038520D02*
G01*
X1419989Y-2098464D01*
X1590169Y-2098464D01*
X1590169Y-2038520D01*
G37*
G36*
X1419992Y-2163498D02*
G01*
X1419992Y-2223442D01*
X1590172Y-2223442D01*
X1590172Y-2163498D01*
G37*
G36*
X1419992Y-2288476D02*
G01*
X1419992Y-2348420D01*
X1590172Y-2348420D01*
X1590172Y-2288476D01*
G37*
G36*
X-376504Y-1893402D02*
G01*
X-376504Y-1993402D01*
X-321503Y-1993402D01*
X-321503Y-1893402D01*
G37*
G36*
X-281508Y-1893402D02*
G01*
X-281508Y-1993402D01*
X-226507Y-1993402D01*
X-226507Y-1893402D01*
G37*
G36*
X-186512Y-1893402D02*
G01*
X-186512Y-1993402D01*
X-131511Y-1993402D01*
X-131511Y-1893402D01*
G37*
G36*
X-186512Y-1613392D02*
G01*
X-186512Y-1713392D01*
X-131511Y-1713392D01*
X-131511Y-1613392D01*
G37*
G36*
X-281508Y-1613392D02*
G01*
X-281508Y-1713392D01*
X-226507Y-1713392D01*
X-226507Y-1613392D01*
G37*
G36*
X-376504Y-1613392D02*
G01*
X-376504Y-1713392D01*
X-321503Y-1713392D01*
X-321503Y-1613392D01*
G37*
D38*
G01*
X-101600Y-2203348D03*
G36*
X-392597Y-2517269D02*
G01*
X189402Y-2517269D01*
X189402Y-2829669D01*
X-392597Y-2829669D01*
G37*
G36*
X659000Y-3055000D02*
G01*
X579000Y-3055000D01*
X579000Y-3145002D01*
X659000Y-3145002D01*
G37*
G36*
X799000Y-3055000D02*
G01*
X719000Y-3055000D01*
X719000Y-3145002D01*
X799000Y-3145002D01*
G37*
G36*
X854001Y-3180798D02*
G01*
X774001Y-3180798D01*
X774001Y-3270801D01*
X854001Y-3270801D01*
G37*
G36*
X994001Y-3180798D02*
G01*
X914001Y-3180798D01*
X914001Y-3270801D01*
X994001Y-3270801D01*
G37*
G36*
X961445Y-3437889D02*
G01*
X901501Y-3437889D01*
X901501Y-3608070D01*
X961445Y-3608070D01*
G37*
G36*
X1086373Y-3437889D02*
G01*
X1026429Y-3437889D01*
X1026429Y-3608070D01*
X1086373Y-3608070D01*
G37*
G36*
X286715Y-3707998D02*
G01*
X186639Y-3707998D01*
X186639Y-3978000D01*
X286715Y-3978000D01*
G37*
G36*
X1301437Y-3707998D02*
G01*
X1201361Y-3707998D01*
X1201361Y-3978000D01*
X1301437Y-3978000D01*
G37*
G36*
X836465Y-3437889D02*
G01*
X776521Y-3437889D01*
X776521Y-3608070D01*
X836465Y-3608070D01*
G37*
G36*
X711479Y-3437889D02*
G01*
X651535Y-3437889D01*
X651535Y-3608070D01*
X711479Y-3608070D01*
G37*
G36*
X586501Y-3437892D02*
G01*
X526557Y-3437892D01*
X526557Y-3608072D01*
X586501Y-3608072D01*
G37*
G36*
X461523Y-3437892D02*
G01*
X401579Y-3437892D01*
X401579Y-3608072D01*
X461523Y-3608072D01*
G37*
G36*
X404307Y-3071167D02*
G01*
X347738Y-3014598D01*
X284098Y-3078238D01*
X340667Y-3134807D01*
G37*
G36*
X503301Y-3170161D02*
G01*
X446732Y-3113592D01*
X383092Y-3177232D01*
X439661Y-3233801D01*
G37*
G36*
X132798Y-1884199D02*
G01*
X132798Y-1964199D01*
X222801Y-1964199D01*
X222801Y-1884199D01*
G37*
G36*
X132798Y-1744200D02*
G01*
X132798Y-1824200D01*
X222801Y-1824200D01*
X222801Y-1744200D01*
G37*
M02*
