M48
METRIC,LZ,000.000
;FILE_FORMAT=3:3
;TYPE=PLATED
;Layer: Drill PTH
;EasyEDA v6.4.20.6, 2021-08-14T17:17:54+08:00
;75774476de7741c18b808344251b3932,34bb6763e28e4bbdb854ef51fa08daf4,10
;Gerber Generator version 0.2
;Holesize 1 = 0.305 mm
T01C0.305
;Holesize 2 = 1.101 mm
T02C1.101
;Holesize 3 = 1.800 mm
T03C1.800
;Holesize 4 = 2.000 mm
T04C2.000
%
G05
G90
T01
X-001651Y-033909
X004318Y-033782
X012446Y-033782
X011430Y-031877
X016129Y-032004
X010160Y-029591
X004318Y-027432
X006477Y-027305
X008636Y-027305
X005842Y-021336
X006858Y-021844
X007747Y-021717
X005080Y-021971
X013208Y-027432
X013970Y-028067
X012954Y-028829
X012319Y-029591
X012827Y-018161
X011938Y-018415
X011049Y-017907
X010795Y-019177
X019177Y-012192
X019177Y-013081
X019177Y-013843
X012921Y-017296
X-003490Y-018857
X-003048Y-018415
X-002434Y-018415
X-001826Y-018415
X-001155Y-026478
X-000527Y-026478
X000984Y-026478
X001626Y-026478
X000574Y-025334
X000254Y-025908
X013970Y-016891
X016129Y-028448
X016586Y-027991
X015671Y-028906
X003185Y-020980
X003787Y-020980
X002583Y-020980
X012319Y-024257
X002921Y-033909
X013462Y-033909
X005588Y-033782
X010564Y-035230
X007507Y-018820
X006961Y-019563
X007375Y-020052
X007893Y-019478
X008655Y-018631
X-001604Y-019156
X-001585Y-019814
X013970Y-023114
X015113Y-023749
X002594Y-027865
X002410Y-028805
X000682Y-031924
X002052Y-031924
X009826Y-038247
X011082Y-038260
X009853Y-039156
X011049Y-039196
X003857Y-038189
X004770Y-038171
X004779Y-039116
X003862Y-039088
X-000804Y-028867
X001359Y-028881
X-001805Y-029304
X-002487Y-030005
X-002600Y-031168
X-002600Y-032505
X-000421Y-024404
X-001103Y-024397
X-002233Y-024404
X-003148Y-024397
X001562Y-012912
X001519Y-014930
X000757Y-014930
X000583Y-012893
X003848Y-016712
X002926Y-015819
X012493Y-020880
X008293Y-024867
X008293Y-025692
X003886Y-024778
X003823Y-026048
X018682Y-029248
X004633Y-018725
T02
X002000Y-004000
X013000Y-004000
T03
X010000Y-014000
X005000Y-014000
T04
X-003000Y-002000
X018000Y-002000
X-003000Y-038000
X018000Y-038000
M30
